{"glyphs":{"0":{"ha":910,"x_min":74,"x_max":836,"o":"m 454 -17 q 168 103 263 -17 q 74 461 74 222 q 168 819 74 699 q 454 939 263 939 q 742 819 649 939 q 836 461 836 699 q 742 103 836 222 q 454 -17 649 -17 m 454 114 q 535 126 494 114 q 608 173 575 138 q 662 277 642 208 q 682 461 682 346 q 662 644 682 575 q 608 749 642 714 q 535 796 575 783 q 454 808 494 808 q 375 796 415 808 q 301 749 335 783 q 248 644 268 714 q 228 461 228 575 q 248 277 228 346 q 301 173 268 208 q 375 126 335 138 q 454 114 415 114 z "},"1":{"ha":638,"x_min":117,"x_max":453,"o":"m 300 0 l 300 774 l 117 661 l 117 814 l 303 926 l 453 926 l 453 0 l 300 0 z "},"2":{"ha":824,"x_min":103,"x_max":715,"o":"m 103 0 l 103 118 q 209 197 150 150 q 327 300 268 243 q 435 419 386 357 q 515 541 485 481 q 546 657 546 601 q 528 733 546 699 q 467 789 510 768 q 353 810 424 810 q 217 781 276 810 q 111 719 157 753 l 111 864 q 229 918 161 894 q 386 942 297 942 q 565 905 496 942 q 667 806 635 868 q 700 669 700 744 q 671 542 700 606 q 594 417 642 478 q 489 299 546 356 q 374 195 432 243 q 268 110 317 147 l 232 144 l 715 144 l 715 0 l 103 0 z "},"3":{"ha":817,"x_min":107,"x_max":713,"o":"m 365 -11 q 224 8 289 -11 q 107 53 160 26 l 107 193 q 219 142 158 165 q 353 119 279 119 q 515 158 458 119 q 572 268 572 196 q 517 383 572 342 q 347 424 463 424 l 232 424 l 232 550 l 351 550 q 483 584 439 550 q 526 678 526 618 q 503 751 526 722 q 438 793 481 779 q 336 807 394 807 q 229 794 279 807 q 128 756 179 781 l 128 886 q 231 924 174 908 q 351 939 288 939 q 487 920 428 939 q 587 867 546 901 q 648 788 628 833 q 668 688 668 742 q 652 607 668 642 q 613 549 636 572 q 570 515 590 526 q 542 501 550 503 q 581 483 554 499 q 639 438 608 467 q 691 365 669 408 q 713 263 713 321 q 690 153 713 203 q 622 66 667 103 q 513 9 578 29 q 365 -11 449 -11 z "},"4":{"ha":832,"x_min":53,"x_max":761,"o":"m 481 0 l 481 265 l 53 265 l 53 394 l 481 926 l 635 926 l 635 392 l 761 392 l 761 265 l 635 265 l 635 0 l 481 0 m 199 392 l 481 392 l 481 738 l 199 392 z "},"5":{"ha":806,"x_min":117,"x_max":732,"o":"m 400 -14 q 240 6 308 -14 q 131 51 172 26 l 131 200 q 188 165 151 183 q 274 133 224 146 q 385 121 324 121 q 481 135 443 121 q 540 174 519 150 q 569 228 561 199 q 578 289 578 258 q 552 397 578 361 q 485 446 526 433 q 396 458 443 458 q 292 449 336 458 q 224 430 249 440 q 196 417 200 419 l 117 500 l 169 926 l 667 926 l 667 788 l 279 788 l 250 507 l 129 518 q 260 578 183 558 q 426 597 338 597 q 535 583 481 597 q 635 535 590 568 q 706 443 679 501 q 732 297 732 385 q 703 142 732 203 q 626 48 675 82 q 519 0 578 14 q 400 -14 460 -14 z "},"6":{"ha":835,"x_min":78,"x_max":758,"o":"m 414 -14 q 160 98 243 -14 q 78 425 78 210 q 109 658 78 564 q 192 808 140 751 q 301 892 243 864 q 417 931 360 921 q 515 942 474 942 q 608 934 567 942 q 679 917 650 926 l 679 782 q 610 802 646 794 q 529 810 574 810 q 456 800 496 810 q 376 767 415 790 q 303 705 336 744 q 251 606 271 665 q 232 461 232 546 q 246 283 232 351 q 285 180 260 215 q 346 132 311 144 q 421 119 381 119 q 517 140 481 119 q 572 189 553 160 q 597 249 590 218 q 603 301 603 281 q 556 431 603 386 q 424 475 510 475 q 325 458 367 475 q 257 415 283 440 q 219 363 231 389 l 199 467 q 229 506 208 483 q 281 550 250 529 q 351 585 311 571 q 440 599 390 599 q 676 520 593 599 q 758 300 758 442 q 738 184 758 240 q 676 83 718 128 q 570 13 635 39 q 414 -14 506 -14 z "},"7":{"ha":807,"x_min":96,"x_max":742,"o":"m 203 0 l 589 822 l 610 781 l 96 781 l 96 926 l 742 926 l 742 817 l 372 0 l 203 0 z "},"8":{"ha":838,"x_min":74,"x_max":765,"o":"m 419 -14 q 262 10 328 -14 q 155 74 196 33 q 94 164 114 114 q 74 269 74 214 q 94 367 74 326 q 143 433 115 407 q 197 474 171 460 q 233 492 222 488 q 205 508 225 494 q 161 544 185 521 q 122 604 138 568 q 106 690 106 640 q 138 817 106 760 q 239 908 169 874 q 419 942 308 942 q 601 908 532 942 q 703 817 671 874 q 735 690 735 760 q 719 603 735 639 q 680 544 703 567 q 638 508 657 521 q 610 492 618 496 q 644 474 619 488 q 697 433 669 460 q 745 367 725 407 q 765 269 765 326 q 746 164 765 214 q 685 74 726 114 q 578 10 644 33 q 419 -14 513 -14 m 419 115 q 519 134 482 115 q 576 181 557 153 q 601 238 594 210 q 607 285 607 267 q 585 363 607 329 q 522 416 564 397 q 419 435 481 435 q 317 416 360 435 q 253 363 275 397 q 232 285 232 329 q 239 238 232 267 q 265 181 246 210 q 321 134 283 153 q 419 115 358 115 m 419 540 q 501 557 465 540 q 558 605 538 574 q 578 681 578 636 q 554 757 578 729 q 494 797 531 785 q 419 810 458 810 q 345 797 382 810 q 285 757 308 785 q 261 681 261 729 q 282 605 261 636 q 338 557 303 574 q 419 540 374 540 z "},"9":{"ha":840,"x_min":78,"x_max":758,"o":"m 321 -14 q 227 -6 268 -14 q 157 11 186 1 l 157 146 q 226 126 190 133 q 307 118 263 118 q 381 128 340 118 q 460 160 421 138 q 532 223 499 183 q 585 323 565 263 q 604 467 604 383 q 590 644 604 576 q 550 748 576 713 q 489 796 524 783 q 413 808 454 808 q 318 788 354 808 q 264 739 282 768 q 239 678 246 710 q 232 626 232 647 q 279 497 232 542 q 413 453 326 453 q 510 470 469 453 q 578 513 551 488 q 617 565 606 539 l 638 461 q 606 422 626 444 q 556 378 586 399 q 485 343 525 357 q 396 329 444 329 q 160 408 243 329 q 78 628 78 486 q 97 744 78 689 q 158 844 117 800 q 263 915 200 889 q 413 942 325 942 q 674 831 590 942 q 758 503 758 719 q 726 270 758 364 q 644 120 694 176 q 535 35 593 64 q 419 -3 476 7 q 321 -14 363 -14 z "},"A":{"ha":922,"x_min":24,"x_max":899,"o":"m 24 0 l 385 926 l 547 926 l 899 0 l 738 0 l 428 851 l 486 857 l 176 0 l 24 0 m 201 251 l 246 376 l 686 376 l 699 251 l 201 251 z "},"Á":{"ha":922,"x_min":24,"x_max":899,"o":"m 24 0 l 385 926 l 547 926 l 899 0 l 738 0 l 428 851 l 486 857 l 176 0 l 24 0 m 201 251 l 246 376 l 686 376 l 699 251 l 201 251 m 425 1010 l 492 1168 l 643 1168 l 507 1010 l 425 1010 z "},"Ă":{"ha":922,"x_min":24,"x_max":899,"o":"m 24 0 l 385 926 l 547 926 l 899 0 l 738 0 l 428 851 l 486 857 l 176 0 l 24 0 m 201 251 l 246 376 l 686 376 l 699 251 l 201 251 z "},"Ắ":{"ha":922,"x_min":24,"x_max":899,"o":"m 24 0 l 385 926 l 547 926 l 899 0 l 738 0 l 428 851 l 486 857 l 176 0 l 24 0 m 201 251 l 246 376 l 686 376 l 699 251 l 201 251 z "},"Ặ":{"ha":922,"x_min":24,"x_max":899,"o":"m 24 0 l 385 926 l 547 926 l 899 0 l 738 0 l 428 851 l 486 857 l 176 0 l 24 0 m 201 251 l 246 376 l 686 376 l 699 251 l 201 251 z "},"Ằ":{"ha":922,"x_min":24,"x_max":899,"o":"m 24 0 l 385 926 l 547 926 l 899 0 l 738 0 l 428 851 l 486 857 l 176 0 l 24 0 m 201 251 l 246 376 l 686 376 l 699 251 l 201 251 z "},"Ẳ":{"ha":922,"x_min":24,"x_max":899,"o":"m 24 0 l 385 926 l 547 926 l 899 0 l 738 0 l 428 851 l 486 857 l 176 0 l 24 0 m 201 251 l 246 376 l 686 376 l 699 251 l 201 251 z "},"Ẵ":{"ha":922,"x_min":24,"x_max":899,"o":"m 24 0 l 385 926 l 547 926 l 899 0 l 738 0 l 428 851 l 486 857 l 176 0 l 24 0 m 201 251 l 246 376 l 686 376 l 699 251 l 201 251 z "},"Ǎ":{"ha":922,"x_min":24,"x_max":899,"o":"m 24 0 l 385 926 l 547 926 l 899 0 l 738 0 l 428 851 l 486 857 l 176 0 l 24 0 m 201 251 l 246 376 l 686 376 l 699 251 l 201 251 z "},"Â":{"ha":922,"x_min":24,"x_max":899,"o":"m 24 0 l 385 926 l 547 926 l 899 0 l 738 0 l 428 851 l 486 857 l 176 0 l 24 0 m 201 251 l 246 376 l 686 376 l 699 251 l 201 251 z "},"Ấ":{"ha":922,"x_min":24,"x_max":899,"o":"m 24 0 l 385 926 l 547 926 l 899 0 l 738 0 l 428 851 l 486 857 l 176 0 l 24 0 m 201 251 l 246 376 l 686 376 l 699 251 l 201 251 z "},"Ậ":{"ha":922,"x_min":24,"x_max":899,"o":"m 24 0 l 385 926 l 547 926 l 899 0 l 738 0 l 428 851 l 486 857 l 176 0 l 24 0 m 201 251 l 246 376 l 686 376 l 699 251 l 201 251 z "},"Ầ":{"ha":922,"x_min":24,"x_max":899,"o":"m 24 0 l 385 926 l 547 926 l 899 0 l 738 0 l 428 851 l 486 857 l 176 0 l 24 0 m 201 251 l 246 376 l 686 376 l 699 251 l 201 251 z "},"Ẩ":{"ha":922,"x_min":24,"x_max":899,"o":"m 24 0 l 385 926 l 547 926 l 899 0 l 738 0 l 428 851 l 486 857 l 176 0 l 24 0 m 201 251 l 246 376 l 686 376 l 699 251 l 201 251 z "},"Ẫ":{"ha":922,"x_min":24,"x_max":899,"o":"m 24 0 l 385 926 l 547 926 l 899 0 l 738 0 l 428 851 l 486 857 l 176 0 l 24 0 m 201 251 l 246 376 l 686 376 l 699 251 l 201 251 z "},"Ȁ":{"ha":922,"x_min":24,"x_max":899,"o":"m 24 0 l 385 926 l 547 926 l 899 0 l 738 0 l 428 851 l 486 857 l 176 0 l 24 0 m 201 251 l 246 376 l 686 376 l 699 251 l 201 251 z "},"Ä":{"ha":922,"x_min":24,"x_max":899,"o":"m 24 0 l 385 926 l 547 926 l 899 0 l 738 0 l 428 851 l 486 857 l 176 0 l 24 0 m 201 251 l 246 376 l 686 376 l 699 251 l 201 251 z "},"Ȧ":{"ha":922,"x_min":24,"x_max":899,"o":"m 24 0 l 385 926 l 547 926 l 899 0 l 738 0 l 428 851 l 486 857 l 176 0 l 24 0 m 201 251 l 246 376 l 686 376 l 699 251 l 201 251 z "},"Ạ":{"ha":922,"x_min":24,"x_max":899,"o":"m 24 0 l 385 926 l 547 926 l 899 0 l 738 0 l 428 851 l 486 857 l 176 0 l 24 0 m 201 251 l 246 376 l 686 376 l 699 251 l 201 251 z "},"À":{"ha":922,"x_min":24,"x_max":899,"o":"m 24 0 l 385 926 l 547 926 l 899 0 l 738 0 l 428 851 l 486 857 l 176 0 l 24 0 m 201 251 l 246 376 l 686 376 l 699 251 l 201 251 m 426 999 l 303 1157 l 440 1157 l 513 999 l 426 999 z "},"Ả":{"ha":922,"x_min":24,"x_max":899,"o":"m 24 0 l 385 926 l 547 926 l 899 0 l 738 0 l 428 851 l 486 857 l 176 0 l 24 0 m 201 251 l 246 376 l 686 376 l 699 251 l 201 251 z "},"Ȃ":{"ha":922,"x_min":24,"x_max":899,"o":"m 24 0 l 385 926 l 547 926 l 899 0 l 738 0 l 428 851 l 486 857 l 176 0 l 24 0 m 201 251 l 246 376 l 686 376 l 699 251 l 201 251 z "},"Ā":{"ha":922,"x_min":24,"x_max":899,"o":"m 24 0 l 385 926 l 547 926 l 899 0 l 738 0 l 428 851 l 486 857 l 176 0 l 24 0 m 201 251 l 246 376 l 686 376 l 699 251 l 201 251 z "},"Ą":{"ha":922,"x_min":24,"x_max":899,"o":"m 24 0 l 385 926 l 547 926 l 899 0 l 738 0 l 428 851 l 486 857 l 176 0 l 24 0 m 201 251 l 246 376 l 686 376 l 699 251 l 201 251 z "},"Å":{"ha":922,"x_min":24,"x_max":899,"o":"m 24 0 l 385 926 l 547 926 l 899 0 l 738 0 l 428 851 l 486 857 l 176 0 l 24 0 m 201 251 l 246 376 l 686 376 l 699 251 l 201 251 z "},"Ǻ":{"ha":922,"x_min":24,"x_max":899,"o":"m 24 0 l 385 926 l 547 926 l 899 0 l 738 0 l 428 851 l 486 857 l 176 0 l 24 0 m 201 251 l 246 376 l 686 376 l 699 251 l 201 251 m 425 1221 l 492 1379 l 643 1379 l 507 1221 l 425 1221 z "},"Ã":{"ha":922,"x_min":24,"x_max":899,"o":"m 24 0 l 385 926 l 547 926 l 899 0 l 738 0 l 428 851 l 486 857 l 176 0 l 24 0 m 201 251 l 246 376 l 686 376 l 699 251 l 201 251 z "},"Æ":{"ha":1372,"x_min":24,"x_max":1274,"o":"m 682 886 l 782 879 l 197 0 l 24 0 l 663 926 l 1274 926 l 1274 797 l 836 797 l 836 531 l 1218 531 l 1218 400 l 836 400 l 836 131 l 1274 131 l 1274 0 l 682 0 l 682 886 m 736 253 l 251 253 l 328 381 l 746 381 l 736 253 z "},"Ǽ":{"ha":1372,"x_min":24,"x_max":1274,"o":"m 682 886 l 782 879 l 197 0 l 24 0 l 663 926 l 1274 926 l 1274 797 l 836 797 l 836 531 l 1218 531 l 1218 400 l 836 400 l 836 131 l 1274 131 l 1274 0 l 682 0 l 682 886 m 736 253 l 251 253 l 328 381 l 746 381 l 736 253 m 931 1010 l 997 1168 l 1149 1168 l 1013 1010 l 931 1010 z "},"B":{"ha":897,"x_min":110,"x_max":825,"o":"m 110 0 l 110 926 l 453 926 q 635 896 565 926 q 739 809 706 865 q 772 675 772 753 q 749 577 772 614 q 692 518 725 540 q 631 476 660 496 l 613 508 q 714 470 665 499 q 794 392 763 442 q 825 269 825 343 q 782 115 825 175 q 662 28 739 56 q 485 0 585 0 l 110 0 m 264 128 l 483 128 q 574 140 532 128 q 642 184 617 151 q 668 276 668 217 q 651 350 668 322 q 608 392 635 378 q 547 412 581 407 q 479 417 513 417 l 264 417 l 264 128 m 263 540 l 471 540 q 540 549 507 540 q 596 585 574 558 q 618 663 618 611 q 574 769 618 740 q 458 797 531 797 l 263 797 l 263 540 z "},"C":{"ha":868,"x_min":67,"x_max":794,"o":"m 507 -14 q 178 104 289 -14 q 67 464 67 222 q 176 822 67 701 q 507 942 286 942 q 653 924 581 942 q 794 874 726 906 l 794 736 q 659 795 726 776 q 526 814 592 814 q 358 778 425 814 q 258 665 290 742 q 225 463 225 589 q 258 262 225 339 q 359 149 292 185 q 531 114 426 114 q 660 133 593 114 q 794 190 726 151 l 794 53 q 704 17 753 32 q 606 -6 656 1 q 507 -14 556 -14 z "},"Ć":{"ha":868,"x_min":67,"x_max":794,"o":"m 507 -14 q 178 104 289 -14 q 67 464 67 222 q 176 822 67 701 q 507 942 286 942 q 653 924 581 942 q 794 874 726 906 l 794 736 q 659 795 726 776 q 526 814 592 814 q 358 778 425 814 q 258 665 290 742 q 225 463 225 589 q 258 262 225 339 q 359 149 292 185 q 531 114 426 114 q 660 133 593 114 q 794 190 726 151 l 794 53 q 704 17 753 32 q 606 -6 656 1 q 507 -14 556 -14 m 447 1022 l 514 1181 l 665 1181 l 529 1022 l 447 1022 z "},"Č":{"ha":868,"x_min":67,"x_max":794,"o":"m 507 -14 q 178 104 289 -14 q 67 464 67 222 q 176 822 67 701 q 507 942 286 942 q 653 924 581 942 q 794 874 726 906 l 794 736 q 659 795 726 776 q 526 814 592 814 q 358 778 425 814 q 258 665 290 742 q 225 463 225 589 q 258 262 225 339 q 359 149 292 185 q 531 114 426 114 q 660 133 593 114 q 794 190 726 151 l 794 53 q 704 17 753 32 q 606 -6 656 1 q 507 -14 556 -14 z "},"Ç":{"ha":868,"x_min":67,"x_max":794,"o":"m 507 -14 q 178 104 289 -14 q 67 464 67 222 q 176 822 67 701 q 507 942 286 942 q 653 924 581 942 q 794 874 726 906 l 794 736 q 659 795 726 776 q 526 814 592 814 q 358 778 425 814 q 258 665 290 742 q 225 463 225 589 q 258 262 225 339 q 359 149 292 185 q 531 114 426 114 q 660 133 593 114 q 794 190 726 151 l 794 53 q 704 17 753 32 q 606 -6 656 1 q 507 -14 556 -14 z "},"Ĉ":{"ha":868,"x_min":67,"x_max":794,"o":"m 507 -14 q 178 104 289 -14 q 67 464 67 222 q 176 822 67 701 q 507 942 286 942 q 653 924 581 942 q 794 874 726 906 l 794 736 q 659 795 726 776 q 526 814 592 814 q 358 778 425 814 q 258 665 290 742 q 225 463 225 589 q 258 262 225 339 q 359 149 292 185 q 531 114 426 114 q 660 133 593 114 q 794 190 726 151 l 794 53 q 704 17 753 32 q 606 -6 656 1 q 507 -14 556 -14 z "},"Ċ":{"ha":868,"x_min":67,"x_max":794,"o":"m 507 -14 q 178 104 289 -14 q 67 464 67 222 q 176 822 67 701 q 507 942 286 942 q 653 924 581 942 q 794 874 726 906 l 794 736 q 659 795 726 776 q 526 814 592 814 q 358 778 425 814 q 258 665 290 742 q 225 463 225 589 q 258 262 225 339 q 359 149 292 185 q 531 114 426 114 q 660 133 593 114 q 794 190 726 151 l 794 53 q 704 17 753 32 q 606 -6 656 1 q 507 -14 556 -14 z "},"D":{"ha":953,"x_min":110,"x_max":879,"o":"m 110 0 l 110 926 l 435 926 q 769 810 660 926 q 879 464 879 693 q 769 117 879 235 q 435 0 660 0 l 110 0 m 263 129 l 419 129 q 649 209 575 129 q 722 464 722 289 q 649 718 722 638 q 419 799 575 799 l 263 799 l 263 129 z "},"Ǆ":{"ha":1813,"x_min":110,"x_max":1724,"o":"m 110 0 l 110 926 l 435 926 q 769 810 660 926 q 879 464 879 693 q 769 117 879 235 q 435 0 660 0 l 110 0 m 263 129 l 419 129 q 649 209 575 129 q 722 464 722 289 q 649 718 722 638 q 419 799 575 799 l 263 799 l 263 129 z "},"Ð":{"ha":953,"x_min":8,"x_max":879,"o":"m 110 0 l 110 926 l 435 926 q 769 810 660 926 q 879 464 879 693 q 769 117 879 235 q 435 0 660 0 l 110 0 m 263 129 l 419 129 q 649 209 575 129 q 722 464 722 289 q 649 718 722 638 q 419 799 575 799 l 263 799 l 263 129 m 10 415 l 10 513 l 381 513 l 381 415 l 10 415 z "},"Ď":{"ha":953,"x_min":110,"x_max":879,"o":"m 110 0 l 110 926 l 435 926 q 769 810 660 926 q 879 464 879 693 q 769 117 879 235 q 435 0 660 0 l 110 0 m 263 129 l 419 129 q 649 209 575 129 q 722 464 722 289 q 649 718 722 638 q 419 799 575 799 l 263 799 l 263 129 z "},"Đ":{"ha":953,"x_min":8,"x_max":879,"o":"m 110 0 l 110 926 l 435 926 q 769 810 660 926 q 879 464 879 693 q 769 117 879 235 q 435 0 660 0 l 110 0 m 263 129 l 419 129 q 649 209 575 129 q 722 464 722 289 q 649 718 722 638 q 419 799 575 799 l 263 799 l 263 129 m 10 415 l 10 513 l 381 513 l 381 415 l 10 415 z "},"ǲ":{"ha":1607,"x_min":110,"x_max":1544,"o":"m 110 0 l 110 926 l 435 926 q 769 810 660 926 q 879 464 879 693 q 769 117 879 235 q 435 0 660 0 l 110 0 m 263 129 l 419 129 q 649 209 575 129 q 722 464 722 289 q 649 718 722 638 q 419 799 575 799 l 263 799 l 263 129 m 1015 0 l 1015 122 l 1413 618 l 1432 582 l 1024 582 l 1024 697 l 1544 697 l 1544 578 l 1160 83 l 1157 122 l 1544 122 l 1544 0 l 1015 0 z "},"ǅ":{"ha":1607,"x_min":110,"x_max":1544,"o":"m 110 0 l 110 926 l 435 926 q 769 810 660 926 q 879 464 879 693 q 769 117 879 235 q 435 0 660 0 l 110 0 m 263 129 l 419 129 q 649 209 575 129 q 722 464 722 289 q 649 718 722 638 q 419 799 575 799 l 263 799 l 263 129 z "},"E":{"ha":814,"x_min":110,"x_max":717,"o":"m 110 0 l 110 926 l 717 926 l 717 797 l 264 797 l 264 529 l 658 529 l 658 399 l 263 399 l 263 129 l 717 129 l 717 0 l 110 0 z "},"É":{"ha":814,"x_min":110,"x_max":717,"o":"m 110 0 l 110 926 l 717 926 l 717 797 l 264 797 l 264 529 l 658 529 l 658 399 l 263 399 l 263 129 l 717 129 l 717 0 l 110 0 m 388 1010 l 454 1168 l 606 1168 l 469 1010 l 388 1010 z "},"Ĕ":{"ha":814,"x_min":110,"x_max":717,"o":"m 110 0 l 110 926 l 717 926 l 717 797 l 264 797 l 264 529 l 658 529 l 658 399 l 263 399 l 263 129 l 717 129 l 717 0 l 110 0 z "},"Ě":{"ha":814,"x_min":110,"x_max":717,"o":"m 110 0 l 110 926 l 717 926 l 717 797 l 264 797 l 264 529 l 658 529 l 658 399 l 263 399 l 263 129 l 717 129 l 717 0 l 110 0 z "},"Ḝ":{"ha":814,"x_min":110,"x_max":717,"o":"m 110 0 l 110 926 l 717 926 l 717 797 l 264 797 l 264 529 l 658 529 l 658 399 l 263 399 l 263 129 l 717 129 l 717 0 l 110 0 z "},"Ê":{"ha":814,"x_min":110,"x_max":717,"o":"m 110 0 l 110 926 l 717 926 l 717 797 l 264 797 l 264 529 l 658 529 l 658 399 l 263 399 l 263 129 l 717 129 l 717 0 l 110 0 z "},"Ế":{"ha":814,"x_min":110,"x_max":783,"o":"m 110 0 l 110 926 l 717 926 l 717 797 l 264 797 l 264 529 l 658 529 l 658 399 l 263 399 l 263 129 l 717 129 l 717 0 l 110 0 z "},"Ệ":{"ha":814,"x_min":110,"x_max":717,"o":"m 110 0 l 110 926 l 717 926 l 717 797 l 264 797 l 264 529 l 658 529 l 658 399 l 263 399 l 263 129 l 717 129 l 717 0 l 110 0 z "},"Ề":{"ha":814,"x_min":53,"x_max":717,"o":"m 110 0 l 110 926 l 717 926 l 717 797 l 264 797 l 264 529 l 658 529 l 658 399 l 263 399 l 263 129 l 717 129 l 717 0 l 110 0 z "},"Ể":{"ha":814,"x_min":110,"x_max":731,"o":"m 110 0 l 110 926 l 717 926 l 717 797 l 264 797 l 264 529 l 658 529 l 658 399 l 263 399 l 263 129 l 717 129 l 717 0 l 110 0 z "},"Ễ":{"ha":814,"x_min":110,"x_max":717,"o":"m 110 0 l 110 926 l 717 926 l 717 797 l 264 797 l 264 529 l 658 529 l 658 399 l 263 399 l 263 129 l 717 129 l 717 0 l 110 0 z "},"Ȅ":{"ha":814,"x_min":110,"x_max":717,"o":"m 110 0 l 110 926 l 717 926 l 717 797 l 264 797 l 264 529 l 658 529 l 658 399 l 263 399 l 263 129 l 717 129 l 717 0 l 110 0 z "},"Ë":{"ha":814,"x_min":110,"x_max":717,"o":"m 110 0 l 110 926 l 717 926 l 717 797 l 264 797 l 264 529 l 658 529 l 658 399 l 263 399 l 263 129 l 717 129 l 717 0 l 110 0 z "},"Ė":{"ha":814,"x_min":110,"x_max":717,"o":"m 110 0 l 110 926 l 717 926 l 717 797 l 264 797 l 264 529 l 658 529 l 658 399 l 263 399 l 263 129 l 717 129 l 717 0 l 110 0 z "},"Ẹ":{"ha":814,"x_min":110,"x_max":717,"o":"m 110 0 l 110 926 l 717 926 l 717 797 l 264 797 l 264 529 l 658 529 l 658 399 l 263 399 l 263 129 l 717 129 l 717 0 l 110 0 z "},"È":{"ha":814,"x_min":110,"x_max":717,"o":"m 110 0 l 110 926 l 717 926 l 717 797 l 264 797 l 264 529 l 658 529 l 658 399 l 263 399 l 263 129 l 717 129 l 717 0 l 110 0 m 388 999 l 264 1157 l 401 1157 l 474 999 l 388 999 z "},"Ẻ":{"ha":814,"x_min":110,"x_max":717,"o":"m 110 0 l 110 926 l 717 926 l 717 797 l 264 797 l 264 529 l 658 529 l 658 399 l 263 399 l 263 129 l 717 129 l 717 0 l 110 0 z "},"Ȇ":{"ha":814,"x_min":110,"x_max":717,"o":"m 110 0 l 110 926 l 717 926 l 717 797 l 264 797 l 264 529 l 658 529 l 658 399 l 263 399 l 263 129 l 717 129 l 717 0 l 110 0 z "},"Ē":{"ha":814,"x_min":110,"x_max":717,"o":"m 110 0 l 110 926 l 717 926 l 717 797 l 264 797 l 264 529 l 658 529 l 658 399 l 263 399 l 263 129 l 717 129 l 717 0 l 110 0 z "},"Ḗ":{"ha":814,"x_min":110,"x_max":717,"o":"m 110 0 l 110 926 l 717 926 l 717 797 l 264 797 l 264 529 l 658 529 l 658 399 l 263 399 l 263 129 l 717 129 l 717 0 l 110 0 m 388 1169 l 454 1328 l 606 1328 l 469 1169 l 388 1169 z "},"Ḕ":{"ha":814,"x_min":110,"x_max":717,"o":"m 110 0 l 110 926 l 717 926 l 717 797 l 264 797 l 264 529 l 658 529 l 658 399 l 263 399 l 263 129 l 717 129 l 717 0 l 110 0 m 388 1158 l 264 1317 l 401 1317 l 474 1158 l 388 1158 z "},"Ę":{"ha":814,"x_min":110,"x_max":717,"o":"m 110 0 l 110 926 l 717 926 l 717 797 l 264 797 l 264 529 l 658 529 l 658 399 l 263 399 l 263 129 l 717 129 l 717 0 l 110 0 z "},"Ẽ":{"ha":814,"x_min":110,"x_max":717,"o":"m 110 0 l 110 926 l 717 926 l 717 797 l 264 797 l 264 529 l 658 529 l 658 399 l 263 399 l 263 129 l 717 129 l 717 0 l 110 0 z "},"F":{"ha":767,"x_min":110,"x_max":704,"o":"m 110 0 l 110 926 l 704 926 l 704 797 l 263 797 l 263 521 l 649 521 l 649 390 l 263 390 l 263 0 l 110 0 z "},"Ḟ":{"ha":763,"x_min":110,"x_max":704,"o":"m 110 0 l 110 926 l 704 926 l 704 797 l 263 797 l 263 521 l 649 521 l 649 390 l 263 390 l 263 0 l 110 0 z "},"G":{"ha":965,"x_min":74,"x_max":856,"o":"m 513 -15 q 274 36 372 -15 q 125 194 176 88 q 74 464 74 300 q 125 733 74 626 q 274 890 176 839 q 511 942 372 942 q 671 926 593 942 q 821 878 749 910 l 821 731 q 676 790 747 767 q 531 814 606 814 q 362 778 429 814 q 261 665 294 742 q 228 464 228 589 q 262 263 228 340 q 363 149 296 185 q 525 113 429 113 q 618 120 574 113 q 703 142 663 128 l 703 363 l 508 363 l 508 493 l 856 493 l 856 68 q 689 6 775 26 q 513 -15 603 -15 z "},"Ǵ":{"ha":965,"x_min":74,"x_max":856,"o":"m 513 -15 q 274 36 372 -15 q 125 194 176 88 q 74 464 74 300 q 125 733 74 626 q 274 890 176 839 q 511 942 372 942 q 671 926 593 942 q 821 878 749 910 l 821 731 q 676 790 747 767 q 531 814 606 814 q 362 778 429 814 q 261 665 294 742 q 228 464 228 589 q 262 263 228 340 q 363 149 296 185 q 525 113 429 113 q 618 120 574 113 q 703 142 663 128 l 703 363 l 508 363 l 508 493 l 856 493 l 856 68 q 689 6 775 26 q 513 -15 603 -15 m 474 1018 l 540 1176 l 692 1176 l 556 1018 l 474 1018 z "},"Ğ":{"ha":965,"x_min":74,"x_max":856,"o":"m 513 -15 q 274 36 372 -15 q 125 194 176 88 q 74 464 74 300 q 125 733 74 626 q 274 890 176 839 q 511 942 372 942 q 671 926 593 942 q 821 878 749 910 l 821 731 q 676 790 747 767 q 531 814 606 814 q 362 778 429 814 q 261 665 294 742 q 228 464 228 589 q 262 263 228 340 q 363 149 296 185 q 525 113 429 113 q 618 120 574 113 q 703 142 663 128 l 703 363 l 508 363 l 508 493 l 856 493 l 856 68 q 689 6 775 26 q 513 -15 603 -15 z "},"Ǧ":{"ha":965,"x_min":74,"x_max":856,"o":"m 513 -15 q 274 36 372 -15 q 125 194 176 88 q 74 464 74 300 q 125 733 74 626 q 274 890 176 839 q 511 942 372 942 q 671 926 593 942 q 821 878 749 910 l 821 731 q 676 790 747 767 q 531 814 606 814 q 362 778 429 814 q 261 665 294 742 q 228 464 228 589 q 262 263 228 340 q 363 149 296 185 q 525 113 429 113 q 618 120 574 113 q 703 142 663 128 l 703 363 l 508 363 l 508 493 l 856 493 l 856 68 q 689 6 775 26 q 513 -15 603 -15 z "},"Ĝ":{"ha":965,"x_min":74,"x_max":856,"o":"m 513 -15 q 274 36 372 -15 q 125 194 176 88 q 74 464 74 300 q 125 733 74 626 q 274 890 176 839 q 511 942 372 942 q 671 926 593 942 q 821 878 749 910 l 821 731 q 676 790 747 767 q 531 814 606 814 q 362 778 429 814 q 261 665 294 742 q 228 464 228 589 q 262 263 228 340 q 363 149 296 185 q 525 113 429 113 q 618 120 574 113 q 703 142 663 128 l 703 363 l 508 363 l 508 493 l 856 493 l 856 68 q 689 6 775 26 q 513 -15 603 -15 z "},"Ģ":{"ha":965,"x_min":74,"x_max":856,"o":"m 513 -15 q 274 36 372 -15 q 125 194 176 88 q 74 464 74 300 q 125 733 74 626 q 274 890 176 839 q 511 942 372 942 q 671 926 593 942 q 821 878 749 910 l 821 731 q 676 790 747 767 q 531 814 606 814 q 362 778 429 814 q 261 665 294 742 q 228 464 228 589 q 262 263 228 340 q 363 149 296 185 q 525 113 429 113 q 618 120 574 113 q 703 142 663 128 l 703 363 l 508 363 l 508 493 l 856 493 l 856 68 q 689 6 775 26 q 513 -15 603 -15 z "},"Ġ":{"ha":965,"x_min":74,"x_max":856,"o":"m 513 -15 q 274 36 372 -15 q 125 194 176 88 q 74 464 74 300 q 125 733 74 626 q 274 890 176 839 q 511 942 372 942 q 671 926 593 942 q 821 878 749 910 l 821 731 q 676 790 747 767 q 531 814 606 814 q 362 778 429 814 q 261 665 294 742 q 228 464 228 589 q 262 263 228 340 q 363 149 296 185 q 525 113 429 113 q 618 120 574 113 q 703 142 663 128 l 703 363 l 508 363 l 508 493 l 856 493 l 856 68 q 689 6 775 26 q 513 -15 603 -15 z "},"Ḡ":{"ha":965,"x_min":74,"x_max":856,"o":"m 513 -15 q 274 36 372 -15 q 125 194 176 88 q 74 464 74 300 q 125 733 74 626 q 274 890 176 839 q 511 942 372 942 q 671 926 593 942 q 821 878 749 910 l 821 731 q 676 790 747 767 q 531 814 606 814 q 362 778 429 814 q 261 665 294 742 q 228 464 228 589 q 262 263 228 340 q 363 149 296 185 q 525 113 429 113 q 618 120 574 113 q 703 142 663 128 l 703 363 l 508 363 l 508 493 l 856 493 l 856 68 q 689 6 775 26 q 513 -15 603 -15 z "},"H":{"ha":954,"x_min":110,"x_max":844,"o":"m 110 0 l 110 926 l 263 926 l 263 528 l 690 528 l 690 926 l 844 926 l 844 0 l 690 0 l 690 394 l 263 394 l 263 0 l 110 0 z "},"Ħ":{"ha":954,"x_min":44,"x_max":910,"o":"m 44 669 l 44 757 l 910 757 l 910 669 l 44 669 m 110 0 l 110 926 l 263 926 l 263 528 l 690 528 l 690 926 l 844 926 l 844 0 l 690 0 l 690 394 l 263 394 l 263 0 l 110 0 z "},"Ḫ":{"ha":954,"x_min":110,"x_max":844,"o":"m 110 0 l 110 926 l 263 926 l 263 528 l 690 528 l 690 926 l 844 926 l 844 0 l 690 0 l 690 394 l 263 394 l 263 0 l 110 0 z "},"Ĥ":{"ha":954,"x_min":110,"x_max":844,"o":"m 110 0 l 110 926 l 263 926 l 263 528 l 690 528 l 690 926 l 844 926 l 844 0 l 690 0 l 690 394 l 263 394 l 263 0 l 110 0 z "},"I":{"ha":374,"x_min":110,"x_max":264,"o":"m 110 0 l 110 926 l 264 926 l 264 0 l 110 0 z "},"Ĳ":{"ha":1017,"x_min":110,"x_max":907,"o":"m 110 0 l 110 926 l 264 926 l 264 0 l 110 0 m 628 -14 q 522 0 571 -14 q 431 36 472 14 l 431 183 q 510 137 469 156 q 597 118 551 118 q 716 158 678 118 q 754 288 754 197 l 754 926 l 908 926 l 908 278 q 883 133 908 190 q 817 44 858 76 q 727 -1 776 11 q 628 -14 678 -14 z "},"Í":{"ha":374,"x_min":110,"x_max":371,"o":"m 110 0 l 110 926 l 264 926 l 264 0 l 110 0 m 153 1010 l 219 1168 l 371 1168 l 235 1010 l 153 1010 z "},"Ĭ":{"ha":374,"x_min":-7,"x_max":386,"o":"m 110 0 l 110 926 l 264 926 l 264 0 l 110 0 z "},"Ǐ":{"ha":374,"x_min":25,"x_max":350,"o":"m 110 0 l 110 926 l 264 926 l 264 0 l 110 0 z "},"Î":{"ha":374,"x_min":14,"x_max":365,"o":"m 110 0 l 110 926 l 264 926 l 264 0 l 110 0 z "},"Ȉ":{"ha":374,"x_min":-65,"x_max":344,"o":"m 110 0 l 110 926 l 264 926 l 264 0 l 110 0 z "},"Ï":{"ha":374,"x_min":4,"x_max":371,"o":"m 110 0 l 110 926 l 264 926 l 264 0 l 110 0 z "},"Ḯ":{"ha":374,"x_min":4,"x_max":371,"o":"m 110 0 l 110 926 l 264 926 l 264 0 l 110 0 m 153 1229 l 219 1388 l 371 1388 l 235 1229 l 153 1229 z "},"İ":{"ha":374,"x_min":110,"x_max":264,"o":"m 110 0 l 110 926 l 264 926 l 264 0 l 110 0 z "},"Ị":{"ha":374,"x_min":110,"x_max":264,"o":"m 110 0 l 110 926 l 264 926 l 264 0 l 110 0 z "},"Ì":{"ha":374,"x_min":29,"x_max":264,"o":"m 110 0 l 110 926 l 264 926 l 264 0 l 110 0 m 153 999 l 29 1157 l 167 1157 l 239 999 l 153 999 z "},"Ỉ":{"ha":374,"x_min":90,"x_max":290,"o":"m 110 0 l 110 926 l 264 926 l 264 0 l 110 0 z "},"Ȋ":{"ha":374,"x_min":-7,"x_max":386,"o":"m 110 0 l 110 926 l 264 926 l 264 0 l 110 0 z "},"Ī":{"ha":374,"x_min":13,"x_max":363,"o":"m 110 0 l 110 926 l 264 926 l 264 0 l 110 0 z "},"Į":{"ha":374,"x_min":14,"x_max":264,"o":"m 158 -249 q 51 -217 89 -249 q 14 -126 14 -186 q 53 -42 14 -85 q 153 24 93 0 l 261 0 q 168 -54 206 -25 q 131 -114 131 -83 q 144 -151 131 -140 q 178 -161 157 -161 q 227 -147 206 -161 q 261 -119 249 -132 l 261 -221 q 219 -240 243 -231 q 158 -249 196 -249 m 110 0 l 110 926 l 264 926 l 264 0 l 110 0 z "},"Ĩ":{"ha":374,"x_min":-32,"x_max":429,"o":"m 110 0 l 110 926 l 264 926 l 264 0 l 110 0 z "},"J":{"ha":644,"x_min":57,"x_max":535,"o":"m 254 -14 q 148 0 197 -14 q 57 36 99 14 l 57 183 q 137 137 96 156 q 224 118 178 118 q 342 158 304 118 q 381 288 381 197 l 381 926 l 535 926 l 535 278 q 510 133 535 190 q 444 44 485 76 q 353 -1 403 11 q 254 -14 304 -14 z "},"Ĵ":{"ha":644,"x_min":57,"x_max":639,"o":"m 254 -14 q 148 0 197 -14 q 57 36 99 14 l 57 183 q 137 137 96 156 q 224 118 178 118 q 342 158 304 118 q 381 288 381 197 l 381 926 l 535 926 l 535 278 q 510 133 535 190 q 444 44 485 76 q 353 -1 403 11 q 254 -14 304 -14 z "},"K":{"ha":890,"x_min":110,"x_max":860,"o":"m 253 289 l 221 425 l 636 926 l 831 926 l 253 289 m 110 0 l 110 926 l 264 926 l 264 0 l 110 0 m 428 544 l 860 0 l 660 0 l 310 444 l 428 544 z "},"Ķ":{"ha":890,"x_min":110,"x_max":860,"o":"m 253 289 l 221 425 l 636 926 l 831 926 l 253 289 m 110 0 l 110 926 l 264 926 l 264 0 l 110 0 m 428 544 l 860 0 l 660 0 l 310 444 l 428 544 z "},"L":{"ha":744,"x_min":110,"x_max":706,"o":"m 110 0 l 110 926 l 264 926 l 264 131 l 706 131 l 706 0 l 110 0 z "},"Ǉ":{"ha":1389,"x_min":110,"x_max":1279,"o":"m 110 0 l 110 926 l 264 926 l 264 131 l 706 131 l 706 0 l 110 0 m 999 -14 q 892 0 942 -14 q 801 36 843 14 l 801 183 q 881 137 840 156 q 968 118 922 118 q 1087 158 1049 118 q 1125 288 1125 197 l 1125 926 l 1279 926 l 1279 278 q 1254 133 1279 190 q 1188 44 1229 76 q 1098 -1 1147 11 q 999 -14 1049 -14 z "},"Ĺ":{"ha":744,"x_min":110,"x_max":706,"o":"m 110 0 l 110 926 l 264 926 l 264 131 l 706 131 l 706 0 l 110 0 m 157 1010 l 224 1168 l 375 1168 l 239 1010 l 157 1010 z "},"Ľ":{"ha":760,"x_min":110,"x_max":706,"o":"m 110 0 l 110 926 l 264 926 l 264 131 l 706 131 l 706 0 l 110 0 z "},"Ļ":{"ha":744,"x_min":110,"x_max":706,"o":"m 110 0 l 110 926 l 264 926 l 264 131 l 706 131 l 706 0 l 110 0 z "},"Ŀ":{"ha":744,"x_min":110,"x_max":706,"o":"m 110 0 l 110 926 l 264 926 l 264 131 l 706 131 l 706 0 l 110 0 m 422 393 l 422 528 l 558 528 l 558 393 l 422 393 z "},"Ḷ":{"ha":744,"x_min":110,"x_max":706,"o":"m 110 0 l 110 926 l 264 926 l 264 131 l 706 131 l 706 0 l 110 0 z "},"ǈ":{"ha":1139,"x_min":110,"x_max":1036,"o":"m 110 0 l 110 926 l 264 926 l 264 131 l 706 131 l 706 0 l 110 0 m 757 -268 l 757 -143 q 835 -131 807 -143 q 874 -90 863 -118 q 885 -22 885 -62 l 885 697 l 1031 697 l 1031 -25 q 998 -166 1031 -112 q 903 -244 965 -219 q 757 -268 842 -268 m 881 813 l 881 944 l 1035 944 l 1035 813 l 881 813 z "},"Ḻ":{"ha":744,"x_min":110,"x_max":706,"o":"m 110 0 l 110 926 l 264 926 l 264 131 l 706 131 l 706 0 l 110 0 z "},"Ł":{"ha":746,"x_min":110,"x_max":706,"o":"m 182 454 l 182 465 l 286 557 l 286 546 l 182 454 m 110 0 l 110 926 l 264 926 l 264 131 l 706 131 l 706 0 l 110 0 z "},"M":{"ha":1126,"x_min":110,"x_max":1017,"o":"m 110 0 l 110 926 l 269 926 l 601 436 l 511 425 l 860 926 l 1017 926 l 1017 0 l 864 0 l 864 796 l 907 767 l 554 279 l 218 763 l 258 807 l 258 0 l 110 0 z "},"Ṃ":{"ha":1126,"x_min":110,"x_max":1017,"o":"m 110 0 l 110 926 l 269 926 l 601 436 l 511 425 l 860 926 l 1017 926 l 1017 0 l 864 0 l 864 796 l 907 767 l 554 279 l 218 763 l 258 807 l 258 0 l 110 0 m 500 -192 l 500 -69 l 626 -69 l 626 -192 l 500 -192 z "},"N":{"ha":1004,"x_min":110,"x_max":894,"o":"m 110 0 l 110 926 l 257 926 l 792 186 l 749 103 l 749 926 l 894 926 l 894 0 l 757 0 l 207 756 l 256 824 l 256 0 l 110 0 z "},"Ǌ":{"ha":1649,"x_min":110,"x_max":1539,"o":"m 110 0 l 110 926 l 257 926 l 792 186 l 749 103 l 749 926 l 894 926 l 894 0 l 757 0 l 207 756 l 256 824 l 256 0 l 110 0 m 1258 -14 q 1152 0 1201 -14 q 1061 36 1103 14 l 1061 183 q 1141 137 1100 156 q 1228 118 1182 118 q 1347 158 1308 118 q 1385 288 1385 197 l 1385 926 l 1539 926 l 1539 278 q 1514 133 1539 190 q 1448 44 1489 76 q 1358 -1 1407 11 q 1258 -14 1308 -14 z "},"Ń":{"ha":1004,"x_min":110,"x_max":894,"o":"m 110 0 l 110 926 l 257 926 l 792 186 l 749 103 l 749 926 l 894 926 l 894 0 l 757 0 l 207 756 l 256 824 l 256 0 l 110 0 m 467 1010 l 533 1168 l 685 1168 l 549 1010 l 467 1010 z "},"Ň":{"ha":1004,"x_min":110,"x_max":894,"o":"m 110 0 l 110 926 l 257 926 l 792 186 l 749 103 l 749 926 l 894 926 l 894 0 l 757 0 l 207 756 l 256 824 l 256 0 l 110 0 z "},"Ņ":{"ha":1004,"x_min":110,"x_max":894,"o":"m 110 0 l 110 926 l 257 926 l 792 186 l 749 103 l 749 926 l 894 926 l 894 0 l 757 0 l 207 756 l 256 824 l 256 0 l 110 0 z "},"Ṇ":{"ha":1004,"x_min":110,"x_max":894,"o":"m 110 0 l 110 926 l 257 926 l 792 186 l 749 103 l 749 926 l 894 926 l 894 0 l 757 0 l 207 756 l 256 824 l 256 0 l 110 0 z "},"Ŋ":{"ha":1038,"x_min":121,"x_max":913,"o":"m 638 -247 l 638 -131 q 715 -118 686 -131 q 758 -81 744 -106 q 771 -15 771 -56 l 771 40 l 799 -46 l 263 713 l 263 0 l 121 0 l 121 926 l 272 926 l 771 214 l 771 926 l 913 926 l 913 -8 q 879 -147 913 -94 q 785 -223 846 -199 q 638 -247 724 -247 z "},"Ɲ":{"ha":1035,"x_min":13,"x_max":925,"o":"m 286 -25 q 253 -166 286 -112 q 159 -244 221 -219 q 13 -268 97 -268 l 13 -143 q 90 -131 63 -143 q 129 -90 118 -118 q 140 -22 140 -62 l 140 926 l 288 926 l 822 186 l 779 103 l 779 926 l 925 926 l 925 0 l 788 0 l 238 756 l 286 824 l 286 -25 z "},"ǋ":{"ha":1397,"x_min":110,"x_max":1294,"o":"m 110 0 l 110 926 l 257 926 l 792 186 l 749 103 l 749 926 l 894 926 l 894 0 l 757 0 l 207 756 l 256 824 l 256 0 l 110 0 m 1017 -268 l 1017 -143 q 1094 -131 1067 -143 q 1133 -90 1122 -118 q 1144 -22 1144 -62 l 1144 697 l 1290 697 l 1290 -25 q 1258 -166 1290 -112 q 1163 -244 1225 -219 q 1017 -268 1101 -268 m 1140 813 l 1140 944 l 1294 944 l 1294 813 l 1140 813 z "},"Ṉ":{"ha":1004,"x_min":110,"x_max":894,"o":"m 110 0 l 110 926 l 257 926 l 792 186 l 749 103 l 749 926 l 894 926 l 894 0 l 757 0 l 207 756 l 256 824 l 256 0 l 110 0 z "},"Ñ":{"ha":1004,"x_min":110,"x_max":894,"o":"m 110 0 l 110 926 l 257 926 l 792 186 l 749 103 l 749 926 l 894 926 l 894 0 l 757 0 l 207 756 l 256 824 l 256 0 l 110 0 z "},"O":{"ha":1008,"x_min":74,"x_max":936,"o":"m 504 -15 q 270 38 367 -15 q 124 196 174 90 q 74 463 74 301 q 184 821 74 700 q 504 942 294 942 q 739 889 643 942 q 885 730 835 836 q 936 463 936 624 q 826 106 936 226 q 504 -15 715 -15 m 504 117 q 658 152 597 117 q 748 264 718 188 q 778 464 778 340 q 748 662 778 586 q 658 773 718 738 q 504 808 597 808 q 351 772 413 808 q 260 660 290 736 q 231 463 231 585 q 260 264 231 340 q 351 152 290 188 q 504 117 413 117 z "},"Ó":{"ha":1008,"x_min":74,"x_max":936,"o":"m 504 -15 q 270 38 367 -15 q 124 196 174 90 q 74 463 74 301 q 184 821 74 700 q 504 942 294 942 q 739 889 643 942 q 885 730 835 836 q 936 463 936 624 q 826 106 936 226 q 504 -15 715 -15 m 504 117 q 658 152 597 117 q 748 264 718 188 q 778 464 778 340 q 748 662 778 586 q 658 773 718 738 q 504 808 597 808 q 351 772 413 808 q 260 660 290 736 q 231 463 231 585 q 260 264 231 340 q 351 152 290 188 q 504 117 413 117 m 475 1022 l 542 1181 l 693 1181 l 557 1022 l 475 1022 z "},"Ŏ":{"ha":1008,"x_min":74,"x_max":936,"o":"m 504 -15 q 270 38 367 -15 q 124 196 174 90 q 74 463 74 301 q 184 821 74 700 q 504 942 294 942 q 739 889 643 942 q 885 730 835 836 q 936 463 936 624 q 826 106 936 226 q 504 -15 715 -15 m 504 117 q 658 152 597 117 q 748 264 718 188 q 778 464 778 340 q 748 662 778 586 q 658 773 718 738 q 504 808 597 808 q 351 772 413 808 q 260 660 290 736 q 231 463 231 585 q 260 264 231 340 q 351 152 290 188 q 504 117 413 117 z "},"Ǒ":{"ha":1008,"x_min":74,"x_max":936,"o":"m 504 -15 q 270 38 367 -15 q 124 196 174 90 q 74 463 74 301 q 184 821 74 700 q 504 942 294 942 q 739 889 643 942 q 885 730 835 836 q 936 463 936 624 q 826 106 936 226 q 504 -15 715 -15 m 504 117 q 658 152 597 117 q 748 264 718 188 q 778 464 778 340 q 748 662 778 586 q 658 773 718 738 q 504 808 597 808 q 351 772 413 808 q 260 660 290 736 q 231 463 231 585 q 260 264 231 340 q 351 152 290 188 q 504 117 413 117 z "},"Ô":{"ha":1008,"x_min":74,"x_max":936,"o":"m 504 -15 q 270 38 367 -15 q 124 196 174 90 q 74 463 74 301 q 184 821 74 700 q 504 942 294 942 q 739 889 643 942 q 885 730 835 836 q 936 463 936 624 q 826 106 936 226 q 504 -15 715 -15 m 504 117 q 658 152 597 117 q 748 264 718 188 q 778 464 778 340 q 748 662 778 586 q 658 773 718 738 q 504 808 597 808 q 351 772 413 808 q 260 660 290 736 q 231 463 231 585 q 260 264 231 340 q 351 152 290 188 q 504 117 413 117 z "},"Ố":{"ha":1008,"x_min":74,"x_max":936,"o":"m 504 -15 q 270 38 367 -15 q 124 196 174 90 q 74 463 74 301 q 184 821 74 700 q 504 942 294 942 q 739 889 643 942 q 885 730 835 836 q 936 463 936 624 q 826 106 936 226 q 504 -15 715 -15 m 504 117 q 658 152 597 117 q 748 264 718 188 q 778 464 778 340 q 748 662 778 586 q 658 773 718 738 q 504 808 597 808 q 351 772 413 808 q 260 660 290 736 q 231 463 231 585 q 260 264 231 340 q 351 152 290 188 q 504 117 413 117 z "},"Ộ":{"ha":1008,"x_min":74,"x_max":936,"o":"m 504 -15 q 270 38 367 -15 q 124 196 174 90 q 74 463 74 301 q 184 821 74 700 q 504 942 294 942 q 739 889 643 942 q 885 730 835 836 q 936 463 936 624 q 826 106 936 226 q 504 -15 715 -15 m 504 117 q 658 152 597 117 q 748 264 718 188 q 778 464 778 340 q 748 662 778 586 q 658 773 718 738 q 504 808 597 808 q 351 772 413 808 q 260 660 290 736 q 231 463 231 585 q 260 264 231 340 q 351 152 290 188 q 504 117 413 117 z "},"Ồ":{"ha":1008,"x_min":74,"x_max":936,"o":"m 504 -15 q 270 38 367 -15 q 124 196 174 90 q 74 463 74 301 q 184 821 74 700 q 504 942 294 942 q 739 889 643 942 q 885 730 835 836 q 936 463 936 624 q 826 106 936 226 q 504 -15 715 -15 m 504 117 q 658 152 597 117 q 748 264 718 188 q 778 464 778 340 q 748 662 778 586 q 658 773 718 738 q 504 808 597 808 q 351 772 413 808 q 260 660 290 736 q 231 463 231 585 q 260 264 231 340 q 351 152 290 188 q 504 117 413 117 z "},"Ổ":{"ha":1008,"x_min":74,"x_max":936,"o":"m 504 -15 q 270 38 367 -15 q 124 196 174 90 q 74 463 74 301 q 184 821 74 700 q 504 942 294 942 q 739 889 643 942 q 885 730 835 836 q 936 463 936 624 q 826 106 936 226 q 504 -15 715 -15 m 504 117 q 658 152 597 117 q 748 264 718 188 q 778 464 778 340 q 748 662 778 586 q 658 773 718 738 q 504 808 597 808 q 351 772 413 808 q 260 660 290 736 q 231 463 231 585 q 260 264 231 340 q 351 152 290 188 q 504 117 413 117 z "},"Ỗ":{"ha":1008,"x_min":74,"x_max":936,"o":"m 504 -15 q 270 38 367 -15 q 124 196 174 90 q 74 463 74 301 q 184 821 74 700 q 504 942 294 942 q 739 889 643 942 q 885 730 835 836 q 936 463 936 624 q 826 106 936 226 q 504 -15 715 -15 m 504 117 q 658 152 597 117 q 748 264 718 188 q 778 464 778 340 q 748 662 778 586 q 658 773 718 738 q 504 808 597 808 q 351 772 413 808 q 260 660 290 736 q 231 463 231 585 q 260 264 231 340 q 351 152 290 188 q 504 117 413 117 z "},"Ȍ":{"ha":1008,"x_min":74,"x_max":936,"o":"m 504 -15 q 270 38 367 -15 q 124 196 174 90 q 74 463 74 301 q 184 821 74 700 q 504 942 294 942 q 739 889 643 942 q 885 730 835 836 q 936 463 936 624 q 826 106 936 226 q 504 -15 715 -15 m 504 117 q 658 152 597 117 q 748 264 718 188 q 778 464 778 340 q 748 662 778 586 q 658 773 718 738 q 504 808 597 808 q 351 772 413 808 q 260 660 290 736 q 231 463 231 585 q 260 264 231 340 q 351 152 290 188 q 504 117 413 117 z "},"Ö":{"ha":1008,"x_min":74,"x_max":936,"o":"m 504 -15 q 270 38 367 -15 q 124 196 174 90 q 74 463 74 301 q 184 821 74 700 q 504 942 294 942 q 739 889 643 942 q 885 730 835 836 q 936 463 936 624 q 826 106 936 226 q 504 -15 715 -15 m 504 117 q 658 152 597 117 q 748 264 718 188 q 778 464 778 340 q 748 662 778 586 q 658 773 718 738 q 504 808 597 808 q 351 772 413 808 q 260 660 290 736 q 231 463 231 585 q 260 264 231 340 q 351 152 290 188 q 504 117 413 117 z "},"Ȫ":{"ha":1008,"x_min":74,"x_max":936,"o":"m 504 -15 q 270 38 367 -15 q 124 196 174 90 q 74 463 74 301 q 184 821 74 700 q 504 942 294 942 q 739 889 643 942 q 885 730 835 836 q 936 463 936 624 q 826 106 936 226 q 504 -15 715 -15 m 504 117 q 658 152 597 117 q 748 264 718 188 q 778 464 778 340 q 748 662 778 586 q 658 773 718 738 q 504 808 597 808 q 351 772 413 808 q 260 660 290 736 q 231 463 231 585 q 260 264 231 340 q 351 152 290 188 q 504 117 413 117 z "},"Ȱ":{"ha":1008,"x_min":74,"x_max":936,"o":"m 504 -15 q 270 38 367 -15 q 124 196 174 90 q 74 463 74 301 q 184 821 74 700 q 504 942 294 942 q 739 889 643 942 q 885 730 835 836 q 936 463 936 624 q 826 106 936 226 q 504 -15 715 -15 m 504 117 q 658 152 597 117 q 748 264 718 188 q 778 464 778 340 q 748 662 778 586 q 658 773 718 738 q 504 808 597 808 q 351 772 413 808 q 260 660 290 736 q 231 463 231 585 q 260 264 231 340 q 351 152 290 188 q 504 117 413 117 z "},"Ọ":{"ha":1008,"x_min":74,"x_max":936,"o":"m 504 -15 q 270 38 367 -15 q 124 196 174 90 q 74 463 74 301 q 184 821 74 700 q 504 942 294 942 q 739 889 643 942 q 885 730 835 836 q 936 463 936 624 q 826 106 936 226 q 504 -15 715 -15 m 504 117 q 658 152 597 117 q 748 264 718 188 q 778 464 778 340 q 748 662 778 586 q 658 773 718 738 q 504 808 597 808 q 351 772 413 808 q 260 660 290 736 q 231 463 231 585 q 260 264 231 340 q 351 152 290 188 q 504 117 413 117 z "},"Ò":{"ha":1008,"x_min":74,"x_max":936,"o":"m 504 -15 q 270 38 367 -15 q 124 196 174 90 q 74 463 74 301 q 184 821 74 700 q 504 942 294 942 q 739 889 643 942 q 885 730 835 836 q 936 463 936 624 q 826 106 936 226 q 504 -15 715 -15 m 504 117 q 658 152 597 117 q 748 264 718 188 q 778 464 778 340 q 748 662 778 586 q 658 773 718 738 q 504 808 597 808 q 351 772 413 808 q 260 660 290 736 q 231 463 231 585 q 260 264 231 340 q 351 152 290 188 q 504 117 413 117 m 475 1011 l 351 1169 l 489 1169 l 561 1011 l 475 1011 z "},"Ỏ":{"ha":1008,"x_min":74,"x_max":936,"o":"m 504 -15 q 270 38 367 -15 q 124 196 174 90 q 74 463 74 301 q 184 821 74 700 q 504 942 294 942 q 739 889 643 942 q 885 730 835 836 q 936 463 936 624 q 826 106 936 226 q 504 -15 715 -15 m 504 117 q 658 152 597 117 q 748 264 718 188 q 778 464 778 340 q 748 662 778 586 q 658 773 718 738 q 504 808 597 808 q 351 772 413 808 q 260 660 290 736 q 231 463 231 585 q 260 264 231 340 q 351 152 290 188 q 504 117 413 117 z "},"Ơ":{"ha":1008,"x_min":74,"x_max":936,"o":"m 504 -15 q 270 38 367 -15 q 124 196 174 90 q 74 463 74 301 q 184 821 74 700 q 504 942 294 942 q 739 889 643 942 q 885 730 835 836 q 936 463 936 624 q 826 106 936 226 q 504 -15 715 -15 m 504 117 q 658 152 597 117 q 748 264 718 188 q 778 464 778 340 q 748 662 778 586 q 658 773 718 738 q 504 808 597 808 q 351 772 413 808 q 260 660 290 736 q 231 463 231 585 q 260 264 231 340 q 351 152 290 188 q 504 117 413 117 z "},"Ớ":{"ha":1008,"x_min":74,"x_max":936,"o":"m 504 -15 q 270 38 367 -15 q 124 196 174 90 q 74 463 74 301 q 184 821 74 700 q 504 942 294 942 q 739 889 643 942 q 885 730 835 836 q 936 463 936 624 q 826 106 936 226 q 504 -15 715 -15 m 504 117 q 658 152 597 117 q 748 264 718 188 q 778 464 778 340 q 748 662 778 586 q 658 773 718 738 q 504 808 597 808 q 351 772 413 808 q 260 660 290 736 q 231 463 231 585 q 260 264 231 340 q 351 152 290 188 q 504 117 413 117 m 475 1022 l 542 1181 l 693 1181 l 557 1022 l 475 1022 z "},"Ợ":{"ha":1008,"x_min":74,"x_max":936,"o":"m 504 -15 q 270 38 367 -15 q 124 196 174 90 q 74 463 74 301 q 184 821 74 700 q 504 942 294 942 q 739 889 643 942 q 885 730 835 836 q 936 463 936 624 q 826 106 936 226 q 504 -15 715 -15 m 504 117 q 658 152 597 117 q 748 264 718 188 q 778 464 778 340 q 748 662 778 586 q 658 773 718 738 q 504 808 597 808 q 351 772 413 808 q 260 660 290 736 q 231 463 231 585 q 260 264 231 340 q 351 152 290 188 q 504 117 413 117 z "},"Ờ":{"ha":1008,"x_min":74,"x_max":936,"o":"m 504 -15 q 270 38 367 -15 q 124 196 174 90 q 74 463 74 301 q 184 821 74 700 q 504 942 294 942 q 739 889 643 942 q 885 730 835 836 q 936 463 936 624 q 826 106 936 226 q 504 -15 715 -15 m 504 117 q 658 152 597 117 q 748 264 718 188 q 778 464 778 340 q 748 662 778 586 q 658 773 718 738 q 504 808 597 808 q 351 772 413 808 q 260 660 290 736 q 231 463 231 585 q 260 264 231 340 q 351 152 290 188 q 504 117 413 117 m 475 1011 l 351 1169 l 489 1169 l 561 1011 l 475 1011 z "},"Ở":{"ha":1008,"x_min":74,"x_max":936,"o":"m 504 -15 q 270 38 367 -15 q 124 196 174 90 q 74 463 74 301 q 184 821 74 700 q 504 942 294 942 q 739 889 643 942 q 885 730 835 836 q 936 463 936 624 q 826 106 936 226 q 504 -15 715 -15 m 504 117 q 658 152 597 117 q 748 264 718 188 q 778 464 778 340 q 748 662 778 586 q 658 773 718 738 q 504 808 597 808 q 351 772 413 808 q 260 660 290 736 q 231 463 231 585 q 260 264 231 340 q 351 152 290 188 q 504 117 413 117 z "},"Ỡ":{"ha":1008,"x_min":74,"x_max":936,"o":"m 504 -15 q 270 38 367 -15 q 124 196 174 90 q 74 463 74 301 q 184 821 74 700 q 504 942 294 942 q 739 889 643 942 q 885 730 835 836 q 936 463 936 624 q 826 106 936 226 q 504 -15 715 -15 m 504 117 q 658 152 597 117 q 748 264 718 188 q 778 464 778 340 q 748 662 778 586 q 658 773 718 738 q 504 808 597 808 q 351 772 413 808 q 260 660 290 736 q 231 463 231 585 q 260 264 231 340 q 351 152 290 188 q 504 117 413 117 z "},"Ő":{"ha":1008,"x_min":74,"x_max":936,"o":"m 504 -15 q 270 38 367 -15 q 124 196 174 90 q 74 463 74 301 q 184 821 74 700 q 504 942 294 942 q 739 889 643 942 q 885 730 835 836 q 936 463 936 624 q 826 106 936 226 q 504 -15 715 -15 m 504 117 q 658 152 597 117 q 748 264 718 188 q 778 464 778 340 q 748 662 778 586 q 658 773 718 738 q 504 808 597 808 q 351 772 413 808 q 260 660 290 736 q 231 463 231 585 q 260 264 231 340 q 351 152 290 188 q 504 117 413 117 z "},"Ȏ":{"ha":1008,"x_min":74,"x_max":936,"o":"m 504 -15 q 270 38 367 -15 q 124 196 174 90 q 74 463 74 301 q 184 821 74 700 q 504 942 294 942 q 739 889 643 942 q 885 730 835 836 q 936 463 936 624 q 826 106 936 226 q 504 -15 715 -15 m 504 117 q 658 152 597 117 q 748 264 718 188 q 778 464 778 340 q 748 662 778 586 q 658 773 718 738 q 504 808 597 808 q 351 772 413 808 q 260 660 290 736 q 231 463 231 585 q 260 264 231 340 q 351 152 290 188 q 504 117 413 117 z "},"Ō":{"ha":1008,"x_min":74,"x_max":936,"o":"m 504 -15 q 270 38 367 -15 q 124 196 174 90 q 74 463 74 301 q 184 821 74 700 q 504 942 294 942 q 739 889 643 942 q 885 730 835 836 q 936 463 936 624 q 826 106 936 226 q 504 -15 715 -15 m 504 117 q 658 152 597 117 q 748 264 718 188 q 778 464 778 340 q 748 662 778 586 q 658 773 718 738 q 504 808 597 808 q 351 772 413 808 q 260 660 290 736 q 231 463 231 585 q 260 264 231 340 q 351 152 290 188 q 504 117 413 117 z "},"Ṓ":{"ha":1008,"x_min":74,"x_max":936,"o":"m 504 -15 q 270 38 367 -15 q 124 196 174 90 q 74 463 74 301 q 184 821 74 700 q 504 942 294 942 q 739 889 643 942 q 885 730 835 836 q 936 463 936 624 q 826 106 936 226 q 504 -15 715 -15 m 504 117 q 658 152 597 117 q 748 264 718 188 q 778 464 778 340 q 748 662 778 586 q 658 773 718 738 q 504 808 597 808 q 351 772 413 808 q 260 660 290 736 q 231 463 231 585 q 260 264 231 340 q 351 152 290 188 q 504 117 413 117 m 475 1182 l 542 1340 l 693 1340 l 557 1182 l 475 1182 z "},"Ṑ":{"ha":1008,"x_min":74,"x_max":936,"o":"m 504 -15 q 270 38 367 -15 q 124 196 174 90 q 74 463 74 301 q 184 821 74 700 q 504 942 294 942 q 739 889 643 942 q 885 730 835 836 q 936 463 936 624 q 826 106 936 226 q 504 -15 715 -15 m 504 117 q 658 152 597 117 q 748 264 718 188 q 778 464 778 340 q 748 662 778 586 q 658 773 718 738 q 504 808 597 808 q 351 772 413 808 q 260 660 290 736 q 231 463 231 585 q 260 264 231 340 q 351 152 290 188 q 504 117 413 117 m 475 1171 l 351 1329 l 489 1329 l 561 1171 l 475 1171 z "},"Ǫ":{"ha":1008,"x_min":74,"x_max":936,"o":"m 504 -15 q 270 38 367 -15 q 124 196 174 90 q 74 463 74 301 q 184 821 74 700 q 504 942 294 942 q 739 889 643 942 q 885 730 835 836 q 936 463 936 624 q 826 106 936 226 q 504 -15 715 -15 m 504 117 q 658 152 597 117 q 748 264 718 188 q 778 464 778 340 q 748 662 778 586 q 658 773 718 738 q 504 808 597 808 q 351 772 413 808 q 260 660 290 736 q 231 463 231 585 q 260 264 231 340 q 351 152 290 188 q 504 117 413 117 z "},"Ø":{"ha":1008,"x_min":60,"x_max":969,"o":"m 60 0 l 854 926 l 969 926 l 175 0 l 60 0 m 504 -15 q 270 38 367 -15 q 124 196 174 90 q 74 463 74 301 q 184 821 74 700 q 504 942 294 942 q 739 889 643 942 q 885 730 835 836 q 936 463 936 624 q 826 106 936 226 q 504 -15 715 -15 m 504 117 q 658 152 597 117 q 748 264 718 188 q 778 464 778 340 q 748 662 778 586 q 658 773 718 738 q 504 808 597 808 q 351 772 413 808 q 260 660 290 736 q 231 463 231 585 q 260 264 231 340 q 351 152 290 188 q 504 117 413 117 z "},"Ǿ":{"ha":1008,"x_min":60,"x_max":969,"o":"m 60 0 l 854 926 l 969 926 l 175 0 l 60 0 m 504 -15 q 270 38 367 -15 q 124 196 174 90 q 74 463 74 301 q 184 821 74 700 q 504 942 294 942 q 739 889 643 942 q 885 730 835 836 q 936 463 936 624 q 826 106 936 226 q 504 -15 715 -15 m 504 117 q 658 152 597 117 q 748 264 718 188 q 778 464 778 340 q 748 662 778 586 q 658 773 718 738 q 504 808 597 808 q 351 772 413 808 q 260 660 290 736 q 231 463 231 585 q 260 264 231 340 q 351 152 290 188 q 504 117 413 117 m 468 1010 l 535 1168 l 686 1168 l 550 1010 l 468 1010 z "},"Õ":{"ha":1008,"x_min":74,"x_max":936,"o":"m 504 -15 q 270 38 367 -15 q 124 196 174 90 q 74 463 74 301 q 184 821 74 700 q 504 942 294 942 q 739 889 643 942 q 885 730 835 836 q 936 463 936 624 q 826 106 936 226 q 504 -15 715 -15 m 504 117 q 658 152 597 117 q 748 264 718 188 q 778 464 778 340 q 748 662 778 586 q 658 773 718 738 q 504 808 597 808 q 351 772 413 808 q 260 660 290 736 q 231 463 231 585 q 260 264 231 340 q 351 152 290 188 q 504 117 413 117 z "},"Ṍ":{"ha":1008,"x_min":74,"x_max":936,"o":"m 504 -15 q 270 38 367 -15 q 124 196 174 90 q 74 463 74 301 q 184 821 74 700 q 504 942 294 942 q 739 889 643 942 q 885 730 835 836 q 936 463 936 624 q 826 106 936 226 q 504 -15 715 -15 m 504 117 q 658 152 597 117 q 748 264 718 188 q 778 464 778 340 q 748 662 778 586 q 658 773 718 738 q 504 808 597 808 q 351 772 413 808 q 260 660 290 736 q 231 463 231 585 q 260 264 231 340 q 351 152 290 188 q 504 117 413 117 m 475 1288 l 542 1446 l 693 1446 l 557 1288 l 475 1288 z "},"Ṏ":{"ha":1008,"x_min":74,"x_max":936,"o":"m 504 -15 q 270 38 367 -15 q 124 196 174 90 q 74 463 74 301 q 184 821 74 700 q 504 942 294 942 q 739 889 643 942 q 885 730 835 836 q 936 463 936 624 q 826 106 936 226 q 504 -15 715 -15 m 504 117 q 658 152 597 117 q 748 264 718 188 q 778 464 778 340 q 748 662 778 586 q 658 773 718 738 q 504 808 597 808 q 351 772 413 808 q 260 660 290 736 q 231 463 231 585 q 260 264 231 340 q 351 152 290 188 q 504 117 413 117 z "},"Ȭ":{"ha":1008,"x_min":74,"x_max":936,"o":"m 504 -15 q 270 38 367 -15 q 124 196 174 90 q 74 463 74 301 q 184 821 74 700 q 504 942 294 942 q 739 889 643 942 q 885 730 835 836 q 936 463 936 624 q 826 106 936 226 q 504 -15 715 -15 m 504 117 q 658 152 597 117 q 748 264 718 188 q 778 464 778 340 q 748 662 778 586 q 658 773 718 738 q 504 808 597 808 q 351 772 413 808 q 260 660 290 736 q 231 463 231 585 q 260 264 231 340 q 351 152 290 188 q 504 117 413 117 z "},"Œ":{"ha":1485,"x_min":74,"x_max":1386,"o":"m 504 -15 q 270 38 367 -15 q 124 196 174 90 q 74 463 74 301 q 184 821 74 700 q 504 942 294 942 q 739 889 643 942 q 885 730 835 836 q 936 463 936 624 q 826 106 936 226 q 504 -15 715 -15 m 504 117 q 658 152 597 117 q 748 264 718 188 q 778 464 778 340 q 748 662 778 586 q 658 773 718 738 q 504 808 597 808 q 351 772 413 808 q 260 660 290 736 q 231 463 231 585 q 260 264 231 340 q 351 152 290 188 q 504 117 413 117 m 781 0 l 781 926 l 1388 926 l 1388 797 l 935 797 l 935 529 l 1329 529 l 1329 399 l 933 399 l 933 129 l 1388 129 l 1388 0 l 781 0 z "},"P":{"ha":882,"x_min":110,"x_max":808,"o":"m 263 332 l 263 0 l 110 0 l 110 926 l 476 926 q 722 853 635 926 q 808 633 808 779 q 722 410 808 488 q 476 332 635 332 l 263 332 m 263 463 l 457 463 q 554 476 517 463 q 613 513 592 489 q 641 567 633 538 q 649 628 649 596 q 641 690 649 660 q 613 745 633 721 q 554 783 592 769 q 457 797 517 797 l 263 797 l 263 463 z "},"Þ":{"ha":826,"x_min":119,"x_max":753,"o":"m 119 0 l 119 926 l 261 926 l 261 788 l 424 788 q 667 710 582 788 q 753 489 753 632 q 667 267 753 344 q 424 190 582 190 l 261 190 l 261 0 l 119 0 m 261 317 l 407 317 q 514 331 474 317 q 576 372 554 346 q 605 428 597 397 q 613 489 613 458 q 605 549 613 518 q 576 605 597 579 q 514 646 554 631 q 407 661 474 661 l 261 661 l 261 317 z "},"Q":{"ha":1008,"x_min":74,"x_max":936,"o":"m 504 -19 q 183 100 292 -19 q 74 463 74 219 q 181 824 74 703 q 504 946 289 946 q 826 826 717 946 q 936 463 936 707 q 828 102 936 224 q 504 -19 721 -19 m 504 100 q 659 139 599 103 q 749 253 719 175 q 778 464 778 332 q 748 667 778 590 q 658 781 718 744 q 504 817 597 817 q 351 781 413 817 q 260 667 290 744 q 231 463 231 589 q 260 252 231 332 q 351 136 290 172 q 504 100 413 100 m 849 -26 q 888 -22 869 -26 q 935 1 906 -17 l 935 -108 q 878 -129 907 -124 q 825 -135 850 -135 q 759 -124 790 -135 q 699 -94 728 -114 q 649 -41 671 -74 q 611 36 626 -8 q 573 123 594 83 q 522 187 551 163 q 449 211 492 211 q 363 189 400 211 q 296 132 325 167 l 296 250 q 365 301 319 276 q 472 326 410 326 q 583 298 533 326 q 669 219 632 269 q 729 100 706 169 q 784 6 756 38 q 849 -26 813 -26 z "},"R":{"ha":924,"x_min":110,"x_max":865,"o":"m 110 0 l 110 926 l 521 926 q 742 856 665 926 q 819 647 819 786 q 790 514 819 575 q 706 414 761 453 q 574 369 650 375 l 590 417 l 865 0 l 675 0 l 418 415 l 489 350 l 263 350 l 263 0 l 110 0 m 263 475 l 478 475 q 615 515 569 475 q 660 638 660 556 q 624 756 660 714 q 503 797 589 797 l 263 797 l 263 475 z "},"Ŕ":{"ha":924,"x_min":110,"x_max":865,"o":"m 110 0 l 110 926 l 521 926 q 742 856 665 926 q 819 647 819 786 q 790 514 819 575 q 706 414 761 453 q 574 369 650 375 l 590 417 l 865 0 l 675 0 l 418 415 l 489 350 l 263 350 l 263 0 l 110 0 m 263 475 l 478 475 q 615 515 569 475 q 660 638 660 556 q 624 756 660 714 q 503 797 589 797 l 263 797 l 263 475 m 393 1010 l 460 1168 l 611 1168 l 475 1010 l 393 1010 z "},"Ř":{"ha":924,"x_min":110,"x_max":865,"o":"m 110 0 l 110 926 l 521 926 q 742 856 665 926 q 819 647 819 786 q 790 514 819 575 q 706 414 761 453 q 574 369 650 375 l 590 417 l 865 0 l 675 0 l 418 415 l 489 350 l 263 350 l 263 0 l 110 0 m 263 475 l 478 475 q 615 515 569 475 q 660 638 660 556 q 624 756 660 714 q 503 797 589 797 l 263 797 l 263 475 z "},"Ŗ":{"ha":924,"x_min":110,"x_max":865,"o":"m 110 0 l 110 926 l 521 926 q 742 856 665 926 q 819 647 819 786 q 790 514 819 575 q 706 414 761 453 q 574 369 650 375 l 590 417 l 865 0 l 675 0 l 418 415 l 489 350 l 263 350 l 263 0 l 110 0 m 263 475 l 478 475 q 615 515 569 475 q 660 638 660 556 q 624 756 660 714 q 503 797 589 797 l 263 797 l 263 475 z "},"Ȑ":{"ha":924,"x_min":110,"x_max":865,"o":"m 110 0 l 110 926 l 521 926 q 742 856 665 926 q 819 647 819 786 q 790 514 819 575 q 706 414 761 453 q 574 369 650 375 l 590 417 l 865 0 l 675 0 l 418 415 l 489 350 l 263 350 l 263 0 l 110 0 m 263 475 l 478 475 q 615 515 569 475 q 660 638 660 556 q 624 756 660 714 q 503 797 589 797 l 263 797 l 263 475 z "},"Ȓ":{"ha":924,"x_min":110,"x_max":865,"o":"m 110 0 l 110 926 l 521 926 q 742 856 665 926 q 819 647 819 786 q 790 514 819 575 q 706 414 761 453 q 574 369 650 375 l 590 417 l 865 0 l 675 0 l 418 415 l 489 350 l 263 350 l 263 0 l 110 0 m 263 475 l 478 475 q 615 515 569 475 q 660 638 660 556 q 624 756 660 714 q 503 797 589 797 l 263 797 l 263 475 z "},"Ṟ":{"ha":924,"x_min":110,"x_max":865,"o":"m 110 0 l 110 926 l 521 926 q 742 856 665 926 q 819 647 819 786 q 790 514 819 575 q 706 414 761 453 q 574 369 650 375 l 590 417 l 865 0 l 675 0 l 418 415 l 489 350 l 263 350 l 263 0 l 110 0 m 263 475 l 478 475 q 615 515 569 475 q 660 638 660 556 q 624 756 660 714 q 503 797 589 797 l 263 797 l 263 475 z "},"S":{"ha":783,"x_min":86,"x_max":711,"o":"m 393 -15 q 271 -8 324 -15 q 175 17 218 0 q 86 57 132 33 l 86 210 q 217 139 140 167 q 383 111 294 111 q 512 147 469 111 q 554 244 554 182 q 523 323 554 293 q 440 374 492 353 q 331 415 389 394 q 243 451 286 432 q 165 498 200 469 q 110 571 131 526 q 89 681 89 615 q 107 774 89 726 q 162 859 125 821 q 259 920 199 897 q 404 943 319 943 q 501 936 460 943 q 578 915 542 929 q 658 879 615 900 l 658 729 q 588 771 624 751 q 511 803 553 790 q 418 817 469 815 q 322 803 360 818 q 265 760 285 788 q 246 696 246 732 q 270 619 246 647 q 339 572 294 590 q 442 535 383 553 q 542 497 493 518 q 628 447 590 476 q 688 372 665 417 q 711 263 711 328 q 678 127 711 190 q 576 24 646 64 q 393 -15 506 -15 z "},"Ś":{"ha":783,"x_min":86,"x_max":711,"o":"m 393 -15 q 271 -8 324 -15 q 175 17 218 0 q 86 57 132 33 l 86 210 q 217 139 140 167 q 383 111 294 111 q 512 147 469 111 q 554 244 554 182 q 523 323 554 293 q 440 374 492 353 q 331 415 389 394 q 243 451 286 432 q 165 498 200 469 q 110 571 131 526 q 89 681 89 615 q 107 774 89 726 q 162 859 125 821 q 259 920 199 897 q 404 943 319 943 q 501 936 460 943 q 578 915 542 929 q 658 879 615 900 l 658 729 q 588 771 624 751 q 511 803 553 790 q 418 817 469 815 q 322 803 360 818 q 265 760 285 788 q 246 696 246 732 q 270 619 246 647 q 339 572 294 590 q 442 535 383 553 q 542 497 493 518 q 628 447 590 476 q 688 372 665 417 q 711 263 711 328 q 678 127 711 190 q 576 24 646 64 q 393 -15 506 -15 m 365 1022 l 432 1181 l 583 1181 l 447 1022 l 365 1022 z "},"Ṥ":{"ha":783,"x_min":86,"x_max":711,"o":"m 393 -15 q 271 -8 324 -15 q 175 17 218 0 q 86 57 132 33 l 86 210 q 217 139 140 167 q 383 111 294 111 q 512 147 469 111 q 554 244 554 182 q 523 323 554 293 q 440 374 492 353 q 331 415 389 394 q 243 451 286 432 q 165 498 200 469 q 110 571 131 526 q 89 681 89 615 q 107 774 89 726 q 162 859 125 821 q 259 920 199 897 q 404 943 319 943 q 501 936 460 943 q 578 915 542 929 q 658 879 615 900 l 658 729 q 588 771 624 751 q 511 803 553 790 q 418 817 469 815 q 322 803 360 818 q 265 760 285 788 q 246 696 246 732 q 270 619 246 647 q 339 572 294 590 q 442 535 383 553 q 542 497 493 518 q 628 447 590 476 q 688 372 665 417 q 711 263 711 328 q 678 127 711 190 q 576 24 646 64 q 393 -15 506 -15 m 413 1022 l 479 1181 l 631 1181 l 494 1022 l 413 1022 z "},"Š":{"ha":783,"x_min":86,"x_max":711,"o":"m 393 -15 q 271 -8 324 -15 q 175 17 218 0 q 86 57 132 33 l 86 210 q 217 139 140 167 q 383 111 294 111 q 512 147 469 111 q 554 244 554 182 q 523 323 554 293 q 440 374 492 353 q 331 415 389 394 q 243 451 286 432 q 165 498 200 469 q 110 571 131 526 q 89 681 89 615 q 107 774 89 726 q 162 859 125 821 q 259 920 199 897 q 404 943 319 943 q 501 936 460 943 q 578 915 542 929 q 658 879 615 900 l 658 729 q 588 771 624 751 q 511 803 553 790 q 418 817 469 815 q 322 803 360 818 q 265 760 285 788 q 246 696 246 732 q 270 619 246 647 q 339 572 294 590 q 442 535 383 553 q 542 497 493 518 q 628 447 590 476 q 688 372 665 417 q 711 263 711 328 q 678 127 711 190 q 576 24 646 64 q 393 -15 506 -15 z "},"Ṧ":{"ha":783,"x_min":86,"x_max":711,"o":"m 393 -15 q 271 -8 324 -15 q 175 17 218 0 q 86 57 132 33 l 86 210 q 217 139 140 167 q 383 111 294 111 q 512 147 469 111 q 554 244 554 182 q 523 323 554 293 q 440 374 492 353 q 331 415 389 394 q 243 451 286 432 q 165 498 200 469 q 110 571 131 526 q 89 681 89 615 q 107 774 89 726 q 162 859 125 821 q 259 920 199 897 q 404 943 319 943 q 501 936 460 943 q 578 915 542 929 q 658 879 615 900 l 658 729 q 588 771 624 751 q 511 803 553 790 q 418 817 469 815 q 322 803 360 818 q 265 760 285 788 q 246 696 246 732 q 270 619 246 647 q 339 572 294 590 q 442 535 383 553 q 542 497 493 518 q 628 447 590 476 q 688 372 665 417 q 711 263 711 328 q 678 127 711 190 q 576 24 646 64 q 393 -15 506 -15 z "},"Ş":{"ha":783,"x_min":86,"x_max":711,"o":"m 393 -15 q 271 -8 324 -15 q 175 17 218 0 q 86 57 132 33 l 86 210 q 217 139 140 167 q 383 111 294 111 q 512 147 469 111 q 554 244 554 182 q 523 323 554 293 q 440 374 492 353 q 331 415 389 394 q 243 451 286 432 q 165 498 200 469 q 110 571 131 526 q 89 681 89 615 q 107 774 89 726 q 162 859 125 821 q 259 920 199 897 q 404 943 319 943 q 501 936 460 943 q 578 915 542 929 q 658 879 615 900 l 658 729 q 588 771 624 751 q 511 803 553 790 q 418 817 469 815 q 322 803 360 818 q 265 760 285 788 q 246 696 246 732 q 270 619 246 647 q 339 572 294 590 q 442 535 383 553 q 542 497 493 518 q 628 447 590 476 q 688 372 665 417 q 711 263 711 328 q 678 127 711 190 q 576 24 646 64 q 393 -15 506 -15 z "},"Ŝ":{"ha":783,"x_min":86,"x_max":711,"o":"m 393 -15 q 271 -8 324 -15 q 175 17 218 0 q 86 57 132 33 l 86 210 q 217 139 140 167 q 383 111 294 111 q 512 147 469 111 q 554 244 554 182 q 523 323 554 293 q 440 374 492 353 q 331 415 389 394 q 243 451 286 432 q 165 498 200 469 q 110 571 131 526 q 89 681 89 615 q 107 774 89 726 q 162 859 125 821 q 259 920 199 897 q 404 943 319 943 q 501 936 460 943 q 578 915 542 929 q 658 879 615 900 l 658 729 q 588 771 624 751 q 511 803 553 790 q 418 817 469 815 q 322 803 360 818 q 265 760 285 788 q 246 696 246 732 q 270 619 246 647 q 339 572 294 590 q 442 535 383 553 q 542 497 493 518 q 628 447 590 476 q 688 372 665 417 q 711 263 711 328 q 678 127 711 190 q 576 24 646 64 q 393 -15 506 -15 z "},"Ș":{"ha":783,"x_min":86,"x_max":711,"o":"m 393 -15 q 271 -8 324 -15 q 175 17 218 0 q 86 57 132 33 l 86 210 q 217 139 140 167 q 383 111 294 111 q 512 147 469 111 q 554 244 554 182 q 523 323 554 293 q 440 374 492 353 q 331 415 389 394 q 243 451 286 432 q 165 498 200 469 q 110 571 131 526 q 89 681 89 615 q 107 774 89 726 q 162 859 125 821 q 259 920 199 897 q 404 943 319 943 q 501 936 460 943 q 578 915 542 929 q 658 879 615 900 l 658 729 q 588 771 624 751 q 511 803 553 790 q 418 817 469 815 q 322 803 360 818 q 265 760 285 788 q 246 696 246 732 q 270 619 246 647 q 339 572 294 590 q 442 535 383 553 q 542 497 493 518 q 628 447 590 476 q 688 372 665 417 q 711 263 711 328 q 678 127 711 190 q 576 24 646 64 q 393 -15 506 -15 z "},"Ṡ":{"ha":783,"x_min":86,"x_max":711,"o":"m 393 -15 q 271 -8 324 -15 q 175 17 218 0 q 86 57 132 33 l 86 210 q 217 139 140 167 q 383 111 294 111 q 512 147 469 111 q 554 244 554 182 q 523 323 554 293 q 440 374 492 353 q 331 415 389 394 q 243 451 286 432 q 165 498 200 469 q 110 571 131 526 q 89 681 89 615 q 107 774 89 726 q 162 859 125 821 q 259 920 199 897 q 404 943 319 943 q 501 936 460 943 q 578 915 542 929 q 658 879 615 900 l 658 729 q 588 771 624 751 q 511 803 553 790 q 418 817 469 815 q 322 803 360 818 q 265 760 285 788 q 246 696 246 732 q 270 619 246 647 q 339 572 294 590 q 442 535 383 553 q 542 497 493 518 q 628 447 590 476 q 688 372 665 417 q 711 263 711 328 q 678 127 711 190 q 576 24 646 64 q 393 -15 506 -15 z "},"Ṣ":{"ha":783,"x_min":86,"x_max":711,"o":"m 393 -15 q 271 -8 324 -15 q 175 17 218 0 q 86 57 132 33 l 86 210 q 217 139 140 167 q 383 111 294 111 q 512 147 469 111 q 554 244 554 182 q 523 323 554 293 q 440 374 492 353 q 331 415 389 394 q 243 451 286 432 q 165 498 200 469 q 110 571 131 526 q 89 681 89 615 q 107 774 89 726 q 162 859 125 821 q 259 920 199 897 q 404 943 319 943 q 501 936 460 943 q 578 915 542 929 q 658 879 615 900 l 658 729 q 588 771 624 751 q 511 803 553 790 q 418 817 469 815 q 322 803 360 818 q 265 760 285 788 q 246 696 246 732 q 270 619 246 647 q 339 572 294 590 q 442 535 383 553 q 542 497 493 518 q 628 447 590 476 q 688 372 665 417 q 711 263 711 328 q 678 127 711 190 q 576 24 646 64 q 393 -15 506 -15 z "},"Ṩ":{"ha":783,"x_min":86,"x_max":711,"o":"m 393 -15 q 271 -8 324 -15 q 175 17 218 0 q 86 57 132 33 l 86 210 q 217 139 140 167 q 383 111 294 111 q 512 147 469 111 q 554 244 554 182 q 523 323 554 293 q 440 374 492 353 q 331 415 389 394 q 243 451 286 432 q 165 498 200 469 q 110 571 131 526 q 89 681 89 615 q 107 774 89 726 q 162 859 125 821 q 259 920 199 897 q 404 943 319 943 q 501 936 460 943 q 578 915 542 929 q 658 879 615 900 l 658 729 q 588 771 624 751 q 511 803 553 790 q 418 817 469 815 q 322 803 360 818 q 265 760 285 788 q 246 696 246 732 q 270 619 246 647 q 339 572 294 590 q 442 535 383 553 q 542 497 493 518 q 628 447 590 476 q 688 372 665 417 q 711 263 711 328 q 678 127 711 190 q 576 24 646 64 q 393 -15 506 -15 z "},"ẞ":{"ha":990,"x_min":110,"x_max":915,"o":"m 110 0 l 110 622 q 151 790 110 718 q 272 901 192 861 q 469 942 353 942 q 656 913 583 942 q 776 834 729 885 q 860 719 824 783 l 860 692 l 590 528 l 599 622 q 763 556 690 597 q 875 448 835 514 q 915 283 915 382 q 897 172 915 226 q 841 74 879 118 q 742 6 803 31 q 601 -19 682 -19 q 493 -1 549 -19 q 390 50 438 18 l 390 200 q 476 134 425 161 q 590 107 526 107 q 717 151 674 107 q 760 275 760 196 q 725 399 760 349 q 630 483 690 450 q 490 533 569 515 l 490 590 l 739 739 l 738 682 q 687 751 719 718 q 603 806 654 785 q 479 828 551 828 q 364 803 413 828 q 289 731 315 778 q 263 618 263 685 l 263 0 l 110 0 z "},"Ə":{"ha":1008,"x_min":72,"x_max":936,"o":"m 483 939 q 723 883 622 939 q 880 719 824 828 q 936 450 936 610 q 883 190 936 294 q 731 33 829 86 q 496 -21 633 -21 q 251 42 344 -21 q 115 219 157 106 q 74 483 72 333 l 847 483 l 853 371 l 183 371 l 225 406 q 258 231 228 297 q 347 133 288 164 q 500 103 407 103 q 651 133 589 103 q 747 240 714 164 q 779 451 779 315 q 696 721 779 633 q 460 808 613 808 q 328 795 393 808 q 212 762 264 782 q 125 722 160 742 l 125 861 q 283 917 193 894 q 483 939 374 939 z "},"T":{"ha":811,"x_min":29,"x_max":782,"o":"m 329 0 l 329 797 l 29 797 l 29 926 l 782 926 l 782 797 l 482 797 l 482 0 l 329 0 z "},"Ŧ":{"ha":811,"x_min":29,"x_max":782,"o":"m 329 0 l 329 797 l 29 797 l 29 926 l 782 926 l 782 797 l 482 797 l 482 0 l 329 0 m 221 415 l 221 513 l 592 513 l 592 415 l 221 415 z "},"Ť":{"ha":794,"x_min":17,"x_max":776,"o":"m 326 0 l 326 793 l 17 793 l 17 926 l 776 926 l 776 793 l 468 793 l 468 0 l 326 0 m 367 1006 l 239 1174 l 335 1174 l 397 1086 l 458 1174 l 556 1174 l 426 1006 l 367 1006 z "},"Ţ":{"ha":811,"x_min":29,"x_max":782,"o":"m 329 0 l 329 797 l 29 797 l 29 926 l 782 926 l 782 797 l 482 797 l 482 0 l 329 0 z "},"Ṯ":{"ha":811,"x_min":29,"x_max":782,"o":"m 329 0 l 329 797 l 29 797 l 29 926 l 782 926 l 782 797 l 482 797 l 482 0 l 329 0 z "},"U":{"ha":981,"x_min":110,"x_max":871,"o":"m 499 -19 q 210 77 310 -19 q 110 364 110 174 l 110 926 l 267 926 l 267 365 q 324 172 267 235 q 494 108 381 108 q 665 172 606 108 q 724 365 724 235 l 724 926 l 871 926 l 871 364 q 826 151 871 238 q 697 23 781 65 q 499 -19 614 -19 z "},"Ú":{"ha":981,"x_min":110,"x_max":871,"o":"m 499 -19 q 210 77 310 -19 q 110 364 110 174 l 110 926 l 267 926 l 267 365 q 324 172 267 235 q 494 108 381 108 q 665 172 606 108 q 724 365 724 235 l 724 926 l 871 926 l 871 364 q 826 151 871 238 q 697 23 781 65 q 499 -19 614 -19 m 454 1014 l 521 1172 l 672 1172 l 536 1014 l 454 1014 z "},"Ŭ":{"ha":981,"x_min":110,"x_max":871,"o":"m 499 -19 q 210 77 310 -19 q 110 364 110 174 l 110 926 l 267 926 l 267 365 q 324 172 267 235 q 494 108 381 108 q 665 172 606 108 q 724 365 724 235 l 724 926 l 871 926 l 871 364 q 826 151 871 238 q 697 23 781 65 q 499 -19 614 -19 z "},"Ǔ":{"ha":981,"x_min":110,"x_max":871,"o":"m 499 -19 q 210 77 310 -19 q 110 364 110 174 l 110 926 l 267 926 l 267 365 q 324 172 267 235 q 494 108 381 108 q 665 172 606 108 q 724 365 724 235 l 724 926 l 871 926 l 871 364 q 826 151 871 238 q 697 23 781 65 q 499 -19 614 -19 z "},"Û":{"ha":981,"x_min":110,"x_max":871,"o":"m 499 -19 q 210 77 310 -19 q 110 364 110 174 l 110 926 l 267 926 l 267 365 q 324 172 267 235 q 494 108 381 108 q 665 172 606 108 q 724 365 724 235 l 724 926 l 871 926 l 871 364 q 826 151 871 238 q 697 23 781 65 q 499 -19 614 -19 z "},"Ȕ":{"ha":981,"x_min":110,"x_max":871,"o":"m 499 -19 q 210 77 310 -19 q 110 364 110 174 l 110 926 l 267 926 l 267 365 q 324 172 267 235 q 494 108 381 108 q 665 172 606 108 q 724 365 724 235 l 724 926 l 871 926 l 871 364 q 826 151 871 238 q 697 23 781 65 q 499 -19 614 -19 z "},"Ü":{"ha":981,"x_min":110,"x_max":871,"o":"m 499 -19 q 210 77 310 -19 q 110 364 110 174 l 110 926 l 267 926 l 267 365 q 324 172 267 235 q 494 108 381 108 q 665 172 606 108 q 724 365 724 235 l 724 926 l 871 926 l 871 364 q 826 151 871 238 q 697 23 781 65 q 499 -19 614 -19 z "},"Ụ":{"ha":981,"x_min":110,"x_max":871,"o":"m 499 -19 q 210 77 310 -19 q 110 364 110 174 l 110 926 l 267 926 l 267 365 q 324 172 267 235 q 494 108 381 108 q 665 172 606 108 q 724 365 724 235 l 724 926 l 871 926 l 871 364 q 826 151 871 238 q 697 23 781 65 q 499 -19 614 -19 z "},"Ù":{"ha":981,"x_min":110,"x_max":871,"o":"m 499 -19 q 210 77 310 -19 q 110 364 110 174 l 110 926 l 267 926 l 267 365 q 324 172 267 235 q 494 108 381 108 q 665 172 606 108 q 724 365 724 235 l 724 926 l 871 926 l 871 364 q 826 151 871 238 q 697 23 781 65 q 499 -19 614 -19 m 454 1003 l 331 1161 l 468 1161 l 540 1003 l 454 1003 z "},"Ủ":{"ha":981,"x_min":110,"x_max":871,"o":"m 499 -19 q 210 77 310 -19 q 110 364 110 174 l 110 926 l 267 926 l 267 365 q 324 172 267 235 q 494 108 381 108 q 665 172 606 108 q 724 365 724 235 l 724 926 l 871 926 l 871 364 q 826 151 871 238 q 697 23 781 65 q 499 -19 614 -19 z "},"Ư":{"ha":1074,"x_min":110,"x_max":1003,"o":"m 499 -19 q 210 77 310 -19 q 110 364 110 174 l 110 926 l 267 926 l 267 365 q 324 172 267 235 q 494 108 381 108 q 665 172 606 108 q 724 365 724 235 l 724 926 l 871 926 l 871 364 q 826 151 871 238 q 697 23 781 65 q 499 -19 614 -19 z "},"Ứ":{"ha":1074,"x_min":110,"x_max":1003,"o":"m 499 -19 q 210 77 310 -19 q 110 364 110 174 l 110 926 l 267 926 l 267 365 q 324 172 267 235 q 494 108 381 108 q 665 172 606 108 q 724 365 724 235 l 724 926 l 871 926 l 871 364 q 826 151 871 238 q 697 23 781 65 q 499 -19 614 -19 m 454 1014 l 521 1172 l 672 1172 l 536 1014 l 454 1014 z "},"Ự":{"ha":1074,"x_min":110,"x_max":1003,"o":"m 499 -19 q 210 77 310 -19 q 110 364 110 174 l 110 926 l 267 926 l 267 365 q 324 172 267 235 q 494 108 381 108 q 665 172 606 108 q 724 365 724 235 l 724 926 l 871 926 l 871 364 q 826 151 871 238 q 697 23 781 65 q 499 -19 614 -19 z "},"Ừ":{"ha":1074,"x_min":110,"x_max":1003,"o":"m 499 -19 q 210 77 310 -19 q 110 364 110 174 l 110 926 l 267 926 l 267 365 q 324 172 267 235 q 494 108 381 108 q 665 172 606 108 q 724 365 724 235 l 724 926 l 871 926 l 871 364 q 826 151 871 238 q 697 23 781 65 q 499 -19 614 -19 m 454 1003 l 331 1161 l 468 1161 l 540 1003 l 454 1003 z "},"Ử":{"ha":1074,"x_min":110,"x_max":1003,"o":"m 499 -19 q 210 77 310 -19 q 110 364 110 174 l 110 926 l 267 926 l 267 365 q 324 172 267 235 q 494 108 381 108 q 665 172 606 108 q 724 365 724 235 l 724 926 l 871 926 l 871 364 q 826 151 871 238 q 697 23 781 65 q 499 -19 614 -19 z "},"Ữ":{"ha":1074,"x_min":110,"x_max":1003,"o":"m 499 -19 q 210 77 310 -19 q 110 364 110 174 l 110 926 l 267 926 l 267 365 q 324 172 267 235 q 494 108 381 108 q 665 172 606 108 q 724 365 724 235 l 724 926 l 871 926 l 871 364 q 826 151 871 238 q 697 23 781 65 q 499 -19 614 -19 z "},"Ű":{"ha":981,"x_min":110,"x_max":871,"o":"m 499 -19 q 210 77 310 -19 q 110 364 110 174 l 110 926 l 267 926 l 267 365 q 324 172 267 235 q 494 108 381 108 q 665 172 606 108 q 724 365 724 235 l 724 926 l 871 926 l 871 364 q 826 151 871 238 q 697 23 781 65 q 499 -19 614 -19 z "},"Ȗ":{"ha":981,"x_min":110,"x_max":871,"o":"m 499 -19 q 210 77 310 -19 q 110 364 110 174 l 110 926 l 267 926 l 267 365 q 324 172 267 235 q 494 108 381 108 q 665 172 606 108 q 724 365 724 235 l 724 926 l 871 926 l 871 364 q 826 151 871 238 q 697 23 781 65 q 499 -19 614 -19 z "},"Ū":{"ha":981,"x_min":110,"x_max":871,"o":"m 499 -19 q 210 77 310 -19 q 110 364 110 174 l 110 926 l 267 926 l 267 365 q 324 172 267 235 q 494 108 381 108 q 665 172 606 108 q 724 365 724 235 l 724 926 l 871 926 l 871 364 q 826 151 871 238 q 697 23 781 65 q 499 -19 614 -19 z "},"Ṻ":{"ha":981,"x_min":110,"x_max":871,"o":"m 499 -19 q 210 77 310 -19 q 110 364 110 174 l 110 926 l 267 926 l 267 365 q 324 172 267 235 q 494 108 381 108 q 665 172 606 108 q 724 365 724 235 l 724 926 l 871 926 l 871 364 q 826 151 871 238 q 697 23 781 65 q 499 -19 614 -19 z "},"Ų":{"ha":981,"x_min":110,"x_max":871,"o":"m 499 -19 q 210 77 310 -19 q 110 364 110 174 l 110 926 l 267 926 l 267 365 q 324 172 267 235 q 494 108 381 108 q 665 172 606 108 q 724 365 724 235 l 724 926 l 871 926 l 871 364 q 826 151 871 238 q 697 23 781 65 q 499 -19 614 -19 z "},"Ů":{"ha":981,"x_min":110,"x_max":871,"o":"m 499 -19 q 210 77 310 -19 q 110 364 110 174 l 110 926 l 267 926 l 267 365 q 324 172 267 235 q 494 108 381 108 q 665 172 606 108 q 724 365 724 235 l 724 926 l 871 926 l 871 364 q 826 151 871 238 q 697 23 781 65 q 499 -19 614 -19 z "},"Ũ":{"ha":981,"x_min":110,"x_max":871,"o":"m 499 -19 q 210 77 310 -19 q 110 364 110 174 l 110 926 l 267 926 l 267 365 q 324 172 267 235 q 494 108 381 108 q 665 172 606 108 q 724 365 724 235 l 724 926 l 871 926 l 871 364 q 826 151 871 238 q 697 23 781 65 q 499 -19 614 -19 z "},"Ṹ":{"ha":981,"x_min":110,"x_max":871,"o":"m 499 -19 q 210 77 310 -19 q 110 364 110 174 l 110 926 l 267 926 l 267 365 q 324 172 267 235 q 494 108 381 108 q 665 172 606 108 q 724 365 724 235 l 724 926 l 871 926 l 871 364 q 826 151 871 238 q 697 23 781 65 q 499 -19 614 -19 m 454 1279 l 521 1438 l 672 1438 l 536 1279 l 454 1279 z "},"V":{"ha":917,"x_min":24,"x_max":893,"o":"m 375 0 l 24 926 l 196 926 l 492 107 l 440 107 l 732 925 l 893 926 l 533 0 l 375 0 z "},"W":{"ha":1375,"x_min":35,"x_max":1340,"o":"m 315 0 l 35 926 l 200 926 l 421 138 l 389 138 l 622 926 l 754 926 l 993 126 l 954 126 l 1175 926 l 1340 926 l 1058 0 l 906 0 l 669 756 l 707 756 l 469 0 l 315 0 z "},"Ẃ":{"ha":1375,"x_min":35,"x_max":1340,"o":"m 315 0 l 35 926 l 200 926 l 421 138 l 389 138 l 622 926 l 754 926 l 993 126 l 954 126 l 1175 926 l 1340 926 l 1058 0 l 906 0 l 669 756 l 707 756 l 469 0 l 315 0 m 651 1010 l 718 1168 l 869 1168 l 733 1010 l 651 1010 z "},"Ŵ":{"ha":1375,"x_min":35,"x_max":1340,"o":"m 315 0 l 35 926 l 200 926 l 421 138 l 389 138 l 622 926 l 754 926 l 993 126 l 954 126 l 1175 926 l 1340 926 l 1058 0 l 906 0 l 669 756 l 707 756 l 469 0 l 315 0 z "},"Ẅ":{"ha":1375,"x_min":35,"x_max":1340,"o":"m 315 0 l 35 926 l 200 926 l 421 138 l 389 138 l 622 926 l 754 926 l 993 126 l 954 126 l 1175 926 l 1340 926 l 1058 0 l 906 0 l 669 756 l 707 756 l 469 0 l 315 0 z "},"Ẁ":{"ha":1375,"x_min":35,"x_max":1340,"o":"m 315 0 l 35 926 l 200 926 l 421 138 l 389 138 l 622 926 l 754 926 l 993 126 l 954 126 l 1175 926 l 1340 926 l 1058 0 l 906 0 l 669 756 l 707 756 l 469 0 l 315 0 m 653 999 l 529 1157 l 667 1157 l 739 999 l 653 999 z "},"X":{"ha":872,"x_min":21,"x_max":851,"o":"m 851 0 l 664 0 l 22 926 l 210 926 l 851 0 m 426 558 l 669 926 l 844 926 l 514 439 l 426 558 m 465 408 l 196 0 l 21 0 l 368 508 l 465 408 z "},"Y":{"ha":886,"x_min":22,"x_max":860,"o":"m 371 0 l 371 415 l 22 926 l 210 926 l 490 489 l 428 494 l 694 926 l 860 926 l 500 378 l 524 464 l 524 0 l 371 0 z "},"Ý":{"ha":886,"x_min":22,"x_max":860,"o":"m 371 0 l 371 415 l 22 926 l 210 926 l 490 489 l 428 494 l 694 926 l 860 926 l 500 378 l 524 464 l 524 0 l 371 0 m 426 1010 l 493 1168 l 644 1168 l 508 1010 l 426 1010 z "},"Ŷ":{"ha":886,"x_min":22,"x_max":860,"o":"m 371 0 l 371 415 l 22 926 l 210 926 l 490 489 l 428 494 l 694 926 l 860 926 l 500 378 l 524 464 l 524 0 l 371 0 z "},"Ÿ":{"ha":886,"x_min":22,"x_max":860,"o":"m 371 0 l 371 415 l 22 926 l 210 926 l 490 489 l 428 494 l 694 926 l 860 926 l 500 378 l 524 464 l 524 0 l 371 0 z "},"Ẏ":{"ha":886,"x_min":22,"x_max":860,"o":"m 371 0 l 371 415 l 22 926 l 210 926 l 490 489 l 428 494 l 694 926 l 860 926 l 500 378 l 524 464 l 524 0 l 371 0 z "},"Ỵ":{"ha":886,"x_min":22,"x_max":860,"o":"m 371 0 l 371 415 l 22 926 l 210 926 l 490 489 l 428 494 l 694 926 l 860 926 l 500 378 l 524 464 l 524 0 l 371 0 z "},"Ỳ":{"ha":886,"x_min":22,"x_max":860,"o":"m 371 0 l 371 415 l 22 926 l 210 926 l 490 489 l 428 494 l 694 926 l 860 926 l 500 378 l 524 464 l 524 0 l 371 0 m 426 999 l 303 1157 l 440 1157 l 513 999 l 426 999 z "},"Ỷ":{"ha":886,"x_min":22,"x_max":860,"o":"m 371 0 l 371 415 l 22 926 l 210 926 l 490 489 l 428 494 l 694 926 l 860 926 l 500 378 l 524 464 l 524 0 l 371 0 z "},"Ȳ":{"ha":886,"x_min":22,"x_max":860,"o":"m 371 0 l 371 415 l 22 926 l 210 926 l 490 489 l 428 494 l 694 926 l 860 926 l 500 378 l 524 464 l 524 0 l 371 0 z "},"Ỹ":{"ha":886,"x_min":22,"x_max":860,"o":"m 371 0 l 371 415 l 22 926 l 210 926 l 490 489 l 428 494 l 694 926 l 860 926 l 500 378 l 524 464 l 524 0 l 371 0 z "},"Z":{"ha":860,"x_min":83,"x_max":771,"o":"m 83 0 l 83 121 l 622 842 l 657 797 l 94 797 l 94 926 l 771 926 l 771 810 l 250 96 l 213 129 l 771 129 l 771 0 l 83 0 z "},"Ź":{"ha":860,"x_min":83,"x_max":771,"o":"m 83 0 l 83 121 l 622 842 l 657 797 l 94 797 l 94 926 l 771 926 l 771 810 l 250 96 l 213 129 l 771 129 l 771 0 l 83 0 m 399 1010 l 465 1168 l 617 1168 l 481 1010 l 399 1010 z "},"Ž":{"ha":860,"x_min":83,"x_max":771,"o":"m 83 0 l 83 121 l 622 842 l 657 797 l 94 797 l 94 926 l 771 926 l 771 810 l 250 96 l 213 129 l 771 129 l 771 0 l 83 0 z "},"Ż":{"ha":860,"x_min":83,"x_max":771,"o":"m 83 0 l 83 121 l 622 842 l 657 797 l 94 797 l 94 926 l 771 926 l 771 810 l 250 96 l 213 129 l 771 129 l 771 0 l 83 0 z "},"a":{"ha":779,"x_min":71,"x_max":676,"o":"m 356 -21 q 251 -10 301 -21 q 160 25 201 0 q 95 94 119 50 q 71 203 71 138 q 101 331 71 281 q 189 406 132 381 q 325 431 246 431 q 420 422 378 431 q 497 399 463 414 q 554 367 531 385 l 569 271 q 488 306 539 292 q 376 321 436 321 q 256 293 297 321 q 215 210 215 265 q 239 142 215 168 q 298 105 263 117 q 372 93 333 93 q 493 104 454 93 q 532 156 532 115 l 532 447 q 488 555 532 521 q 361 589 443 589 q 240 570 303 589 q 138 518 178 551 l 138 654 q 251 697 176 681 q 404 713 325 713 q 483 705 443 713 q 557 681 522 697 q 619 638 592 665 q 661 572 646 611 q 676 481 676 533 l 676 147 q 634 42 676 79 q 519 -8 592 6 q 356 -21 447 -21 z "},"á":{"ha":779,"x_min":71,"x_max":676,"o":"m 356 -21 q 251 -10 301 -21 q 160 25 201 0 q 95 94 119 50 q 71 203 71 138 q 101 331 71 281 q 189 406 132 381 q 325 431 246 431 q 420 422 378 431 q 497 399 463 414 q 554 367 531 385 l 569 271 q 488 306 539 292 q 376 321 436 321 q 256 293 297 321 q 215 210 215 265 q 239 142 215 168 q 298 105 263 117 q 372 93 333 93 q 493 104 454 93 q 532 156 532 115 l 532 447 q 488 555 532 521 q 361 589 443 589 q 240 570 303 589 q 138 518 178 551 l 138 654 q 251 697 176 681 q 404 713 325 713 q 483 705 443 713 q 557 681 522 697 q 619 638 592 665 q 661 572 646 611 q 676 481 676 533 l 676 147 q 634 42 676 79 q 519 -8 592 6 q 356 -21 447 -21 z "},"ă":{"ha":779,"x_min":71,"x_max":676,"o":"m 356 -21 q 251 -10 301 -21 q 160 25 201 0 q 95 94 119 50 q 71 203 71 138 q 101 331 71 281 q 189 406 132 381 q 325 431 246 431 q 420 422 378 431 q 497 399 463 414 q 554 367 531 385 l 569 271 q 488 306 539 292 q 376 321 436 321 q 256 293 297 321 q 215 210 215 265 q 239 142 215 168 q 298 105 263 117 q 372 93 333 93 q 493 104 454 93 q 532 156 532 115 l 532 447 q 488 555 532 521 q 361 589 443 589 q 240 570 303 589 q 138 518 178 551 l 138 654 q 251 697 176 681 q 404 713 325 713 q 483 705 443 713 q 557 681 522 697 q 619 638 592 665 q 661 572 646 611 q 676 481 676 533 l 676 147 q 634 42 676 79 q 519 -8 592 6 q 356 -21 447 -21 z "},"ắ":{"ha":779,"x_min":71,"x_max":676,"o":"m 356 -21 q 251 -10 301 -21 q 160 25 201 0 q 95 94 119 50 q 71 203 71 138 q 101 331 71 281 q 189 406 132 381 q 325 431 246 431 q 420 422 378 431 q 497 399 463 414 q 554 367 531 385 l 569 271 q 488 306 539 292 q 376 321 436 321 q 256 293 297 321 q 215 210 215 265 q 239 142 215 168 q 298 105 263 117 q 372 93 333 93 q 493 104 454 93 q 532 156 532 115 l 532 447 q 488 555 532 521 q 361 589 443 589 q 240 570 303 589 q 138 518 178 551 l 138 654 q 251 697 176 681 q 404 713 325 713 q 483 705 443 713 q 557 681 522 697 q 619 638 592 665 q 661 572 646 611 q 676 481 676 533 l 676 147 q 634 42 676 79 q 519 -8 592 6 q 356 -21 447 -21 z "},"ặ":{"ha":749,"x_min":71,"x_max":676,"o":"m 326 -192 l 326 -69 l 453 -69 l 453 -192 l 326 -192 m 382 749 q 265 787 306 749 q 225 894 225 825 l 308 894 q 326 842 310 858 q 382 825 343 825 q 436 842 419 825 q 454 894 453 858 l 538 894 q 498 787 538 825 q 382 749 458 749 m 356 -21 q 251 -10 301 -21 q 160 25 201 0 q 95 94 119 50 q 71 203 71 138 q 101 331 71 281 q 189 406 132 381 q 325 431 246 431 q 420 422 378 431 q 497 399 463 414 q 554 367 531 385 l 569 271 q 488 306 539 292 q 376 321 436 321 q 256 293 297 321 q 215 210 215 265 q 239 142 215 168 q 298 105 263 117 q 372 93 333 93 q 493 104 454 93 q 532 156 532 115 l 532 447 q 488 555 532 521 q 361 589 443 589 q 240 570 303 589 q 138 518 178 551 l 138 654 q 251 697 176 681 q 404 713 325 713 q 483 705 443 713 q 557 681 522 697 q 619 638 592 665 q 661 572 646 611 q 676 481 676 533 l 676 147 q 634 42 676 79 q 519 -8 592 6 q 356 -21 447 -21 z "},"ằ":{"ha":779,"x_min":71,"x_max":676,"o":"m 356 -21 q 251 -10 301 -21 q 160 25 201 0 q 95 94 119 50 q 71 203 71 138 q 101 331 71 281 q 189 406 132 381 q 325 431 246 431 q 420 422 378 431 q 497 399 463 414 q 554 367 531 385 l 569 271 q 488 306 539 292 q 376 321 436 321 q 256 293 297 321 q 215 210 215 265 q 239 142 215 168 q 298 105 263 117 q 372 93 333 93 q 493 104 454 93 q 532 156 532 115 l 532 447 q 488 555 532 521 q 361 589 443 589 q 240 570 303 589 q 138 518 178 551 l 138 654 q 251 697 176 681 q 404 713 325 713 q 483 705 443 713 q 557 681 522 697 q 619 638 592 665 q 661 572 646 611 q 676 481 676 533 l 676 147 q 634 42 676 79 q 519 -8 592 6 q 356 -21 447 -21 z "},"ẳ":{"ha":779,"x_min":71,"x_max":676,"o":"m 356 -21 q 251 -10 301 -21 q 160 25 201 0 q 95 94 119 50 q 71 203 71 138 q 101 331 71 281 q 189 406 132 381 q 325 431 246 431 q 420 422 378 431 q 497 399 463 414 q 554 367 531 385 l 569 271 q 488 306 539 292 q 376 321 436 321 q 256 293 297 321 q 215 210 215 265 q 239 142 215 168 q 298 105 263 117 q 372 93 333 93 q 493 104 454 93 q 532 156 532 115 l 532 447 q 488 555 532 521 q 361 589 443 589 q 240 570 303 589 q 138 518 178 551 l 138 654 q 251 697 176 681 q 404 713 325 713 q 483 705 443 713 q 557 681 522 697 q 619 638 592 665 q 661 572 646 611 q 676 481 676 533 l 676 147 q 634 42 676 79 q 519 -8 592 6 q 356 -21 447 -21 z "},"ẵ":{"ha":779,"x_min":71,"x_max":676,"o":"m 356 -21 q 251 -10 301 -21 q 160 25 201 0 q 95 94 119 50 q 71 203 71 138 q 101 331 71 281 q 189 406 132 381 q 325 431 246 431 q 420 422 378 431 q 497 399 463 414 q 554 367 531 385 l 569 271 q 488 306 539 292 q 376 321 436 321 q 256 293 297 321 q 215 210 215 265 q 239 142 215 168 q 298 105 263 117 q 372 93 333 93 q 493 104 454 93 q 532 156 532 115 l 532 447 q 488 555 532 521 q 361 589 443 589 q 240 570 303 589 q 138 518 178 551 l 138 654 q 251 697 176 681 q 404 713 325 713 q 483 705 443 713 q 557 681 522 697 q 619 638 592 665 q 661 572 646 611 q 676 481 676 533 l 676 147 q 634 42 676 79 q 519 -8 592 6 q 356 -21 447 -21 z "},"ǎ":{"ha":779,"x_min":71,"x_max":676,"o":"m 356 -21 q 251 -10 301 -21 q 160 25 201 0 q 95 94 119 50 q 71 203 71 138 q 101 331 71 281 q 189 406 132 381 q 325 431 246 431 q 420 422 378 431 q 497 399 463 414 q 554 367 531 385 l 569 271 q 488 306 539 292 q 376 321 436 321 q 256 293 297 321 q 215 210 215 265 q 239 142 215 168 q 298 105 263 117 q 372 93 333 93 q 493 104 454 93 q 532 156 532 115 l 532 447 q 488 555 532 521 q 361 589 443 589 q 240 570 303 589 q 138 518 178 551 l 138 654 q 251 697 176 681 q 404 713 325 713 q 483 705 443 713 q 557 681 522 697 q 619 638 592 665 q 661 572 646 611 q 676 481 676 533 l 676 147 q 634 42 676 79 q 519 -8 592 6 q 356 -21 447 -21 z "},"â":{"ha":779,"x_min":71,"x_max":676,"o":"m 356 -21 q 251 -10 301 -21 q 160 25 201 0 q 95 94 119 50 q 71 203 71 138 q 101 331 71 281 q 189 406 132 381 q 325 431 246 431 q 420 422 378 431 q 497 399 463 414 q 554 367 531 385 l 569 271 q 488 306 539 292 q 376 321 436 321 q 256 293 297 321 q 215 210 215 265 q 239 142 215 168 q 298 105 263 117 q 372 93 333 93 q 493 104 454 93 q 532 156 532 115 l 532 447 q 488 555 532 521 q 361 589 443 589 q 240 570 303 589 q 138 518 178 551 l 138 654 q 251 697 176 681 q 404 713 325 713 q 483 705 443 713 q 557 681 522 697 q 619 638 592 665 q 661 572 646 611 q 676 481 676 533 l 676 147 q 634 42 676 79 q 519 -8 592 6 q 356 -21 447 -21 z "},"ấ":{"ha":779,"x_min":71,"x_max":758,"o":"m 356 -21 q 251 -10 301 -21 q 160 25 201 0 q 95 94 119 50 q 71 203 71 138 q 101 331 71 281 q 189 406 132 381 q 325 431 246 431 q 420 422 378 431 q 497 399 463 414 q 554 367 531 385 l 569 271 q 488 306 539 292 q 376 321 436 321 q 256 293 297 321 q 215 210 215 265 q 239 142 215 168 q 298 105 263 117 q 372 93 333 93 q 493 104 454 93 q 532 156 532 115 l 532 447 q 488 555 532 521 q 361 589 443 589 q 240 570 303 589 q 138 518 178 551 l 138 654 q 251 697 176 681 q 404 713 325 713 q 483 705 443 713 q 557 681 522 697 q 619 638 592 665 q 661 572 646 611 q 676 481 676 533 l 676 147 q 634 42 676 79 q 519 -8 592 6 q 356 -21 447 -21 z "},"ậ":{"ha":749,"x_min":71,"x_max":676,"o":"m 328 -192 l 328 -69 l 454 -69 l 454 -192 l 328 -192 m 356 -21 q 251 -10 301 -21 q 160 25 201 0 q 95 94 119 50 q 71 203 71 138 q 101 331 71 281 q 189 406 132 381 q 325 431 246 431 q 420 422 378 431 q 497 399 463 414 q 554 367 531 385 l 569 271 q 488 306 539 292 q 376 321 436 321 q 256 293 297 321 q 215 210 215 265 q 239 142 215 168 q 298 105 263 117 q 372 93 333 93 q 493 104 454 93 q 532 156 532 115 l 532 447 q 488 555 532 521 q 361 589 443 589 q 240 570 303 589 q 138 518 178 551 l 138 654 q 251 697 176 681 q 404 713 325 713 q 483 705 443 713 q 557 681 522 697 q 619 638 592 665 q 661 572 646 611 q 676 481 676 533 l 676 147 q 634 42 676 79 q 519 -8 592 6 q 356 -21 447 -21 z "},"ầ":{"ha":779,"x_min":28,"x_max":676,"o":"m 356 -21 q 251 -10 301 -21 q 160 25 201 0 q 95 94 119 50 q 71 203 71 138 q 101 331 71 281 q 189 406 132 381 q 325 431 246 431 q 420 422 378 431 q 497 399 463 414 q 554 367 531 385 l 569 271 q 488 306 539 292 q 376 321 436 321 q 256 293 297 321 q 215 210 215 265 q 239 142 215 168 q 298 105 263 117 q 372 93 333 93 q 493 104 454 93 q 532 156 532 115 l 532 447 q 488 555 532 521 q 361 589 443 589 q 240 570 303 589 q 138 518 178 551 l 138 654 q 251 697 176 681 q 404 713 325 713 q 483 705 443 713 q 557 681 522 697 q 619 638 592 665 q 661 572 646 611 q 676 481 676 533 l 676 147 q 634 42 676 79 q 519 -8 592 6 q 356 -21 447 -21 z "},"ẩ":{"ha":779,"x_min":71,"x_max":707,"o":"m 356 -21 q 251 -10 301 -21 q 160 25 201 0 q 95 94 119 50 q 71 203 71 138 q 101 331 71 281 q 189 406 132 381 q 325 431 246 431 q 420 422 378 431 q 497 399 463 414 q 554 367 531 385 l 569 271 q 488 306 539 292 q 376 321 436 321 q 256 293 297 321 q 215 210 215 265 q 239 142 215 168 q 298 105 263 117 q 372 93 333 93 q 493 104 454 93 q 532 156 532 115 l 532 447 q 488 555 532 521 q 361 589 443 589 q 240 570 303 589 q 138 518 178 551 l 138 654 q 251 697 176 681 q 404 713 325 713 q 483 705 443 713 q 557 681 522 697 q 619 638 592 665 q 661 572 646 611 q 676 481 676 533 l 676 147 q 634 42 676 79 q 519 -8 592 6 q 356 -21 447 -21 z "},"ẫ":{"ha":779,"x_min":71,"x_max":676,"o":"m 356 -21 q 251 -10 301 -21 q 160 25 201 0 q 95 94 119 50 q 71 203 71 138 q 101 331 71 281 q 189 406 132 381 q 325 431 246 431 q 420 422 378 431 q 497 399 463 414 q 554 367 531 385 l 569 271 q 488 306 539 292 q 376 321 436 321 q 256 293 297 321 q 215 210 215 265 q 239 142 215 168 q 298 105 263 117 q 372 93 333 93 q 493 104 454 93 q 532 156 532 115 l 532 447 q 488 555 532 521 q 361 589 443 589 q 240 570 303 589 q 138 518 178 551 l 138 654 q 251 697 176 681 q 404 713 325 713 q 483 705 443 713 q 557 681 522 697 q 619 638 592 665 q 661 572 646 611 q 676 481 676 533 l 676 147 q 634 42 676 79 q 519 -8 592 6 q 356 -21 447 -21 z "},"ȁ":{"ha":779,"x_min":71,"x_max":676,"o":"m 356 -21 q 251 -10 301 -21 q 160 25 201 0 q 95 94 119 50 q 71 203 71 138 q 101 331 71 281 q 189 406 132 381 q 325 431 246 431 q 420 422 378 431 q 497 399 463 414 q 554 367 531 385 l 569 271 q 488 306 539 292 q 376 321 436 321 q 256 293 297 321 q 215 210 215 265 q 239 142 215 168 q 298 105 263 117 q 372 93 333 93 q 493 104 454 93 q 532 156 532 115 l 532 447 q 488 555 532 521 q 361 589 443 589 q 240 570 303 589 q 138 518 178 551 l 138 654 q 251 697 176 681 q 404 713 325 713 q 483 705 443 713 q 557 681 522 697 q 619 638 592 665 q 661 572 646 611 q 676 481 676 533 l 676 147 q 634 42 676 79 q 519 -8 592 6 q 356 -21 447 -21 z "},"ä":{"ha":779,"x_min":71,"x_max":676,"o":"m 356 -21 q 251 -10 301 -21 q 160 25 201 0 q 95 94 119 50 q 71 203 71 138 q 101 331 71 281 q 189 406 132 381 q 325 431 246 431 q 420 422 378 431 q 497 399 463 414 q 554 367 531 385 l 569 271 q 488 306 539 292 q 376 321 436 321 q 256 293 297 321 q 215 210 215 265 q 239 142 215 168 q 298 105 263 117 q 372 93 333 93 q 493 104 454 93 q 532 156 532 115 l 532 447 q 488 555 532 521 q 361 589 443 589 q 240 570 303 589 q 138 518 178 551 l 138 654 q 251 697 176 681 q 404 713 325 713 q 483 705 443 713 q 557 681 522 697 q 619 638 592 665 q 661 572 646 611 q 676 481 676 533 l 676 147 q 634 42 676 79 q 519 -8 592 6 q 356 -21 447 -21 z "},"ạ":{"ha":749,"x_min":71,"x_max":676,"o":"m 328 -192 l 328 -69 l 454 -69 l 454 -192 l 328 -192 m 356 -21 q 251 -10 301 -21 q 160 25 201 0 q 95 94 119 50 q 71 203 71 138 q 101 331 71 281 q 189 406 132 381 q 325 431 246 431 q 420 422 378 431 q 497 399 463 414 q 554 367 531 385 l 569 271 q 488 306 539 292 q 376 321 436 321 q 256 293 297 321 q 215 210 215 265 q 239 142 215 168 q 298 105 263 117 q 372 93 333 93 q 493 104 454 93 q 532 156 532 115 l 532 447 q 488 555 532 521 q 361 589 443 589 q 240 570 303 589 q 138 518 178 551 l 138 654 q 251 697 176 681 q 404 713 325 713 q 483 705 443 713 q 557 681 522 697 q 619 638 592 665 q 661 572 646 611 q 676 481 676 533 l 676 147 q 634 42 676 79 q 519 -8 592 6 q 356 -21 447 -21 z "},"à":{"ha":779,"x_min":71,"x_max":676,"o":"m 356 -21 q 251 -10 301 -21 q 160 25 201 0 q 95 94 119 50 q 71 203 71 138 q 101 331 71 281 q 189 406 132 381 q 325 431 246 431 q 420 422 378 431 q 497 399 463 414 q 554 367 531 385 l 569 271 q 488 306 539 292 q 376 321 436 321 q 256 293 297 321 q 215 210 215 265 q 239 142 215 168 q 298 105 263 117 q 372 93 333 93 q 493 104 454 93 q 532 156 532 115 l 532 447 q 488 555 532 521 q 361 589 443 589 q 240 570 303 589 q 138 518 178 551 l 138 654 q 251 697 176 681 q 404 713 325 713 q 483 705 443 713 q 557 681 522 697 q 619 638 592 665 q 661 572 646 611 q 676 481 676 533 l 676 147 q 634 42 676 79 q 519 -8 592 6 q 356 -21 447 -21 z "},"ả":{"ha":779,"x_min":71,"x_max":676,"o":"m 356 -21 q 251 -10 301 -21 q 160 25 201 0 q 95 94 119 50 q 71 203 71 138 q 101 331 71 281 q 189 406 132 381 q 325 431 246 431 q 420 422 378 431 q 497 399 463 414 q 554 367 531 385 l 569 271 q 488 306 539 292 q 376 321 436 321 q 256 293 297 321 q 215 210 215 265 q 239 142 215 168 q 298 105 263 117 q 372 93 333 93 q 493 104 454 93 q 532 156 532 115 l 532 447 q 488 555 532 521 q 361 589 443 589 q 240 570 303 589 q 138 518 178 551 l 138 654 q 251 697 176 681 q 404 713 325 713 q 483 705 443 713 q 557 681 522 697 q 619 638 592 665 q 661 572 646 611 q 676 481 676 533 l 676 147 q 634 42 676 79 q 519 -8 592 6 q 356 -21 447 -21 m 361 782 l 361 857 q 400 868 388 857 q 413 890 413 879 q 396 917 413 908 q 349 925 379 925 q 330 924 340 925 q 310 921 319 924 l 310 990 q 335 994 321 993 q 369 994 350 994 q 436 985 404 994 q 489 955 468 976 q 510 894 510 933 q 490 842 510 864 q 433 814 471 819 l 433 782 l 361 782 z "},"ȃ":{"ha":779,"x_min":71,"x_max":676,"o":"m 356 -21 q 251 -10 301 -21 q 160 25 201 0 q 95 94 119 50 q 71 203 71 138 q 101 331 71 281 q 189 406 132 381 q 325 431 246 431 q 420 422 378 431 q 497 399 463 414 q 554 367 531 385 l 569 271 q 488 306 539 292 q 376 321 436 321 q 256 293 297 321 q 215 210 215 265 q 239 142 215 168 q 298 105 263 117 q 372 93 333 93 q 493 104 454 93 q 532 156 532 115 l 532 447 q 488 555 532 521 q 361 589 443 589 q 240 570 303 589 q 138 518 178 551 l 138 654 q 251 697 176 681 q 404 713 325 713 q 483 705 443 713 q 557 681 522 697 q 619 638 592 665 q 661 572 646 611 q 676 481 676 533 l 676 147 q 634 42 676 79 q 519 -8 592 6 q 356 -21 447 -21 z "},"ā":{"ha":779,"x_min":71,"x_max":676,"o":"m 356 -21 q 251 -10 301 -21 q 160 25 201 0 q 95 94 119 50 q 71 203 71 138 q 101 331 71 281 q 189 406 132 381 q 325 431 246 431 q 420 422 378 431 q 497 399 463 414 q 554 367 531 385 l 569 271 q 488 306 539 292 q 376 321 436 321 q 256 293 297 321 q 215 210 215 265 q 239 142 215 168 q 298 105 263 117 q 372 93 333 93 q 493 104 454 93 q 532 156 532 115 l 532 447 q 488 555 532 521 q 361 589 443 589 q 240 570 303 589 q 138 518 178 551 l 138 654 q 251 697 176 681 q 404 713 325 713 q 483 705 443 713 q 557 681 522 697 q 619 638 592 665 q 661 572 646 611 q 676 481 676 533 l 676 147 q 634 42 676 79 q 519 -8 592 6 q 356 -21 447 -21 z "},"ą":{"ha":779,"x_min":71,"x_max":676,"o":"m 356 -21 q 251 -10 301 -21 q 160 25 201 0 q 95 94 119 50 q 71 203 71 138 q 101 331 71 281 q 189 406 132 381 q 325 431 246 431 q 420 422 378 431 q 497 399 463 414 q 554 367 531 385 l 569 271 q 488 306 539 292 q 376 321 436 321 q 256 293 297 321 q 215 210 215 265 q 239 142 215 168 q 298 105 263 117 q 372 93 333 93 q 493 104 454 93 q 532 156 532 115 l 532 447 q 488 555 532 521 q 361 589 443 589 q 240 570 303 589 q 138 518 178 551 l 138 654 q 251 697 176 681 q 404 713 325 713 q 483 705 443 713 q 557 681 522 697 q 619 638 592 665 q 661 572 646 611 q 676 481 676 533 l 676 147 q 634 42 676 79 q 519 -8 592 6 q 356 -21 447 -21 z "},"å":{"ha":779,"x_min":71,"x_max":676,"o":"m 356 -21 q 251 -10 301 -21 q 160 25 201 0 q 95 94 119 50 q 71 203 71 138 q 101 331 71 281 q 189 406 132 381 q 325 431 246 431 q 420 422 378 431 q 497 399 463 414 q 554 367 531 385 l 569 271 q 488 306 539 292 q 376 321 436 321 q 256 293 297 321 q 215 210 215 265 q 239 142 215 168 q 298 105 263 117 q 372 93 333 93 q 493 104 454 93 q 532 156 532 115 l 532 447 q 488 555 532 521 q 361 589 443 589 q 240 570 303 589 q 138 518 178 551 l 138 654 q 251 697 176 681 q 404 713 325 713 q 483 705 443 713 q 557 681 522 697 q 619 638 592 665 q 661 572 646 611 q 676 481 676 533 l 676 147 q 634 42 676 79 q 519 -8 592 6 q 356 -21 447 -21 z "},"ǻ":{"ha":779,"x_min":71,"x_max":676,"o":"m 356 -21 q 251 -10 301 -21 q 160 25 201 0 q 95 94 119 50 q 71 203 71 138 q 101 331 71 281 q 189 406 132 381 q 325 431 246 431 q 420 422 378 431 q 497 399 463 414 q 554 367 531 385 l 569 271 q 488 306 539 292 q 376 321 436 321 q 256 293 297 321 q 215 210 215 265 q 239 142 215 168 q 298 105 263 117 q 372 93 333 93 q 493 104 454 93 q 532 156 532 115 l 532 447 q 488 555 532 521 q 361 589 443 589 q 240 570 303 589 q 138 518 178 551 l 138 654 q 251 697 176 681 q 404 713 325 713 q 483 705 443 713 q 557 681 522 697 q 619 638 592 665 q 661 572 646 611 q 676 481 676 533 l 676 147 q 634 42 676 79 q 519 -8 592 6 q 356 -21 447 -21 z "},"ã":{"ha":779,"x_min":71,"x_max":676,"o":"m 356 -21 q 251 -10 301 -21 q 160 25 201 0 q 95 94 119 50 q 71 203 71 138 q 101 331 71 281 q 189 406 132 381 q 325 431 246 431 q 420 422 378 431 q 497 399 463 414 q 554 367 531 385 l 569 271 q 488 306 539 292 q 376 321 436 321 q 256 293 297 321 q 215 210 215 265 q 239 142 215 168 q 298 105 263 117 q 372 93 333 93 q 493 104 454 93 q 532 156 532 115 l 532 447 q 488 555 532 521 q 361 589 443 589 q 240 570 303 589 q 138 518 178 551 l 138 654 q 251 697 176 681 q 404 713 325 713 q 483 705 443 713 q 557 681 522 697 q 619 638 592 665 q 661 572 646 611 q 676 481 676 533 l 676 147 q 634 42 676 79 q 519 -8 592 6 q 356 -21 447 -21 z "},"æ":{"ha":1235,"x_min":71,"x_max":1169,"o":"m 632 76 q 521 8 588 42 q 360 -25 454 -25 q 211 -3 276 -25 q 108 68 146 19 q 71 199 71 117 q 106 331 71 279 q 205 406 142 382 q 350 431 268 431 q 428 423 390 431 q 498 403 465 415 q 554 372 531 390 l 569 271 q 488 306 539 292 q 376 321 436 321 q 254 290 293 321 q 215 201 215 260 q 238 138 215 163 q 297 101 261 113 q 375 89 333 89 q 452 97 414 89 q 524 120 490 104 q 578 158 558 136 l 632 76 m 532 313 l 532 446 q 488 553 532 519 q 361 588 443 588 q 240 569 303 588 q 138 518 178 550 l 138 654 q 251 697 176 681 q 404 713 325 713 q 483 705 443 713 q 557 681 522 697 q 619 638 592 665 q 661 572 646 611 q 676 481 676 533 l 676 317 q 731 156 676 210 q 892 101 785 101 q 1018 119 960 101 q 1115 161 1076 138 l 1115 26 q 1004 -12 1065 1 q 867 -25 943 -25 q 690 15 765 -25 q 573 130 614 54 q 532 313 532 206 m 532 344 q 617 619 532 525 q 856 713 703 713 q 1038 663 969 713 q 1138 524 1107 613 q 1168 315 1169 435 l 621 315 l 615 424 l 1057 424 l 1022 389 q 978 544 1019 494 q 851 593 938 593 q 757 570 796 593 q 697 493 718 547 q 676 343 676 439 l 532 344 z "},"ǽ":{"ha":1235,"x_min":71,"x_max":1169,"o":"m 632 76 q 521 8 588 42 q 360 -25 454 -25 q 211 -3 276 -25 q 108 68 146 19 q 71 199 71 117 q 106 331 71 279 q 205 406 142 382 q 350 431 268 431 q 428 423 390 431 q 498 403 465 415 q 554 372 531 390 l 569 271 q 488 306 539 292 q 376 321 436 321 q 254 290 293 321 q 215 201 215 260 q 238 138 215 163 q 297 101 261 113 q 375 89 333 89 q 452 97 414 89 q 524 120 490 104 q 578 158 558 136 l 632 76 m 532 313 l 532 446 q 488 553 532 519 q 361 588 443 588 q 240 569 303 588 q 138 518 178 550 l 138 654 q 251 697 176 681 q 404 713 325 713 q 483 705 443 713 q 557 681 522 697 q 619 638 592 665 q 661 572 646 611 q 676 481 676 533 l 676 317 q 731 156 676 210 q 892 101 785 101 q 1018 119 960 101 q 1115 161 1076 138 l 1115 26 q 1004 -12 1065 1 q 867 -25 943 -25 q 690 15 765 -25 q 573 130 614 54 q 532 313 532 206 m 532 344 q 617 619 532 525 q 856 713 703 713 q 1038 663 969 713 q 1138 524 1107 613 q 1168 315 1169 435 l 621 315 l 615 424 l 1057 424 l 1022 389 q 978 544 1019 494 q 851 593 938 593 q 757 570 796 593 q 697 493 718 547 q 676 343 676 439 l 532 344 z "},"b":{"ha":810,"x_min":103,"x_max":743,"o":"m 397 -21 q 288 -14 340 -21 q 193 10 235 -7 q 127 58 151 28 q 103 138 103 89 l 103 976 l 247 976 l 247 600 l 210 647 q 276 682 236 668 q 356 704 315 696 q 426 713 397 713 q 664 619 585 713 q 743 356 743 525 q 713 168 743 242 q 634 53 683 94 q 523 -4 585 13 q 397 -21 461 -21 m 390 106 q 517 139 472 106 q 578 227 561 172 q 594 350 594 282 q 574 481 594 428 q 511 561 553 533 q 404 589 469 589 q 326 579 368 589 q 247 549 283 569 l 247 174 q 269 131 247 146 q 324 110 292 115 q 390 106 357 106 z "},"c":{"ha":689,"x_min":67,"x_max":624,"o":"m 410 -14 q 285 4 346 -14 q 174 63 224 22 q 96 173 125 104 q 67 344 67 242 q 94 521 67 450 q 171 634 122 592 q 281 694 219 676 q 408 713 343 713 q 519 702 464 713 q 622 671 575 692 l 622 540 q 528 573 575 561 q 429 585 481 585 q 266 531 321 585 q 211 356 211 476 q 263 173 211 231 q 433 115 315 115 q 533 128 485 115 q 624 161 582 142 l 624 31 q 522 -3 575 8 q 410 -14 469 -14 z "},"ć":{"ha":689,"x_min":67,"x_max":624,"o":"m 410 -14 q 285 4 346 -14 q 174 63 224 22 q 96 173 125 104 q 67 344 67 242 q 94 521 67 450 q 171 634 122 592 q 281 694 219 676 q 408 713 343 713 q 519 702 464 713 q 622 671 575 692 l 622 540 q 528 573 575 561 q 429 585 481 585 q 266 531 321 585 q 211 356 211 476 q 263 173 211 231 q 433 115 315 115 q 533 128 485 115 q 624 161 582 142 l 624 31 q 522 -3 575 8 q 410 -14 469 -14 z "},"č":{"ha":689,"x_min":67,"x_max":624,"o":"m 410 -14 q 285 4 346 -14 q 174 63 224 22 q 96 173 125 104 q 67 344 67 242 q 94 521 67 450 q 171 634 122 592 q 281 694 219 676 q 408 713 343 713 q 519 702 464 713 q 622 671 575 692 l 622 540 q 528 573 575 561 q 429 585 481 585 q 266 531 321 585 q 211 356 211 476 q 263 173 211 231 q 433 115 315 115 q 533 128 485 115 q 624 161 582 142 l 624 31 q 522 -3 575 8 q 410 -14 469 -14 z "},"ç":{"ha":689,"x_min":67,"x_max":624,"o":"m 410 -14 q 285 4 346 -14 q 174 63 224 22 q 96 173 125 104 q 67 344 67 242 q 94 521 67 450 q 171 634 122 592 q 281 694 219 676 q 408 713 343 713 q 519 702 464 713 q 622 671 575 692 l 622 540 q 528 573 575 561 q 429 585 481 585 q 266 531 321 585 q 211 356 211 476 q 263 173 211 231 q 433 115 315 115 q 533 128 485 115 q 624 161 582 142 l 624 31 q 522 -3 575 8 q 410 -14 469 -14 z "},"ḉ":{"ha":689,"x_min":67,"x_max":624,"o":"m 410 -14 q 285 4 346 -14 q 174 63 224 22 q 96 173 125 104 q 67 344 67 242 q 94 521 67 450 q 171 634 122 592 q 281 694 219 676 q 408 713 343 713 q 519 702 464 713 q 622 671 575 692 l 622 540 q 528 573 575 561 q 429 585 481 585 q 266 531 321 585 q 211 356 211 476 q 263 173 211 231 q 433 115 315 115 q 533 128 485 115 q 624 161 582 142 l 624 31 q 522 -3 575 8 q 410 -14 469 -14 z "},"ĉ":{"ha":689,"x_min":67,"x_max":624,"o":"m 410 -14 q 285 4 346 -14 q 174 63 224 22 q 96 173 125 104 q 67 344 67 242 q 94 521 67 450 q 171 634 122 592 q 281 694 219 676 q 408 713 343 713 q 519 702 464 713 q 622 671 575 692 l 622 540 q 528 573 575 561 q 429 585 481 585 q 266 531 321 585 q 211 356 211 476 q 263 173 211 231 q 433 115 315 115 q 533 128 485 115 q 624 161 582 142 l 624 31 q 522 -3 575 8 q 410 -14 469 -14 z "},"ċ":{"ha":689,"x_min":67,"x_max":624,"o":"m 410 -14 q 285 4 346 -14 q 174 63 224 22 q 96 173 125 104 q 67 344 67 242 q 94 521 67 450 q 171 634 122 592 q 281 694 219 676 q 408 713 343 713 q 519 702 464 713 q 622 671 575 692 l 622 540 q 528 573 575 561 q 429 585 481 585 q 266 531 321 585 q 211 356 211 476 q 263 173 211 231 q 433 115 315 115 q 533 128 485 115 q 624 161 582 142 l 624 31 q 522 -3 575 8 q 410 -14 469 -14 z "},"d":{"ha":814,"x_min":67,"x_max":711,"o":"m 411 -21 q 286 -5 347 -21 q 175 52 225 11 q 96 167 125 93 q 67 357 67 240 q 147 618 67 522 q 392 714 228 714 q 457 707 418 714 q 536 687 496 700 q 604 653 576 674 l 567 604 l 567 989 l 711 989 l 711 146 q 684 71 711 103 q 613 19 657 39 q 515 -11 568 -1 q 411 -21 463 -21 m 415 106 q 522 121 478 106 q 567 161 567 136 l 567 549 q 490 579 531 569 q 413 589 450 589 q 301 562 344 589 q 236 483 257 535 q 215 354 215 431 q 232 228 215 285 q 292 139 249 172 q 415 106 336 106 z "},"ð":{"ha":797,"x_min":67,"x_max":726,"o":"m 401 -25 q 149 70 232 -25 q 67 346 67 165 q 147 620 67 528 q 369 713 226 713 q 494 685 444 713 q 578 610 543 657 l 593 510 q 512 576 563 551 q 400 601 461 601 q 289 569 331 601 q 229 479 247 536 q 211 346 211 422 q 254 163 211 228 q 400 99 297 99 q 497 124 456 99 q 561 214 538 149 q 586 401 585 279 q 556 583 586 501 q 475 733 525 665 q 364 856 425 801 q 239 956 303 911 l 239 961 l 436 961 q 530 872 479 926 q 625 744 581 817 q 698 584 669 672 q 726 392 726 496 q 645 84 726 193 q 401 -25 564 -25 m 253 760 l 233 854 l 654 925 l 674 833 l 253 760 z "},"ď":{"ha":888,"x_min":67,"x_max":1000,"o":"m 411 -21 q 286 -5 347 -21 q 175 52 225 11 q 96 167 125 93 q 67 357 67 240 q 147 618 67 522 q 392 714 228 714 q 457 707 418 714 q 536 687 496 700 q 604 653 576 674 l 567 604 l 567 989 l 711 989 l 711 146 q 684 71 711 103 q 613 19 657 39 q 515 -11 568 -1 q 411 -21 463 -21 m 415 106 q 522 121 478 106 q 567 161 567 136 l 567 549 q 490 579 531 569 q 413 589 450 589 q 301 562 344 589 q 236 483 257 535 q 215 354 215 431 q 232 228 215 285 q 292 139 249 172 q 415 106 336 106 z "},"đ":{"ha":814,"x_min":67,"x_max":797,"o":"m 411 -21 q 286 -5 347 -21 q 175 52 225 11 q 96 167 125 93 q 67 357 67 240 q 147 618 67 522 q 392 714 228 714 q 457 707 418 714 q 536 687 496 700 q 604 653 576 674 l 567 604 l 567 989 l 711 989 l 711 146 q 684 71 711 103 q 613 19 657 39 q 515 -11 568 -1 q 411 -21 463 -21 m 415 106 q 522 121 478 106 q 567 161 567 136 l 567 549 q 490 579 531 569 q 413 589 450 589 q 301 562 344 589 q 236 483 257 535 q 215 354 215 431 q 232 228 215 285 q 292 139 249 172 q 415 106 336 106 m 426 788 l 426 885 l 797 885 l 797 788 l 426 788 z "},"ḏ":{"ha":814,"x_min":67,"x_max":711,"o":"m 411 -21 q 286 -5 347 -21 q 175 52 225 11 q 96 167 125 93 q 67 357 67 240 q 147 618 67 522 q 392 714 228 714 q 457 707 418 714 q 536 687 496 700 q 604 653 576 674 l 567 604 l 567 989 l 711 989 l 711 146 q 684 71 711 103 q 613 19 657 39 q 515 -11 568 -1 q 411 -21 463 -21 m 415 106 q 522 121 478 106 q 567 161 567 136 l 567 549 q 490 579 531 569 q 413 589 450 589 q 301 562 344 589 q 236 483 257 535 q 215 354 215 431 q 232 228 215 285 q 292 139 249 172 q 415 106 336 106 z "},"ǆ":{"ha":1468,"x_min":67,"x_max":1406,"o":"m 411 -21 q 286 -5 347 -21 q 175 52 225 11 q 96 167 125 93 q 67 357 67 240 q 147 618 67 522 q 392 714 228 714 q 457 707 418 714 q 536 687 496 700 q 604 653 576 674 l 567 604 l 567 989 l 711 989 l 711 146 q 684 71 711 103 q 613 19 657 39 q 515 -11 568 -1 q 411 -21 463 -21 m 415 106 q 522 121 478 106 q 567 161 567 136 l 567 549 q 490 579 531 569 q 413 589 450 589 q 301 562 344 589 q 236 483 257 535 q 215 354 215 431 q 232 228 215 285 q 292 139 249 172 q 415 106 336 106 z "},"e":{"ha":768,"x_min":67,"x_max":704,"o":"m 403 -21 q 224 21 300 -21 q 108 144 149 63 q 67 344 67 226 q 152 620 67 526 q 390 714 238 714 q 572 664 503 714 q 673 524 642 614 q 703 315 704 435 l 154 315 l 150 424 l 592 424 l 557 389 q 513 545 553 496 q 386 594 472 594 q 292 572 331 594 q 233 494 253 549 q 213 343 213 439 q 267 166 213 226 q 426 106 321 106 q 515 114 474 106 q 590 135 556 122 q 650 161 625 149 l 650 26 q 540 -8 601 6 q 403 -21 479 -21 z "},"é":{"ha":768,"x_min":67,"x_max":704,"o":"m 403 -21 q 224 21 300 -21 q 108 144 149 63 q 67 344 67 226 q 152 620 67 526 q 390 714 238 714 q 572 664 503 714 q 673 524 642 614 q 703 315 704 435 l 154 315 l 150 424 l 592 424 l 557 389 q 513 545 553 496 q 386 594 472 594 q 292 572 331 594 q 233 494 253 549 q 213 343 213 439 q 267 166 213 226 q 426 106 321 106 q 515 114 474 106 q 590 135 556 122 q 650 161 625 149 l 650 26 q 540 -8 601 6 q 403 -21 479 -21 z "},"ĕ":{"ha":768,"x_min":67,"x_max":704,"o":"m 403 -21 q 224 21 300 -21 q 108 144 149 63 q 67 344 67 226 q 152 620 67 526 q 390 714 238 714 q 572 664 503 714 q 673 524 642 614 q 703 315 704 435 l 154 315 l 150 424 l 592 424 l 557 389 q 513 545 553 496 q 386 594 472 594 q 292 572 331 594 q 233 494 253 549 q 213 343 213 439 q 267 166 213 226 q 426 106 321 106 q 515 114 474 106 q 590 135 556 122 q 650 161 625 149 l 650 26 q 540 -8 601 6 q 403 -21 479 -21 z "},"ě":{"ha":768,"x_min":67,"x_max":704,"o":"m 403 -21 q 224 21 300 -21 q 108 144 149 63 q 67 344 67 226 q 152 620 67 526 q 390 714 238 714 q 572 664 503 714 q 673 524 642 614 q 703 315 704 435 l 154 315 l 150 424 l 592 424 l 557 389 q 513 545 553 496 q 386 594 472 594 q 292 572 331 594 q 233 494 253 549 q 213 343 213 439 q 267 166 213 226 q 426 106 321 106 q 515 114 474 106 q 590 135 556 122 q 650 161 625 149 l 650 26 q 540 -8 601 6 q 403 -21 479 -21 z "},"ḝ":{"ha":768,"x_min":67,"x_max":704,"o":"m 403 -21 q 224 21 300 -21 q 108 144 149 63 q 67 344 67 226 q 152 620 67 526 q 390 714 238 714 q 572 664 503 714 q 673 524 642 614 q 703 315 704 435 l 154 315 l 150 424 l 592 424 l 557 389 q 513 545 553 496 q 386 594 472 594 q 292 572 331 594 q 233 494 253 549 q 213 343 213 439 q 267 166 213 226 q 426 106 321 106 q 515 114 474 106 q 590 135 556 122 q 650 161 625 149 l 650 26 q 540 -8 601 6 q 403 -21 479 -21 z "},"ê":{"ha":768,"x_min":67,"x_max":704,"o":"m 403 -21 q 224 21 300 -21 q 108 144 149 63 q 67 344 67 226 q 152 620 67 526 q 390 714 238 714 q 572 664 503 714 q 673 524 642 614 q 703 315 704 435 l 154 315 l 150 424 l 592 424 l 557 389 q 513 545 553 496 q 386 594 472 594 q 292 572 331 594 q 233 494 253 549 q 213 343 213 439 q 267 166 213 226 q 426 106 321 106 q 515 114 474 106 q 590 135 556 122 q 650 161 625 149 l 650 26 q 540 -8 601 6 q 403 -21 479 -21 z "},"ế":{"ha":768,"x_min":67,"x_max":754,"o":"m 403 -21 q 224 21 300 -21 q 108 144 149 63 q 67 344 67 226 q 152 620 67 526 q 390 714 238 714 q 572 664 503 714 q 673 524 642 614 q 703 315 704 435 l 154 315 l 150 424 l 592 424 l 557 389 q 513 545 553 496 q 386 594 472 594 q 292 572 331 594 q 233 494 253 549 q 213 343 213 439 q 267 166 213 226 q 426 106 321 106 q 515 114 474 106 q 590 135 556 122 q 650 161 625 149 l 650 26 q 540 -8 601 6 q 403 -21 479 -21 z "},"ệ":{"ha":768,"x_min":67,"x_max":704,"o":"m 403 -21 q 224 21 300 -21 q 108 144 149 63 q 67 344 67 226 q 152 620 67 526 q 390 714 238 714 q 572 664 503 714 q 673 524 642 614 q 703 315 704 435 l 154 315 l 150 424 l 592 424 l 557 389 q 513 545 553 496 q 386 594 472 594 q 292 572 331 594 q 233 494 253 549 q 213 343 213 439 q 267 166 213 226 q 426 106 321 106 q 515 114 474 106 q 590 135 556 122 q 650 161 625 149 l 650 26 q 540 -8 601 6 q 403 -21 479 -21 m 336 -192 l 336 -69 l 463 -69 l 463 -192 l 336 -192 z "},"ề":{"ha":768,"x_min":25,"x_max":704,"o":"m 403 -21 q 224 21 300 -21 q 108 144 149 63 q 67 344 67 226 q 152 620 67 526 q 390 714 238 714 q 572 664 503 714 q 673 524 642 614 q 703 315 704 435 l 154 315 l 150 424 l 592 424 l 557 389 q 513 545 553 496 q 386 594 472 594 q 292 572 331 594 q 233 494 253 549 q 213 343 213 439 q 267 166 213 226 q 426 106 321 106 q 515 114 474 106 q 590 135 556 122 q 650 161 625 149 l 650 26 q 540 -8 601 6 q 403 -21 479 -21 z "},"ể":{"ha":768,"x_min":67,"x_max":704,"o":"m 403 -21 q 224 21 300 -21 q 108 144 149 63 q 67 344 67 226 q 152 620 67 526 q 390 714 238 714 q 572 664 503 714 q 673 524 642 614 q 703 315 704 435 l 154 315 l 150 424 l 592 424 l 557 389 q 513 545 553 496 q 386 594 472 594 q 292 572 331 594 q 233 494 253 549 q 213 343 213 439 q 267 166 213 226 q 426 106 321 106 q 515 114 474 106 q 590 135 556 122 q 650 161 625 149 l 650 26 q 540 -8 601 6 q 403 -21 479 -21 z "},"ễ":{"ha":768,"x_min":67,"x_max":704,"o":"m 403 -21 q 224 21 300 -21 q 108 144 149 63 q 67 344 67 226 q 152 620 67 526 q 390 714 238 714 q 572 664 503 714 q 673 524 642 614 q 703 315 704 435 l 154 315 l 150 424 l 592 424 l 557 389 q 513 545 553 496 q 386 594 472 594 q 292 572 331 594 q 233 494 253 549 q 213 343 213 439 q 267 166 213 226 q 426 106 321 106 q 515 114 474 106 q 590 135 556 122 q 650 161 625 149 l 650 26 q 540 -8 601 6 q 403 -21 479 -21 z "},"ȅ":{"ha":768,"x_min":67,"x_max":704,"o":"m 403 -21 q 224 21 300 -21 q 108 144 149 63 q 67 344 67 226 q 152 620 67 526 q 390 714 238 714 q 572 664 503 714 q 673 524 642 614 q 703 315 704 435 l 154 315 l 150 424 l 592 424 l 557 389 q 513 545 553 496 q 386 594 472 594 q 292 572 331 594 q 233 494 253 549 q 213 343 213 439 q 267 166 213 226 q 426 106 321 106 q 515 114 474 106 q 590 135 556 122 q 650 161 625 149 l 650 26 q 540 -8 601 6 q 403 -21 479 -21 z "},"ë":{"ha":768,"x_min":67,"x_max":704,"o":"m 403 -21 q 224 21 300 -21 q 108 144 149 63 q 67 344 67 226 q 152 620 67 526 q 390 714 238 714 q 572 664 503 714 q 673 524 642 614 q 703 315 704 435 l 154 315 l 150 424 l 592 424 l 557 389 q 513 545 553 496 q 386 594 472 594 q 292 572 331 594 q 233 494 253 549 q 213 343 213 439 q 267 166 213 226 q 426 106 321 106 q 515 114 474 106 q 590 135 556 122 q 650 161 625 149 l 650 26 q 540 -8 601 6 q 403 -21 479 -21 z "},"ė":{"ha":768,"x_min":67,"x_max":704,"o":"m 403 -21 q 224 21 300 -21 q 108 144 149 63 q 67 344 67 226 q 152 620 67 526 q 390 714 238 714 q 572 664 503 714 q 673 524 642 614 q 703 315 704 435 l 154 315 l 150 424 l 592 424 l 557 389 q 513 545 553 496 q 386 594 472 594 q 292 572 331 594 q 233 494 253 549 q 213 343 213 439 q 267 166 213 226 q 426 106 321 106 q 515 114 474 106 q 590 135 556 122 q 650 161 625 149 l 650 26 q 540 -8 601 6 q 403 -21 479 -21 z "},"ẹ":{"ha":768,"x_min":67,"x_max":704,"o":"m 403 -21 q 224 21 300 -21 q 108 144 149 63 q 67 344 67 226 q 152 620 67 526 q 390 714 238 714 q 572 664 503 714 q 673 524 642 614 q 703 315 704 435 l 154 315 l 150 424 l 592 424 l 557 389 q 513 545 553 496 q 386 594 472 594 q 292 572 331 594 q 233 494 253 549 q 213 343 213 439 q 267 166 213 226 q 426 106 321 106 q 515 114 474 106 q 590 135 556 122 q 650 161 625 149 l 650 26 q 540 -8 601 6 q 403 -21 479 -21 m 336 -192 l 336 -69 l 463 -69 l 463 -192 l 336 -192 z "},"è":{"ha":768,"x_min":67,"x_max":704,"o":"m 403 -21 q 224 21 300 -21 q 108 144 149 63 q 67 344 67 226 q 152 620 67 526 q 390 714 238 714 q 572 664 503 714 q 673 524 642 614 q 703 315 704 435 l 154 315 l 150 424 l 592 424 l 557 389 q 513 545 553 496 q 386 594 472 594 q 292 572 331 594 q 233 494 253 549 q 213 343 213 439 q 267 166 213 226 q 426 106 321 106 q 515 114 474 106 q 590 135 556 122 q 650 161 625 149 l 650 26 q 540 -8 601 6 q 403 -21 479 -21 z "},"ẻ":{"ha":768,"x_min":67,"x_max":704,"o":"m 403 -21 q 224 21 300 -21 q 108 144 149 63 q 67 344 67 226 q 152 620 67 526 q 390 714 238 714 q 572 664 503 714 q 673 524 642 614 q 703 315 704 435 l 154 315 l 150 424 l 592 424 l 557 389 q 513 545 553 496 q 386 594 472 594 q 292 572 331 594 q 233 494 253 549 q 213 343 213 439 q 267 166 213 226 q 426 106 321 106 q 515 114 474 106 q 590 135 556 122 q 650 161 625 149 l 650 26 q 540 -8 601 6 q 403 -21 479 -21 m 357 778 l 357 853 q 396 864 383 853 q 408 886 408 875 q 392 913 408 904 q 344 921 375 921 q 326 920 336 921 q 306 917 315 919 l 306 986 q 331 990 317 989 q 365 990 346 990 q 432 981 400 990 q 485 951 464 972 q 506 890 506 929 q 486 838 506 860 q 429 810 467 815 l 429 778 l 357 778 z "},"ȇ":{"ha":768,"x_min":67,"x_max":704,"o":"m 403 -21 q 224 21 300 -21 q 108 144 149 63 q 67 344 67 226 q 152 620 67 526 q 390 714 238 714 q 572 664 503 714 q 673 524 642 614 q 703 315 704 435 l 154 315 l 150 424 l 592 424 l 557 389 q 513 545 553 496 q 386 594 472 594 q 292 572 331 594 q 233 494 253 549 q 213 343 213 439 q 267 166 213 226 q 426 106 321 106 q 515 114 474 106 q 590 135 556 122 q 650 161 625 149 l 650 26 q 540 -8 601 6 q 403 -21 479 -21 z "},"ē":{"ha":768,"x_min":67,"x_max":704,"o":"m 403 -21 q 224 21 300 -21 q 108 144 149 63 q 67 344 67 226 q 152 620 67 526 q 390 714 238 714 q 572 664 503 714 q 673 524 642 614 q 703 315 704 435 l 154 315 l 150 424 l 592 424 l 557 389 q 513 545 553 496 q 386 594 472 594 q 292 572 331 594 q 233 494 253 549 q 213 343 213 439 q 267 166 213 226 q 426 106 321 106 q 515 114 474 106 q 590 135 556 122 q 650 161 625 149 l 650 26 q 540 -8 601 6 q 403 -21 479 -21 z "},"ḗ":{"ha":768,"x_min":67,"x_max":704,"o":"m 403 -21 q 224 21 300 -21 q 108 144 149 63 q 67 344 67 226 q 152 620 67 526 q 390 714 238 714 q 572 664 503 714 q 673 524 642 614 q 703 315 704 435 l 154 315 l 150 424 l 592 424 l 557 389 q 513 545 553 496 q 386 594 472 594 q 292 572 331 594 q 233 494 253 549 q 213 343 213 439 q 267 166 213 226 q 426 106 321 106 q 515 114 474 106 q 590 135 556 122 q 650 161 625 149 l 650 26 q 540 -8 601 6 q 403 -21 479 -21 z "},"ḕ":{"ha":768,"x_min":67,"x_max":704,"o":"m 403 -21 q 224 21 300 -21 q 108 144 149 63 q 67 344 67 226 q 152 620 67 526 q 390 714 238 714 q 572 664 503 714 q 673 524 642 614 q 703 315 704 435 l 154 315 l 150 424 l 592 424 l 557 389 q 513 545 553 496 q 386 594 472 594 q 292 572 331 594 q 233 494 253 549 q 213 343 213 439 q 267 166 213 226 q 426 106 321 106 q 515 114 474 106 q 590 135 556 122 q 650 161 625 149 l 650 26 q 540 -8 601 6 q 403 -21 479 -21 z "},"ę":{"ha":768,"x_min":67,"x_max":704,"o":"m 403 -21 q 224 21 300 -21 q 108 144 149 63 q 67 344 67 226 q 152 620 67 526 q 390 714 238 714 q 572 664 503 714 q 673 524 642 614 q 703 315 704 435 l 154 315 l 150 424 l 592 424 l 557 389 q 513 545 553 496 q 386 594 472 594 q 292 572 331 594 q 233 494 253 549 q 213 343 213 439 q 267 166 213 226 q 426 106 321 106 q 515 114 474 106 q 590 135 556 122 q 650 161 625 149 l 650 26 q 540 -8 601 6 q 403 -21 479 -21 z "},"ẽ":{"ha":768,"x_min":67,"x_max":704,"o":"m 403 -21 q 224 21 300 -21 q 108 144 149 63 q 67 344 67 226 q 152 620 67 526 q 390 714 238 714 q 572 664 503 714 q 673 524 642 614 q 703 315 704 435 l 154 315 l 150 424 l 592 424 l 557 389 q 513 545 553 496 q 386 594 472 594 q 292 572 331 594 q 233 494 253 549 q 213 343 213 439 q 267 166 213 226 q 426 106 321 106 q 515 114 474 106 q 590 135 556 122 q 650 161 625 149 l 650 26 q 540 -8 601 6 q 403 -21 479 -21 z "},"ə":{"ha":768,"x_min":65,"x_max":703,"o":"m 365 714 q 544 672 468 714 q 660 549 619 631 q 701 349 701 467 q 616 73 701 167 q 378 -21 531 -21 q 196 29 265 -21 q 95 169 126 79 q 65 378 64 258 l 614 378 l 618 269 l 176 269 l 211 304 q 256 148 215 197 q 382 99 296 99 q 476 122 438 99 q 535 199 515 144 q 556 350 556 254 q 501 527 556 467 q 342 588 447 588 q 253 579 294 588 q 178 558 213 571 q 118 532 143 544 l 118 667 q 228 701 167 688 q 365 714 289 714 z "},"f":{"ha":532,"x_min":50,"x_max":483,"o":"m 161 0 l 161 576 l 50 576 l 50 697 l 163 697 l 163 725 q 178 847 163 799 q 221 925 194 896 q 279 969 247 954 q 344 988 311 983 q 406 992 376 992 q 447 989 426 992 q 483 982 468 986 l 483 853 q 458 865 471 860 q 424 869 444 869 q 382 866 403 869 q 344 849 361 863 q 318 810 328 836 q 308 738 308 783 l 308 697 l 483 697 l 483 576 l 307 576 l 307 0 l 161 0 z "},"g":{"ha":804,"x_min":67,"x_max":706,"o":"m 379 -21 q 208 22 278 -19 q 102 140 138 63 q 67 329 67 218 q 97 522 67 447 q 178 639 126 597 q 297 697 231 681 q 433 713 363 713 q 569 693 508 713 q 668 634 631 674 q 706 532 706 594 l 706 -21 q 688 -124 706 -76 q 633 -210 671 -172 q 532 -268 594 -247 q 379 -289 469 -289 q 250 -277 307 -289 q 156 -253 193 -265 l 156 -119 q 211 -137 178 -128 q 285 -155 244 -147 q 369 -162 326 -162 q 492 -142 451 -162 q 547 -88 533 -121 q 561 -18 561 -56 l 561 88 l 600 56 q 538 17 575 35 q 460 -10 501 0 q 379 -21 419 -21 m 403 97 q 485 108 443 97 q 561 139 526 118 l 561 504 q 542 558 561 540 q 492 582 524 575 q 424 589 460 589 q 294 555 339 589 q 232 463 249 521 q 215 333 215 404 q 261 163 215 228 q 403 97 307 97 z "},"ğ":{"ha":804,"x_min":67,"x_max":706,"o":"m 379 -21 q 208 22 278 -19 q 102 140 138 63 q 67 329 67 218 q 97 522 67 447 q 178 639 126 597 q 297 697 231 681 q 433 713 363 713 q 569 693 508 713 q 668 634 631 674 q 706 532 706 594 l 706 -21 q 688 -124 706 -76 q 633 -210 671 -172 q 532 -268 594 -247 q 379 -289 469 -289 q 250 -277 307 -289 q 156 -253 193 -265 l 156 -119 q 211 -137 178 -128 q 285 -155 244 -147 q 369 -162 326 -162 q 492 -142 451 -162 q 547 -88 533 -121 q 561 -18 561 -56 l 561 88 l 600 56 q 538 17 575 35 q 460 -10 501 0 q 379 -21 419 -21 m 403 97 q 485 108 443 97 q 561 139 526 118 l 561 504 q 542 558 561 540 q 492 582 524 575 q 424 589 460 589 q 294 555 339 589 q 232 463 249 521 q 215 333 215 404 q 261 163 215 228 q 403 97 307 97 z "},"ǧ":{"ha":804,"x_min":67,"x_max":706,"o":"m 379 -21 q 208 22 278 -19 q 102 140 138 63 q 67 329 67 218 q 97 522 67 447 q 178 639 126 597 q 297 697 231 681 q 433 713 363 713 q 569 693 508 713 q 668 634 631 674 q 706 532 706 594 l 706 -21 q 688 -124 706 -76 q 633 -210 671 -172 q 532 -268 594 -247 q 379 -289 469 -289 q 250 -277 307 -289 q 156 -253 193 -265 l 156 -119 q 211 -137 178 -128 q 285 -155 244 -147 q 369 -162 326 -162 q 492 -142 451 -162 q 547 -88 533 -121 q 561 -18 561 -56 l 561 88 l 600 56 q 538 17 575 35 q 460 -10 501 0 q 379 -21 419 -21 m 403 97 q 485 108 443 97 q 561 139 526 118 l 561 504 q 542 558 561 540 q 492 582 524 575 q 424 589 460 589 q 294 555 339 589 q 232 463 249 521 q 215 333 215 404 q 261 163 215 228 q 403 97 307 97 z "},"ĝ":{"ha":804,"x_min":67,"x_max":706,"o":"m 379 -21 q 208 22 278 -19 q 102 140 138 63 q 67 329 67 218 q 97 522 67 447 q 178 639 126 597 q 297 697 231 681 q 433 713 363 713 q 569 693 508 713 q 668 634 631 674 q 706 532 706 594 l 706 -21 q 688 -124 706 -76 q 633 -210 671 -172 q 532 -268 594 -247 q 379 -289 469 -289 q 250 -277 307 -289 q 156 -253 193 -265 l 156 -119 q 211 -137 178 -128 q 285 -155 244 -147 q 369 -162 326 -162 q 492 -142 451 -162 q 547 -88 533 -121 q 561 -18 561 -56 l 561 88 l 600 56 q 538 17 575 35 q 460 -10 501 0 q 379 -21 419 -21 m 403 97 q 485 108 443 97 q 561 139 526 118 l 561 504 q 542 558 561 540 q 492 582 524 575 q 424 589 460 589 q 294 555 339 589 q 232 463 249 521 q 215 333 215 404 q 261 163 215 228 q 403 97 307 97 z "},"ģ":{"ha":804,"x_min":67,"x_max":706,"o":"m 379 -21 q 208 22 278 -19 q 102 140 138 63 q 67 329 67 218 q 97 522 67 447 q 178 639 126 597 q 297 697 231 681 q 433 713 363 713 q 569 693 508 713 q 668 634 631 674 q 706 532 706 594 l 706 -21 q 688 -124 706 -76 q 633 -210 671 -172 q 532 -268 594 -247 q 379 -289 469 -289 q 250 -277 307 -289 q 156 -253 193 -265 l 156 -119 q 211 -137 178 -128 q 285 -155 244 -147 q 369 -162 326 -162 q 492 -142 451 -162 q 547 -88 533 -121 q 561 -18 561 -56 l 561 88 l 600 56 q 538 17 575 35 q 460 -10 501 0 q 379 -21 419 -21 m 403 97 q 485 108 443 97 q 561 139 526 118 l 561 504 q 542 558 561 540 q 492 582 524 575 q 424 589 460 589 q 294 555 339 589 q 232 463 249 521 q 215 333 215 404 q 261 163 215 228 q 403 97 307 97 z "},"ġ":{"ha":804,"x_min":67,"x_max":706,"o":"m 379 -21 q 208 22 278 -19 q 102 140 138 63 q 67 329 67 218 q 97 522 67 447 q 178 639 126 597 q 297 697 231 681 q 433 713 363 713 q 569 693 508 713 q 668 634 631 674 q 706 532 706 594 l 706 -21 q 688 -124 706 -76 q 633 -210 671 -172 q 532 -268 594 -247 q 379 -289 469 -289 q 250 -277 307 -289 q 156 -253 193 -265 l 156 -119 q 211 -137 178 -128 q 285 -155 244 -147 q 369 -162 326 -162 q 492 -142 451 -162 q 547 -88 533 -121 q 561 -18 561 -56 l 561 88 l 600 56 q 538 17 575 35 q 460 -10 501 0 q 379 -21 419 -21 m 403 97 q 485 108 443 97 q 561 139 526 118 l 561 504 q 542 558 561 540 q 492 582 524 575 q 424 589 460 589 q 294 555 339 589 q 232 463 249 521 q 215 333 215 404 q 261 163 215 228 q 403 97 307 97 z "},"ḡ":{"ha":804,"x_min":67,"x_max":706,"o":"m 379 -21 q 208 22 278 -19 q 102 140 138 63 q 67 329 67 218 q 97 522 67 447 q 178 639 126 597 q 297 697 231 681 q 433 713 363 713 q 569 693 508 713 q 668 634 631 674 q 706 532 706 594 l 706 -21 q 688 -124 706 -76 q 633 -210 671 -172 q 532 -268 594 -247 q 379 -289 469 -289 q 250 -277 307 -289 q 156 -253 193 -265 l 156 -119 q 211 -137 178 -128 q 285 -155 244 -147 q 369 -162 326 -162 q 492 -142 451 -162 q 547 -88 533 -121 q 561 -18 561 -56 l 561 88 l 600 56 q 538 17 575 35 q 460 -10 501 0 q 379 -21 419 -21 m 403 97 q 485 108 443 97 q 561 139 526 118 l 561 504 q 542 558 561 540 q 492 582 524 575 q 424 589 460 589 q 294 555 339 589 q 232 463 249 521 q 215 333 215 404 q 261 163 215 228 q 403 97 307 97 z "},"h":{"ha":821,"x_min":103,"x_max":718,"o":"m 103 0 l 103 992 l 249 992 l 249 593 l 206 629 q 326 690 260 667 q 454 713 392 713 q 594 684 536 713 q 685 594 653 656 q 718 432 718 532 l 718 0 l 572 0 l 572 414 q 532 543 572 499 q 413 588 492 588 q 328 575 371 588 q 249 542 286 563 l 247 0 l 103 0 z "},"ħ":{"ha":821,"x_min":-10,"x_max":718,"o":"m 103 0 l 103 992 l 249 992 l 249 593 l 206 629 q 326 690 260 667 q 454 713 392 713 q 594 684 536 713 q 685 594 653 656 q 718 432 718 532 l 718 0 l 572 0 l 572 414 q 532 543 572 499 q 413 588 492 588 q 328 575 371 588 q 249 542 286 563 l 247 0 l 103 0 m -10 785 l -10 882 l 361 882 l 361 785 l -10 785 z "},"ḫ":{"ha":821,"x_min":103,"x_max":718,"o":"m 103 0 l 103 992 l 249 992 l 249 593 l 206 629 q 326 690 260 667 q 454 713 392 713 q 594 684 536 713 q 685 594 653 656 q 718 432 718 532 l 718 0 l 572 0 l 572 414 q 532 543 572 499 q 413 588 492 588 q 328 575 371 588 q 249 542 286 563 l 247 0 l 103 0 z "},"ĥ":{"ha":821,"x_min":-6,"x_max":718,"o":"m 103 0 l 103 992 l 249 992 l 249 593 l 206 629 q 326 690 260 667 q 454 713 392 713 q 594 684 536 713 q 685 594 653 656 q 718 432 718 532 l 718 0 l 572 0 l 572 414 q 532 543 572 499 q 413 588 492 588 q 328 575 371 588 q 249 542 286 563 l 247 0 l 103 0 z "},"i":{"ha":361,"x_min":103,"x_max":258,"o":"m 107 0 l 107 693 l 253 693 l 254 0 l 107 0 m 103 808 l 103 940 l 258 940 l 258 808 l 103 808 z "},"ı":{"ha":353,"x_min":103,"x_max":250,"o":"m 103 0 l 103 693 l 249 693 l 250 0 l 103 0 z "},"í":{"ha":413,"x_min":136,"x_max":367,"o":"m 136 0 l 136 693 l 278 693 l 278 0 l 136 0 m 167 781 l 246 940 l 367 940 l 247 781 l 167 781 z "},"ĭ":{"ha":353,"x_min":-21,"x_max":374,"o":"m 103 0 l 103 693 l 249 693 l 250 0 l 103 0 z "},"ǐ":{"ha":353,"x_min":11,"x_max":336,"o":"m 103 0 l 103 693 l 249 693 l 250 0 l 103 0 z "},"î":{"ha":413,"x_min":47,"x_max":365,"o":"m 136 0 l 136 693 l 278 693 l 278 0 l 136 0 m 47 781 l 176 947 l 236 947 l 365 781 l 268 781 l 207 867 l 144 781 l 47 781 z "},"ȉ":{"ha":353,"x_min":-71,"x_max":363,"o":"m 103 0 l 103 693 l 249 693 l 250 0 l 103 0 z "},"ï":{"ha":413,"x_min":36,"x_max":378,"o":"m 136 0 l 136 693 l 278 693 l 278 0 l 136 0 m 36 781 l 36 903 l 163 903 l 163 781 l 36 781 m 250 781 l 250 903 l 378 903 l 378 781 l 250 781 z "},"ḯ":{"ha":353,"x_min":-3,"x_max":363,"o":"m 103 0 l 103 693 l 249 693 l 250 0 l 103 0 z "},"ị":{"ha":413,"x_min":132,"x_max":282,"o":"m 136 0 l 136 693 l 278 693 l 278 0 l 136 0 m 143 -192 l 143 -69 l 269 -69 l 269 -192 l 143 -192 m 132 803 l 132 935 l 282 935 l 282 803 l 132 803 z "},"ì":{"ha":413,"x_min":46,"x_max":278,"o":"m 136 0 l 136 693 l 278 693 l 278 0 l 136 0 m 165 783 l 46 943 l 167 943 l 247 783 l 165 783 z "},"ỉ":{"ha":413,"x_min":126,"x_max":306,"o":"m 136 0 l 136 693 l 278 693 l 278 0 l 136 0 m 178 781 l 178 856 q 213 865 201 856 q 225 885 225 874 q 209 911 225 903 q 167 919 193 919 q 126 915 146 919 l 126 979 q 151 983 138 982 q 178 983 165 983 q 238 975 208 983 q 286 945 267 967 q 306 888 306 924 q 295 849 306 865 q 269 824 285 833 q 233 813 253 815 l 233 781 l 178 781 z "},"ȋ":{"ha":353,"x_min":-21,"x_max":374,"o":"m 103 0 l 103 693 l 249 693 l 250 0 l 103 0 z "},"ĳ":{"ha":754,"x_min":103,"x_max":651,"o":"m 107 0 l 107 693 l 253 693 l 254 0 l 107 0 m 103 808 l 103 940 l 258 940 l 258 808 l 103 808 m 374 -268 l 374 -143 q 451 -131 424 -143 q 490 -90 479 -118 q 501 -22 501 -62 l 501 697 l 647 697 l 647 -25 q 615 -166 647 -112 q 520 -244 582 -219 q 374 -268 458 -268 m 497 813 l 497 944 l 651 944 l 651 813 l 497 813 z "},"ī":{"ha":413,"x_min":44,"x_max":368,"o":"m 136 0 l 136 693 l 278 693 l 278 0 l 136 0 m 44 792 l 44 879 l 368 879 l 368 792 l 44 792 z "},"į":{"ha":361,"x_min":7,"x_max":258,"o":"m 151 -249 q 44 -217 82 -249 q 7 -126 7 -186 q 45 -42 7 -83 q 144 24 83 -1 l 254 0 q 161 -54 199 -25 q 124 -112 124 -83 q 137 -151 124 -140 q 171 -161 150 -161 q 220 -147 199 -161 q 254 -119 242 -132 l 254 -221 q 213 -240 236 -231 q 151 -249 189 -249 m 107 0 l 107 693 l 253 693 l 254 0 l 107 0 m 103 808 l 103 940 l 258 940 l 258 808 l 103 808 z "},"ĩ":{"ha":353,"x_min":-50,"x_max":411,"o":"m 103 0 l 103 693 l 249 693 l 250 0 l 103 0 z "},"j":{"ha":393,"x_min":13,"x_max":290,"o":"m 13 -268 l 13 -143 q 90 -131 63 -143 q 129 -90 118 -118 q 140 -22 140 -62 l 140 697 l 286 697 l 286 -25 q 253 -166 286 -112 q 159 -244 221 -219 q 13 -268 97 -268 m 136 813 l 136 944 l 290 944 l 290 813 l 136 813 z "},"ȷ":{"ha":382,"x_min":4,"x_max":279,"o":"m 4 -268 l 4 -151 q 84 -137 56 -150 q 125 -97 113 -125 q 138 -28 138 -69 l 138 693 l 279 693 l 279 -25 q 247 -166 279 -112 q 152 -244 214 -219 q 4 -268 90 -268 z "},"ĵ":{"ha":379,"x_min":4,"x_max":367,"o":"m 4 -268 l 4 -151 q 84 -137 56 -150 q 125 -97 113 -125 q 138 -28 138 -69 l 138 693 l 279 693 l 279 -25 q 247 -166 279 -112 q 152 -244 214 -219 q 4 -268 90 -268 m 50 781 l 178 947 l 239 947 l 367 781 l 269 781 l 208 867 l 147 781 l 50 781 z "},"k":{"ha":756,"x_min":103,"x_max":715,"o":"m 217 404 l 501 697 l 681 697 l 279 315 l 217 404 m 247 0 l 103 0 l 103 961 l 249 961 l 247 0 m 313 451 l 715 0 l 528 0 l 210 354 l 313 451 z "},"ķ":{"ha":801,"x_min":126,"x_max":751,"o":"m 126 0 l 126 956 l 267 956 l 267 404 l 531 693 l 715 693 l 424 379 l 751 0 l 572 0 l 335 281 l 267 207 l 267 0 l 126 0 m 308 -268 l 308 -189 q 345 -161 333 -181 q 361 -117 357 -142 q 364 -68 365 -92 l 463 -68 q 440 -174 463 -132 q 382 -240 417 -217 q 308 -268 347 -264 z "},"ĸ":{"ha":801,"x_min":126,"x_max":751,"o":"m 126 0 l 126 693 l 267 693 l 267 404 l 531 693 l 715 693 l 424 379 l 751 0 l 572 0 l 335 281 l 267 207 l 267 0 l 126 0 z "},"l":{"ha":350,"x_min":103,"x_max":247,"o":"m 247 0 l 103 0 l 103 961 l 247 961 l 247 0 z "},"ĺ":{"ha":350,"x_min":103,"x_max":357,"o":"m 247 0 l 103 0 l 103 961 l 247 961 l 247 0 m 139 1031 l 206 1189 l 357 1189 l 221 1031 l 139 1031 z "},"ľ":{"ha":436,"x_min":140,"x_max":490,"o":"m 140 0 l 140 957 l 282 957 l 282 0 l 140 0 m 338 758 l 338 838 q 373 865 361 846 q 388 909 385 885 q 392 957 392 933 l 490 957 q 467 852 490 894 q 410 786 444 810 q 338 758 375 763 z "},"ļ":{"ha":350,"x_min":86,"x_max":256,"o":"m 247 0 l 103 0 l 103 961 l 247 961 l 247 0 z "},"ŀ":{"ha":515,"x_min":103,"x_max":494,"o":"m 247 0 l 103 0 l 103 961 l 247 961 l 247 0 m 358 394 l 358 529 l 494 529 l 494 394 l 358 394 z "},"ḷ":{"ha":350,"x_min":103,"x_max":247,"o":"m 247 0 l 103 0 l 103 961 l 247 961 l 247 0 m 111 -192 l 111 -69 l 238 -69 l 238 -192 l 111 -192 z "},"ǉ":{"ha":744,"x_min":103,"x_max":642,"o":"m 247 0 l 103 0 l 103 961 l 247 961 l 247 0 m 363 -268 l 363 -143 q 440 -131 413 -143 q 479 -90 468 -118 q 490 -22 490 -62 l 490 697 l 636 697 l 636 -25 q 603 -166 636 -112 q 509 -244 571 -219 q 363 -268 447 -268 m 486 813 l 486 944 l 640 944 l 640 813 l 486 813 z "},"ḻ":{"ha":350,"x_min":0,"x_max":350,"o":"m 247 0 l 103 0 l 103 961 l 247 961 l 247 0 z "},"ł":{"ha":442,"x_min":42,"x_max":418,"o":"m 146 0 l 146 419 l 42 354 l 42 468 l 146 533 l 146 957 l 288 957 l 288 619 l 418 700 l 418 588 l 288 507 l 288 0 l 146 0 z "},"m":{"ha":1246,"x_min":103,"x_max":1143,"o":"m 707 461 l 707 0 l 561 0 l 561 442 q 555 494 561 468 q 531 541 549 519 q 481 575 514 563 q 396 588 449 588 q 321 581 358 588 q 249 561 283 574 l 249 0 l 103 0 l 103 640 q 172 669 133 656 q 253 692 210 682 q 340 707 296 701 q 426 713 385 713 q 586 685 525 713 q 677 602 647 658 q 707 461 707 546 m 540 604 q 638 664 585 640 q 749 700 692 688 q 863 713 807 713 q 1022 685 961 713 q 1113 602 1083 658 q 1143 461 1143 546 l 1143 0 l 997 0 l 997 442 q 991 494 997 468 q 967 541 985 519 q 917 575 950 563 q 832 588 885 588 q 757 576 794 588 q 685 542 719 565 l 540 604 z "},"ṃ":{"ha":1246,"x_min":103,"x_max":1143,"o":"m 707 461 l 707 0 l 561 0 l 561 442 q 555 494 561 468 q 531 541 549 519 q 481 575 514 563 q 396 588 449 588 q 321 581 358 588 q 249 561 283 574 l 249 0 l 103 0 l 103 640 q 172 669 133 656 q 253 692 210 682 q 340 707 296 701 q 426 713 385 713 q 586 685 525 713 q 677 602 647 658 q 707 461 707 546 m 540 604 q 638 664 585 640 q 749 700 692 688 q 863 713 807 713 q 1022 685 961 713 q 1113 602 1083 658 q 1143 461 1143 546 l 1143 0 l 997 0 l 997 442 q 991 494 997 468 q 967 541 985 519 q 917 575 950 563 q 832 588 885 588 q 757 576 794 588 q 685 542 719 565 l 540 604 m 560 -192 l 560 -69 l 686 -69 l 686 -192 l 560 -192 z "},"n":{"ha":814,"x_min":103,"x_max":711,"o":"m 103 640 q 172 669 133 656 q 253 692 210 682 q 340 707 296 701 q 426 713 385 713 q 588 685 525 713 q 681 602 650 658 q 711 461 711 546 l 711 0 l 565 0 l 565 442 q 559 494 565 468 q 535 541 553 519 q 485 575 518 563 q 400 588 453 588 q 323 581 363 588 q 249 561 283 574 l 249 0 l 103 0 l 103 640 z "},"ń":{"ha":814,"x_min":103,"x_max":711,"o":"m 103 640 q 172 669 133 656 q 253 692 210 682 q 340 707 296 701 q 426 713 385 713 q 588 685 525 713 q 681 602 650 658 q 711 461 711 546 l 711 0 l 565 0 l 565 442 q 559 494 565 468 q 535 541 553 519 q 485 575 518 563 q 400 588 453 588 q 323 581 363 588 q 249 561 283 574 l 249 0 l 103 0 l 103 640 z "},"ŉ":{"ha":835,"x_min":46,"x_max":711,"o":"m 114 0 l 114 632 q 151 649 124 638 q 219 674 178 661 q 311 695 260 686 q 422 704 363 704 q 635 635 558 704 q 711 439 711 565 l 711 0 l 569 0 l 569 450 q 559 508 569 478 q 514 559 549 538 q 404 581 479 581 q 323 574 361 581 q 256 558 285 568 l 256 0 l 114 0 m 46 722 l 46 801 q 83 830 71 811 q 98 874 94 849 q 101 922 101 899 l 199 922 q 177 816 200 858 q 119 751 154 774 q 46 722 83 728 z "},"ň":{"ha":814,"x_min":103,"x_max":711,"o":"m 103 640 q 172 669 133 656 q 253 692 210 682 q 340 707 296 701 q 426 713 385 713 q 588 685 525 713 q 681 602 650 658 q 711 461 711 546 l 711 0 l 565 0 l 565 442 q 559 494 565 468 q 535 541 553 519 q 485 575 518 563 q 400 588 453 588 q 323 581 363 588 q 249 561 283 574 l 249 0 l 103 0 l 103 640 z "},"ņ":{"ha":814,"x_min":103,"x_max":711,"o":"m 103 640 q 172 669 133 656 q 253 692 210 682 q 340 707 296 701 q 426 713 385 713 q 588 685 525 713 q 681 602 650 658 q 711 461 711 546 l 711 0 l 565 0 l 565 442 q 559 494 565 468 q 535 541 553 519 q 485 575 518 563 q 400 588 453 588 q 323 581 363 588 q 249 561 283 574 l 249 0 l 103 0 l 103 640 z "},"ṅ":{"ha":814,"x_min":103,"x_max":711,"o":"m 103 640 q 172 669 133 656 q 253 692 210 682 q 340 707 296 701 q 426 713 385 713 q 588 685 525 713 q 681 602 650 658 q 711 461 711 546 l 711 0 l 565 0 l 565 442 q 559 494 565 468 q 535 541 553 519 q 485 575 518 563 q 400 588 453 588 q 323 581 363 588 q 249 561 283 574 l 249 0 l 103 0 l 103 640 z "},"ṇ":{"ha":814,"x_min":103,"x_max":711,"o":"m 103 640 q 172 669 133 656 q 253 692 210 682 q 340 707 296 701 q 426 713 385 713 q 588 685 525 713 q 681 602 650 658 q 711 461 711 546 l 711 0 l 565 0 l 565 442 q 559 494 565 468 q 535 541 553 519 q 485 575 518 563 q 400 588 453 588 q 323 581 363 588 q 249 561 283 574 l 249 0 l 103 0 l 103 640 m 343 -192 l 343 -69 l 469 -69 l 469 -192 l 343 -192 z "},"ŋ":{"ha":831,"x_min":103,"x_max":701,"o":"m 103 0 l 103 618 q 170 652 124 632 q 279 688 217 672 q 410 704 342 704 q 564 677 499 704 q 665 594 629 650 q 701 454 701 539 l 701 -8 q 683 -119 701 -74 q 627 -193 664 -165 q 540 -234 590 -221 q 424 -247 489 -247 l 424 -126 q 503 -113 475 -126 q 544 -72 532 -100 q 557 -3 557 -44 l 557 428 q 546 495 557 463 q 501 549 535 528 q 397 571 467 571 q 313 561 351 571 q 247 543 274 551 l 247 0 l 103 0 z "},"ɲ":{"ha":814,"x_min":-25,"x_max":711,"o":"m 103 6 l 103 640 q 172 669 133 656 q 253 692 210 682 q 340 707 296 701 q 426 713 385 713 q 588 685 525 713 q 681 602 650 658 q 711 461 711 546 l 711 0 l 565 0 l 565 442 q 559 494 565 468 q 535 541 553 519 q 485 575 518 563 q 400 588 453 588 q 323 581 363 588 q 249 561 283 574 l 249 3 q 216 -137 249 -83 q 122 -216 183 -192 q -25 -240 61 -240 l -25 -115 q 53 -102 25 -115 q 92 -62 81 -89 q 103 6 103 -35 z "},"ǌ":{"ha":1207,"x_min":103,"x_max":1104,"o":"m 103 640 q 172 669 133 656 q 253 692 210 682 q 340 707 296 701 q 426 713 385 713 q 588 685 525 713 q 681 602 650 658 q 711 461 711 546 l 711 0 l 565 0 l 565 442 q 559 494 565 468 q 535 541 553 519 q 485 575 518 563 q 400 588 453 588 q 323 581 363 588 q 249 561 283 574 l 249 0 l 103 0 l 103 640 m 826 -268 l 826 -143 q 904 -131 876 -143 q 943 -90 932 -118 q 954 -22 954 -62 l 954 697 l 1100 697 l 1100 -25 q 1067 -166 1100 -112 q 973 -244 1035 -219 q 826 -268 911 -268 m 950 813 l 950 944 l 1104 944 l 1104 813 l 950 813 z "},"ṉ":{"ha":814,"x_min":103,"x_max":711,"o":"m 103 640 q 172 669 133 656 q 253 692 210 682 q 340 707 296 701 q 426 713 385 713 q 588 685 525 713 q 681 602 650 658 q 711 461 711 546 l 711 0 l 565 0 l 565 442 q 559 494 565 468 q 535 541 553 519 q 485 575 518 563 q 400 588 453 588 q 323 581 363 588 q 249 561 283 574 l 249 0 l 103 0 l 103 640 z "},"ñ":{"ha":814,"x_min":103,"x_max":711,"o":"m 103 640 q 172 669 133 656 q 253 692 210 682 q 340 707 296 701 q 426 713 385 713 q 588 685 525 713 q 681 602 650 658 q 711 461 711 546 l 711 0 l 565 0 l 565 442 q 559 494 565 468 q 535 541 553 519 q 485 575 518 563 q 400 588 453 588 q 323 581 363 588 q 249 561 283 574 l 249 0 l 103 0 l 103 640 z "},"o":{"ha":803,"x_min":67,"x_max":736,"o":"m 401 -21 q 149 75 232 -21 q 67 349 67 171 q 152 626 67 538 q 399 714 238 714 q 589 672 514 714 q 700 547 664 629 q 736 349 736 465 q 649 76 736 172 q 401 -21 563 -21 m 400 103 q 513 134 471 103 q 573 221 554 165 q 592 349 592 276 q 572 483 592 429 q 511 565 553 538 q 400 592 469 592 q 289 563 331 592 q 229 479 247 533 q 211 349 211 425 q 254 168 211 233 q 400 103 297 103 z "},"ó":{"ha":803,"x_min":67,"x_max":736,"o":"m 401 -21 q 149 75 232 -21 q 67 349 67 171 q 152 626 67 538 q 399 714 238 714 q 589 672 514 714 q 700 547 664 629 q 736 349 736 465 q 649 76 736 172 q 401 -21 563 -21 m 400 103 q 513 134 471 103 q 573 221 554 165 q 592 349 592 276 q 572 483 592 429 q 511 565 553 538 q 400 592 469 592 q 289 563 331 592 q 229 479 247 533 q 211 349 211 425 q 254 168 211 233 q 400 103 297 103 z "},"ŏ":{"ha":803,"x_min":67,"x_max":736,"o":"m 401 -21 q 149 75 232 -21 q 67 349 67 171 q 152 626 67 538 q 399 714 238 714 q 589 672 514 714 q 700 547 664 629 q 736 349 736 465 q 649 76 736 172 q 401 -21 563 -21 m 400 103 q 513 134 471 103 q 573 221 554 165 q 592 349 592 276 q 572 483 592 429 q 511 565 553 538 q 400 592 469 592 q 289 563 331 592 q 229 479 247 533 q 211 349 211 425 q 254 168 211 233 q 400 103 297 103 z "},"ǒ":{"ha":803,"x_min":67,"x_max":736,"o":"m 401 -21 q 149 75 232 -21 q 67 349 67 171 q 152 626 67 538 q 399 714 238 714 q 589 672 514 714 q 700 547 664 629 q 736 349 736 465 q 649 76 736 172 q 401 -21 563 -21 m 400 103 q 513 134 471 103 q 573 221 554 165 q 592 349 592 276 q 572 483 592 429 q 511 565 553 538 q 400 592 469 592 q 289 563 331 592 q 229 479 247 533 q 211 349 211 425 q 254 168 211 233 q 400 103 297 103 z "},"ô":{"ha":803,"x_min":67,"x_max":736,"o":"m 401 -21 q 149 75 232 -21 q 67 349 67 171 q 152 626 67 538 q 399 714 238 714 q 589 672 514 714 q 700 547 664 629 q 736 349 736 465 q 649 76 736 172 q 401 -21 563 -21 m 400 103 q 513 134 471 103 q 573 221 554 165 q 592 349 592 276 q 572 483 592 429 q 511 565 553 538 q 400 592 469 592 q 289 563 331 592 q 229 479 247 533 q 211 349 211 425 q 254 168 211 233 q 400 103 297 103 z "},"ố":{"ha":803,"x_min":67,"x_max":763,"o":"m 401 -21 q 149 75 232 -21 q 67 349 67 171 q 152 626 67 538 q 399 714 238 714 q 589 672 514 714 q 700 547 664 629 q 736 349 736 465 q 649 76 736 172 q 401 -21 563 -21 m 400 103 q 513 134 471 103 q 573 221 554 165 q 592 349 592 276 q 572 483 592 429 q 511 565 553 538 q 400 592 469 592 q 289 563 331 592 q 229 479 247 533 q 211 349 211 425 q 254 168 211 233 q 400 103 297 103 z "},"ộ":{"ha":803,"x_min":67,"x_max":736,"o":"m 401 -21 q 149 75 232 -21 q 67 349 67 171 q 152 626 67 538 q 399 714 238 714 q 589 672 514 714 q 700 547 664 629 q 736 349 736 465 q 649 76 736 172 q 401 -21 563 -21 m 400 103 q 513 134 471 103 q 573 221 554 165 q 592 349 592 276 q 572 483 592 429 q 511 565 553 538 q 400 592 469 592 q 289 563 331 592 q 229 479 247 533 q 211 349 211 425 q 254 168 211 233 q 400 103 297 103 m 340 -192 l 340 -69 l 467 -69 l 467 -192 l 340 -192 z "},"ồ":{"ha":803,"x_min":32,"x_max":736,"o":"m 401 -21 q 149 75 232 -21 q 67 349 67 171 q 152 626 67 538 q 399 714 238 714 q 589 672 514 714 q 700 547 664 629 q 736 349 736 465 q 649 76 736 172 q 401 -21 563 -21 m 400 103 q 513 134 471 103 q 573 221 554 165 q 592 349 592 276 q 572 483 592 429 q 511 565 553 538 q 400 592 469 592 q 289 563 331 592 q 229 479 247 533 q 211 349 211 425 q 254 168 211 233 q 400 103 297 103 z "},"ổ":{"ha":803,"x_min":67,"x_max":736,"o":"m 401 -21 q 149 75 232 -21 q 67 349 67 171 q 152 626 67 538 q 399 714 238 714 q 589 672 514 714 q 700 547 664 629 q 736 349 736 465 q 649 76 736 172 q 401 -21 563 -21 m 400 103 q 513 134 471 103 q 573 221 554 165 q 592 349 592 276 q 572 483 592 429 q 511 565 553 538 q 400 592 469 592 q 289 563 331 592 q 229 479 247 533 q 211 349 211 425 q 254 168 211 233 q 400 103 297 103 z "},"ỗ":{"ha":803,"x_min":67,"x_max":736,"o":"m 401 -21 q 149 75 232 -21 q 67 349 67 171 q 152 626 67 538 q 399 714 238 714 q 589 672 514 714 q 700 547 664 629 q 736 349 736 465 q 649 76 736 172 q 401 -21 563 -21 m 400 103 q 513 134 471 103 q 573 221 554 165 q 592 349 592 276 q 572 483 592 429 q 511 565 553 538 q 400 592 469 592 q 289 563 331 592 q 229 479 247 533 q 211 349 211 425 q 254 168 211 233 q 400 103 297 103 z "},"ȍ":{"ha":803,"x_min":67,"x_max":736,"o":"m 401 -21 q 149 75 232 -21 q 67 349 67 171 q 152 626 67 538 q 399 714 238 714 q 589 672 514 714 q 700 547 664 629 q 736 349 736 465 q 649 76 736 172 q 401 -21 563 -21 m 400 103 q 513 134 471 103 q 573 221 554 165 q 592 349 592 276 q 572 483 592 429 q 511 565 553 538 q 400 592 469 592 q 289 563 331 592 q 229 479 247 533 q 211 349 211 425 q 254 168 211 233 q 400 103 297 103 z "},"ö":{"ha":803,"x_min":67,"x_max":736,"o":"m 401 -21 q 149 75 232 -21 q 67 349 67 171 q 152 626 67 538 q 399 714 238 714 q 589 672 514 714 q 700 547 664 629 q 736 349 736 465 q 649 76 736 172 q 401 -21 563 -21 m 400 103 q 513 134 471 103 q 573 221 554 165 q 592 349 592 276 q 572 483 592 429 q 511 565 553 538 q 400 592 469 592 q 289 563 331 592 q 229 479 247 533 q 211 349 211 425 q 254 168 211 233 q 400 103 297 103 z "},"ȫ":{"ha":803,"x_min":67,"x_max":736,"o":"m 401 -21 q 149 75 232 -21 q 67 349 67 171 q 152 626 67 538 q 399 714 238 714 q 589 672 514 714 q 700 547 664 629 q 736 349 736 465 q 649 76 736 172 q 401 -21 563 -21 m 400 103 q 513 134 471 103 q 573 221 554 165 q 592 349 592 276 q 572 483 592 429 q 511 565 553 538 q 400 592 469 592 q 289 563 331 592 q 229 479 247 533 q 211 349 211 425 q 254 168 211 233 q 400 103 297 103 z "},"ȱ":{"ha":803,"x_min":67,"x_max":736,"o":"m 401 -21 q 149 75 232 -21 q 67 349 67 171 q 152 626 67 538 q 399 714 238 714 q 589 672 514 714 q 700 547 664 629 q 736 349 736 465 q 649 76 736 172 q 401 -21 563 -21 m 400 103 q 513 134 471 103 q 573 221 554 165 q 592 349 592 276 q 572 483 592 429 q 511 565 553 538 q 400 592 469 592 q 289 563 331 592 q 229 479 247 533 q 211 349 211 425 q 254 168 211 233 q 400 103 297 103 z "},"ọ":{"ha":803,"x_min":67,"x_max":736,"o":"m 401 -21 q 149 75 232 -21 q 67 349 67 171 q 152 626 67 538 q 399 714 238 714 q 589 672 514 714 q 700 547 664 629 q 736 349 736 465 q 649 76 736 172 q 401 -21 563 -21 m 400 103 q 513 134 471 103 q 573 221 554 165 q 592 349 592 276 q 572 483 592 429 q 511 565 553 538 q 400 592 469 592 q 289 563 331 592 q 229 479 247 533 q 211 349 211 425 q 254 168 211 233 q 400 103 297 103 m 340 -192 l 340 -69 l 467 -69 l 467 -192 l 340 -192 z "},"ò":{"ha":803,"x_min":67,"x_max":736,"o":"m 401 -21 q 149 75 232 -21 q 67 349 67 171 q 152 626 67 538 q 399 714 238 714 q 589 672 514 714 q 700 547 664 629 q 736 349 736 465 q 649 76 736 172 q 401 -21 563 -21 m 400 103 q 513 134 471 103 q 573 221 554 165 q 592 349 592 276 q 572 483 592 429 q 511 565 553 538 q 400 592 469 592 q 289 563 331 592 q 229 479 247 533 q 211 349 211 425 q 254 168 211 233 q 400 103 297 103 z "},"ỏ":{"ha":803,"x_min":67,"x_max":736,"o":"m 401 -21 q 149 75 232 -21 q 67 349 67 171 q 152 626 67 538 q 399 714 238 714 q 589 672 514 714 q 700 547 664 629 q 736 349 736 465 q 649 76 736 172 q 401 -21 563 -21 m 400 103 q 513 134 471 103 q 573 221 554 165 q 592 349 592 276 q 572 483 592 429 q 511 565 553 538 q 400 592 469 592 q 289 563 331 592 q 229 479 247 533 q 211 349 211 425 q 254 168 211 233 q 400 103 297 103 m 365 782 l 365 857 q 404 868 392 857 q 417 890 417 879 q 400 917 417 908 q 353 925 383 925 q 334 924 344 925 q 314 921 324 924 l 314 990 q 340 994 325 993 q 374 994 354 994 q 440 985 408 994 q 493 955 472 976 q 514 894 514 933 q 494 842 514 864 q 438 814 475 819 l 438 782 l 365 782 z "},"ơ":{"ha":803,"x_min":67,"x_max":736,"o":"m 401 -21 q 149 75 232 -21 q 67 349 67 171 q 152 626 67 538 q 399 714 238 714 q 589 672 514 714 q 700 547 664 629 q 736 349 736 465 q 649 76 736 172 q 401 -21 563 -21 m 400 103 q 513 134 471 103 q 573 221 554 165 q 592 349 592 276 q 572 483 592 429 q 511 565 553 538 q 400 592 469 592 q 289 563 331 592 q 229 479 247 533 q 211 349 211 425 q 254 168 211 233 q 400 103 297 103 m 519 606 l 517 696 q 588 719 557 696 q 619 778 619 742 l 619 821 l 715 821 l 715 765 q 688 678 715 714 q 617 625 661 643 q 519 606 574 607 z "},"ớ":{"ha":803,"x_min":67,"x_max":736,"o":"m 401 -21 q 149 75 232 -21 q 67 349 67 171 q 152 626 67 538 q 399 714 238 714 q 589 672 514 714 q 700 547 664 629 q 736 349 736 465 q 649 76 736 172 q 401 -21 563 -21 m 400 103 q 513 134 471 103 q 573 221 554 165 q 592 349 592 276 q 572 483 592 429 q 511 565 553 538 q 400 592 469 592 q 289 563 331 592 q 229 479 247 533 q 211 349 211 425 q 254 168 211 233 q 400 103 297 103 m 519 606 l 517 696 q 588 719 557 696 q 619 778 619 742 l 619 821 l 715 821 l 715 765 q 688 678 715 714 q 617 625 661 643 q 519 606 574 607 z "},"ợ":{"ha":803,"x_min":67,"x_max":736,"o":"m 401 -21 q 149 75 232 -21 q 67 349 67 171 q 152 626 67 538 q 399 714 238 714 q 589 672 514 714 q 700 547 664 629 q 736 349 736 465 q 649 76 736 172 q 401 -21 563 -21 m 400 103 q 513 134 471 103 q 573 221 554 165 q 592 349 592 276 q 572 483 592 429 q 511 565 553 538 q 400 592 469 592 q 289 563 331 592 q 229 479 247 533 q 211 349 211 425 q 254 168 211 233 q 400 103 297 103 m 519 606 l 517 696 q 588 719 557 696 q 619 778 619 742 l 619 821 l 715 821 l 715 765 q 688 678 715 714 q 617 625 661 643 q 519 606 574 607 m 340 -192 l 340 -69 l 467 -69 l 467 -192 l 340 -192 z "},"ờ":{"ha":803,"x_min":67,"x_max":736,"o":"m 401 -21 q 149 75 232 -21 q 67 349 67 171 q 152 626 67 538 q 399 714 238 714 q 589 672 514 714 q 700 547 664 629 q 736 349 736 465 q 649 76 736 172 q 401 -21 563 -21 m 400 103 q 513 134 471 103 q 573 221 554 165 q 592 349 592 276 q 572 483 592 429 q 511 565 553 538 q 400 592 469 592 q 289 563 331 592 q 229 479 247 533 q 211 349 211 425 q 254 168 211 233 q 400 103 297 103 m 519 606 l 517 696 q 588 719 557 696 q 619 778 619 742 l 619 821 l 715 821 l 715 765 q 688 678 715 714 q 617 625 661 643 q 519 606 574 607 z "},"ở":{"ha":803,"x_min":67,"x_max":736,"o":"m 401 -21 q 149 75 232 -21 q 67 349 67 171 q 152 626 67 538 q 399 714 238 714 q 589 672 514 714 q 700 547 664 629 q 736 349 736 465 q 649 76 736 172 q 401 -21 563 -21 m 400 103 q 513 134 471 103 q 573 221 554 165 q 592 349 592 276 q 572 483 592 429 q 511 565 553 538 q 400 592 469 592 q 289 563 331 592 q 229 479 247 533 q 211 349 211 425 q 254 168 211 233 q 400 103 297 103 m 519 606 l 517 696 q 588 719 557 696 q 619 778 619 742 l 619 821 l 715 821 l 715 765 q 688 678 715 714 q 617 625 661 643 q 519 606 574 607 m 365 782 l 365 857 q 404 868 392 857 q 417 890 417 879 q 400 917 417 908 q 353 925 383 925 q 334 924 344 925 q 314 921 324 924 l 314 990 q 340 994 325 993 q 374 994 354 994 q 440 985 408 994 q 493 955 472 976 q 514 894 514 933 q 494 842 514 864 q 438 814 475 819 l 438 782 l 365 782 z "},"ỡ":{"ha":803,"x_min":67,"x_max":736,"o":"m 401 -21 q 149 75 232 -21 q 67 349 67 171 q 152 626 67 538 q 399 714 238 714 q 589 672 514 714 q 700 547 664 629 q 736 349 736 465 q 649 76 736 172 q 401 -21 563 -21 m 400 103 q 513 134 471 103 q 573 221 554 165 q 592 349 592 276 q 572 483 592 429 q 511 565 553 538 q 400 592 469 592 q 289 563 331 592 q 229 479 247 533 q 211 349 211 425 q 254 168 211 233 q 400 103 297 103 m 519 606 l 517 696 q 588 719 557 696 q 619 778 619 742 l 619 821 l 715 821 l 715 765 q 688 678 715 714 q 617 625 661 643 q 519 606 574 607 z "},"ő":{"ha":803,"x_min":67,"x_max":736,"o":"m 401 -21 q 149 75 232 -21 q 67 349 67 171 q 152 626 67 538 q 399 714 238 714 q 589 672 514 714 q 700 547 664 629 q 736 349 736 465 q 649 76 736 172 q 401 -21 563 -21 m 400 103 q 513 134 471 103 q 573 221 554 165 q 592 349 592 276 q 572 483 592 429 q 511 565 553 538 q 400 592 469 592 q 289 563 331 592 q 229 479 247 533 q 211 349 211 425 q 254 168 211 233 q 400 103 297 103 z "},"ȏ":{"ha":803,"x_min":67,"x_max":736,"o":"m 401 -21 q 149 75 232 -21 q 67 349 67 171 q 152 626 67 538 q 399 714 238 714 q 589 672 514 714 q 700 547 664 629 q 736 349 736 465 q 649 76 736 172 q 401 -21 563 -21 m 400 103 q 513 134 471 103 q 573 221 554 165 q 592 349 592 276 q 572 483 592 429 q 511 565 553 538 q 400 592 469 592 q 289 563 331 592 q 229 479 247 533 q 211 349 211 425 q 254 168 211 233 q 400 103 297 103 z "},"ō":{"ha":803,"x_min":67,"x_max":736,"o":"m 401 -21 q 149 75 232 -21 q 67 349 67 171 q 152 626 67 538 q 399 714 238 714 q 589 672 514 714 q 700 547 664 629 q 736 349 736 465 q 649 76 736 172 q 401 -21 563 -21 m 400 103 q 513 134 471 103 q 573 221 554 165 q 592 349 592 276 q 572 483 592 429 q 511 565 553 538 q 400 592 469 592 q 289 563 331 592 q 229 479 247 533 q 211 349 211 425 q 254 168 211 233 q 400 103 297 103 z "},"ṓ":{"ha":803,"x_min":67,"x_max":736,"o":"m 401 -21 q 149 75 232 -21 q 67 349 67 171 q 152 626 67 538 q 399 714 238 714 q 589 672 514 714 q 700 547 664 629 q 736 349 736 465 q 649 76 736 172 q 401 -21 563 -21 m 400 103 q 513 134 471 103 q 573 221 554 165 q 592 349 592 276 q 572 483 592 429 q 511 565 553 538 q 400 592 469 592 q 289 563 331 592 q 229 479 247 533 q 211 349 211 425 q 254 168 211 233 q 400 103 297 103 z "},"ṑ":{"ha":803,"x_min":67,"x_max":736,"o":"m 401 -21 q 149 75 232 -21 q 67 349 67 171 q 152 626 67 538 q 399 714 238 714 q 589 672 514 714 q 700 547 664 629 q 736 349 736 465 q 649 76 736 172 q 401 -21 563 -21 m 400 103 q 513 134 471 103 q 573 221 554 165 q 592 349 592 276 q 572 483 592 429 q 511 565 553 538 q 400 592 469 592 q 289 563 331 592 q 229 479 247 533 q 211 349 211 425 q 254 168 211 233 q 400 103 297 103 z "},"ǫ":{"ha":803,"x_min":67,"x_max":736,"o":"m 401 -21 q 149 75 232 -21 q 67 349 67 171 q 152 626 67 538 q 399 714 238 714 q 589 672 514 714 q 700 547 664 629 q 736 349 736 465 q 649 76 736 172 q 401 -21 563 -21 m 400 103 q 513 134 471 103 q 573 221 554 165 q 592 349 592 276 q 572 483 592 429 q 511 565 553 538 q 400 592 469 592 q 289 563 331 592 q 229 479 247 533 q 211 349 211 425 q 254 168 211 233 q 400 103 297 103 z "},"ø":{"ha":814,"x_min":40,"x_max":771,"o":"m 183 0 l 40 0 l 628 693 l 771 693 l 183 0 m 401 -21 q 149 75 232 -21 q 67 349 67 171 q 152 626 67 538 q 399 714 238 714 q 589 672 514 714 q 700 547 664 629 q 736 349 736 465 q 649 76 736 172 q 401 -21 563 -21 m 400 103 q 513 134 471 103 q 573 221 554 165 q 592 349 592 276 q 572 483 592 429 q 511 565 553 538 q 400 592 469 592 q 289 563 331 592 q 229 479 247 533 q 211 349 211 425 q 254 168 211 233 q 400 103 297 103 z "},"ǿ":{"ha":814,"x_min":40,"x_max":771,"o":"m 183 0 l 40 0 l 628 693 l 771 693 l 183 0 m 401 -21 q 149 75 232 -21 q 67 349 67 171 q 152 626 67 538 q 399 714 238 714 q 589 672 514 714 q 700 547 664 629 q 736 349 736 465 q 649 76 736 172 q 401 -21 563 -21 m 400 103 q 513 134 471 103 q 573 221 554 165 q 592 349 592 276 q 572 483 592 429 q 511 565 553 538 q 400 592 469 592 q 289 563 331 592 q 229 479 247 533 q 211 349 211 425 q 254 168 211 233 q 400 103 297 103 z "},"õ":{"ha":803,"x_min":67,"x_max":736,"o":"m 401 -21 q 149 75 232 -21 q 67 349 67 171 q 152 626 67 538 q 399 714 238 714 q 589 672 514 714 q 700 547 664 629 q 736 349 736 465 q 649 76 736 172 q 401 -21 563 -21 m 400 103 q 513 134 471 103 q 573 221 554 165 q 592 349 592 276 q 572 483 592 429 q 511 565 553 538 q 400 592 469 592 q 289 563 331 592 q 229 479 247 533 q 211 349 211 425 q 254 168 211 233 q 400 103 297 103 z "},"ṍ":{"ha":803,"x_min":67,"x_max":736,"o":"m 401 -21 q 149 75 232 -21 q 67 349 67 171 q 152 626 67 538 q 399 714 238 714 q 589 672 514 714 q 700 547 664 629 q 736 349 736 465 q 649 76 736 172 q 401 -21 563 -21 m 400 103 q 513 134 471 103 q 573 221 554 165 q 592 349 592 276 q 572 483 592 429 q 511 565 553 538 q 400 592 469 592 q 289 563 331 592 q 229 479 247 533 q 211 349 211 425 q 254 168 211 233 q 400 103 297 103 z "},"ṏ":{"ha":803,"x_min":67,"x_max":736,"o":"m 401 -21 q 149 75 232 -21 q 67 349 67 171 q 152 626 67 538 q 399 714 238 714 q 589 672 514 714 q 700 547 664 629 q 736 349 736 465 q 649 76 736 172 q 401 -21 563 -21 m 400 103 q 513 134 471 103 q 573 221 554 165 q 592 349 592 276 q 572 483 592 429 q 511 565 553 538 q 400 592 469 592 q 289 563 331 592 q 229 479 247 533 q 211 349 211 425 q 254 168 211 233 q 400 103 297 103 z "},"ȭ":{"ha":803,"x_min":67,"x_max":736,"o":"m 401 -21 q 149 75 232 -21 q 67 349 67 171 q 152 626 67 538 q 399 714 238 714 q 589 672 514 714 q 700 547 664 629 q 736 349 736 465 q 649 76 736 172 q 401 -21 563 -21 m 400 103 q 513 134 471 103 q 573 221 554 165 q 592 349 592 276 q 572 483 592 429 q 511 565 553 538 q 400 592 469 592 q 289 563 331 592 q 229 479 247 533 q 211 349 211 425 q 254 168 211 233 q 400 103 297 103 z "},"œ":{"ha":1297,"x_min":67,"x_max":1232,"o":"m 401 -21 q 149 75 232 -21 q 67 349 67 171 q 152 626 67 538 q 399 714 238 714 q 589 672 514 714 q 700 547 664 629 q 736 349 736 465 q 649 76 736 172 q 401 -21 563 -21 m 400 103 q 513 134 471 103 q 573 221 554 165 q 592 349 592 276 q 572 483 592 429 q 511 565 553 538 q 400 592 469 592 q 289 563 331 592 q 229 479 247 533 q 211 349 211 425 q 254 168 211 233 q 400 103 297 103 m 932 -21 q 753 21 829 -21 q 637 144 678 63 q 596 344 596 226 q 681 620 596 526 q 919 714 767 714 q 1101 664 1032 714 q 1202 524 1171 614 q 1232 315 1233 435 l 683 315 l 679 424 l 1121 424 l 1086 389 q 1042 545 1082 496 q 915 594 1001 594 q 821 572 860 594 q 762 494 782 549 q 742 343 742 439 q 796 166 742 226 q 956 106 850 106 q 1044 114 1003 106 q 1119 135 1085 122 q 1179 161 1154 149 l 1179 26 q 1069 -8 1131 6 q 932 -21 1008 -21 z "},"p":{"ha":808,"x_min":103,"x_max":743,"o":"m 421 -19 q 356 -13 394 -19 q 278 6 317 -7 q 210 42 239 19 l 247 89 l 247 -279 l 103 -279 l 103 563 q 130 635 103 606 q 201 681 157 664 q 299 706 246 699 q 406 714 353 714 q 575 679 499 714 q 697 562 651 644 q 743 336 743 479 q 706 148 743 228 q 596 24 668 68 q 421 -19 524 -19 m 394 103 q 506 131 461 103 q 572 211 550 158 q 594 339 594 264 q 578 465 594 408 q 521 555 563 522 q 401 588 479 588 q 290 573 332 588 q 247 531 247 558 l 247 143 q 321 113 283 124 q 394 103 358 103 z "},"þ":{"ha":806,"x_min":103,"x_max":740,"o":"m 247 -268 l 103 -268 l 103 961 l 247 961 l 247 -268 m 247 139 q 322 109 283 119 q 396 99 360 99 q 503 126 461 99 q 568 205 546 153 q 590 331 590 257 q 575 456 590 400 q 519 545 560 513 q 403 578 479 578 q 301 565 347 578 q 247 528 254 551 l 113 593 q 152 647 121 626 q 227 681 183 668 q 319 699 271 693 q 407 704 367 704 q 573 669 497 704 q 694 552 649 635 q 740 328 740 469 q 702 143 740 222 q 592 20 664 64 q 418 -24 521 -24 q 353 -17 392 -24 q 277 2 315 -11 q 210 38 239 15 l 247 139 z "},"q":{"ha":810,"x_min":67,"x_max":707,"o":"m 429 713 q 566 697 503 713 q 668 643 629 682 q 707 535 707 604 l 707 -287 l 563 -287 l 563 93 l 600 46 q 533 7 572 21 q 457 -13 494 -7 q 393 -19 419 -19 q 151 74 236 -19 q 67 333 67 168 q 97 522 67 447 q 178 638 126 596 q 294 696 229 679 q 429 713 358 713 m 422 586 q 294 553 339 586 q 232 464 249 521 q 215 339 215 407 q 239 211 215 264 q 307 131 263 158 q 414 103 351 103 q 489 113 451 103 q 563 143 526 124 l 563 517 q 541 557 563 542 q 488 579 519 572 q 422 586 456 586 z "},"r":{"ha":554,"x_min":103,"x_max":514,"o":"m 103 0 l 103 633 q 169 664 121 644 q 285 698 218 683 q 419 713 351 713 q 476 707 454 713 q 514 694 499 701 l 514 578 q 447 584 482 582 q 378 584 413 586 q 310 578 343 582 q 249 569 276 574 l 249 0 l 103 0 z "},"ŕ":{"ha":554,"x_min":103,"x_max":514,"o":"m 103 0 l 103 633 q 169 664 121 644 q 285 698 218 683 q 419 713 351 713 q 476 707 454 713 q 514 694 499 701 l 514 578 q 447 584 482 582 q 378 584 413 586 q 310 578 343 582 q 249 569 276 574 l 249 0 l 103 0 z "},"ř":{"ha":554,"x_min":99,"x_max":514,"o":"m 103 0 l 103 633 q 169 664 121 644 q 285 698 218 683 q 419 713 351 713 q 476 707 454 713 q 514 694 499 701 l 514 578 q 447 584 482 582 q 378 584 413 586 q 310 578 343 582 q 249 569 276 574 l 249 0 l 103 0 z "},"ŗ":{"ha":554,"x_min":64,"x_max":514,"o":"m 103 0 l 103 633 q 169 664 121 644 q 285 698 218 683 q 419 713 351 713 q 476 707 454 713 q 514 694 499 701 l 514 578 q 447 584 482 582 q 378 584 413 586 q 310 578 343 582 q 249 569 276 574 l 249 0 l 103 0 z "},"ȑ":{"ha":554,"x_min":15,"x_max":514,"o":"m 103 0 l 103 633 q 169 664 121 644 q 285 698 218 683 q 419 713 351 713 q 476 707 454 713 q 514 694 499 701 l 514 578 q 447 584 482 582 q 378 584 413 586 q 310 578 343 582 q 249 569 276 574 l 249 0 l 103 0 z "},"ȓ":{"ha":554,"x_min":65,"x_max":514,"o":"m 103 0 l 103 633 q 169 664 121 644 q 285 698 218 683 q 419 713 351 713 q 476 707 454 713 q 514 694 499 701 l 514 578 q 447 584 482 582 q 378 584 413 586 q 310 578 343 582 q 249 569 276 574 l 249 0 l 103 0 z "},"ṟ":{"ha":554,"x_min":-22,"x_max":514,"o":"m 103 0 l 103 633 q 169 664 121 644 q 285 698 218 683 q 419 713 351 713 q 476 707 454 713 q 514 694 499 701 l 514 578 q 447 584 482 582 q 378 584 413 586 q 310 578 343 582 q 249 569 276 574 l 249 0 l 103 0 z "},"s":{"ha":649,"x_min":74,"x_max":581,"o":"m 304 -21 q 177 -5 229 -21 q 75 35 125 11 l 75 172 q 146 133 111 150 q 219 106 181 115 q 304 96 257 96 q 398 121 364 96 q 432 183 432 146 q 410 233 432 215 q 356 264 389 251 q 286 289 322 276 q 211 312 249 299 q 142 348 174 325 q 92 407 111 371 q 74 496 74 443 q 97 595 74 554 q 159 662 121 636 q 244 699 197 688 q 335 711 290 711 q 455 693 408 710 q 546 653 501 676 l 547 528 q 453 574 497 554 q 350 593 408 593 q 260 573 296 593 q 224 514 224 553 q 244 461 224 481 q 297 431 264 442 q 367 408 329 419 q 439 385 401 397 q 508 351 476 374 q 560 293 540 329 q 581 199 581 257 q 540 72 579 121 q 436 1 500 24 q 304 -21 372 -21 z "},"ś":{"ha":649,"x_min":74,"x_max":581,"o":"m 304 -21 q 177 -5 229 -21 q 75 35 125 11 l 75 172 q 146 133 111 150 q 219 106 181 115 q 304 96 257 96 q 398 121 364 96 q 432 183 432 146 q 410 233 432 215 q 356 264 389 251 q 286 289 322 276 q 211 312 249 299 q 142 348 174 325 q 92 407 111 371 q 74 496 74 443 q 97 595 74 554 q 159 662 121 636 q 244 699 197 688 q 335 711 290 711 q 455 693 408 710 q 546 653 501 676 l 547 528 q 453 574 497 554 q 350 593 408 593 q 260 573 296 593 q 224 514 224 553 q 244 461 224 481 q 297 431 264 442 q 367 408 329 419 q 439 385 401 397 q 508 351 476 374 q 560 293 540 329 q 581 199 581 257 q 540 72 579 121 q 436 1 500 24 q 304 -21 372 -21 z "},"ṥ":{"ha":649,"x_min":74,"x_max":581,"o":"m 304 -21 q 177 -5 229 -21 q 75 35 125 11 l 75 172 q 146 133 111 150 q 219 106 181 115 q 304 96 257 96 q 398 121 364 96 q 432 183 432 146 q 410 233 432 215 q 356 264 389 251 q 286 289 322 276 q 211 312 249 299 q 142 348 174 325 q 92 407 111 371 q 74 496 74 443 q 97 595 74 554 q 159 662 121 636 q 244 699 197 688 q 335 711 290 711 q 455 693 408 710 q 546 653 501 676 l 547 528 q 453 574 497 554 q 350 593 408 593 q 260 573 296 593 q 224 514 224 553 q 244 461 224 481 q 297 431 264 442 q 367 408 329 419 q 439 385 401 397 q 508 351 476 374 q 560 293 540 329 q 581 199 581 257 q 540 72 579 121 q 436 1 500 24 q 304 -21 372 -21 z "},"š":{"ha":649,"x_min":74,"x_max":581,"o":"m 304 -21 q 177 -5 229 -21 q 75 35 125 11 l 75 172 q 146 133 111 150 q 219 106 181 115 q 304 96 257 96 q 398 121 364 96 q 432 183 432 146 q 410 233 432 215 q 356 264 389 251 q 286 289 322 276 q 211 312 249 299 q 142 348 174 325 q 92 407 111 371 q 74 496 74 443 q 97 595 74 554 q 159 662 121 636 q 244 699 197 688 q 335 711 290 711 q 455 693 408 710 q 546 653 501 676 l 547 528 q 453 574 497 554 q 350 593 408 593 q 260 573 296 593 q 224 514 224 553 q 244 461 224 481 q 297 431 264 442 q 367 408 329 419 q 439 385 401 397 q 508 351 476 374 q 560 293 540 329 q 581 199 581 257 q 540 72 579 121 q 436 1 500 24 q 304 -21 372 -21 z "},"ṧ":{"ha":649,"x_min":74,"x_max":581,"o":"m 304 -21 q 177 -5 229 -21 q 75 35 125 11 l 75 172 q 146 133 111 150 q 219 106 181 115 q 304 96 257 96 q 398 121 364 96 q 432 183 432 146 q 410 233 432 215 q 356 264 389 251 q 286 289 322 276 q 211 312 249 299 q 142 348 174 325 q 92 407 111 371 q 74 496 74 443 q 97 595 74 554 q 159 662 121 636 q 244 699 197 688 q 335 711 290 711 q 455 693 408 710 q 546 653 501 676 l 547 528 q 453 574 497 554 q 350 593 408 593 q 260 573 296 593 q 224 514 224 553 q 244 461 224 481 q 297 431 264 442 q 367 408 329 419 q 439 385 401 397 q 508 351 476 374 q 560 293 540 329 q 581 199 581 257 q 540 72 579 121 q 436 1 500 24 q 304 -21 372 -21 z "},"ş":{"ha":649,"x_min":74,"x_max":581,"o":"m 304 -21 q 177 -5 229 -21 q 75 35 125 11 l 75 172 q 146 133 111 150 q 219 106 181 115 q 304 96 257 96 q 398 121 364 96 q 432 183 432 146 q 410 233 432 215 q 356 264 389 251 q 286 289 322 276 q 211 312 249 299 q 142 348 174 325 q 92 407 111 371 q 74 496 74 443 q 97 595 74 554 q 159 662 121 636 q 244 699 197 688 q 335 711 290 711 q 455 693 408 710 q 546 653 501 676 l 547 528 q 453 574 497 554 q 350 593 408 593 q 260 573 296 593 q 224 514 224 553 q 244 461 224 481 q 297 431 264 442 q 367 408 329 419 q 439 385 401 397 q 508 351 476 374 q 560 293 540 329 q 581 199 581 257 q 540 72 579 121 q 436 1 500 24 q 304 -21 372 -21 z "},"ŝ":{"ha":649,"x_min":74,"x_max":581,"o":"m 304 -21 q 177 -5 229 -21 q 75 35 125 11 l 75 172 q 146 133 111 150 q 219 106 181 115 q 304 96 257 96 q 398 121 364 96 q 432 183 432 146 q 410 233 432 215 q 356 264 389 251 q 286 289 322 276 q 211 312 249 299 q 142 348 174 325 q 92 407 111 371 q 74 496 74 443 q 97 595 74 554 q 159 662 121 636 q 244 699 197 688 q 335 711 290 711 q 455 693 408 710 q 546 653 501 676 l 547 528 q 453 574 497 554 q 350 593 408 593 q 260 573 296 593 q 224 514 224 553 q 244 461 224 481 q 297 431 264 442 q 367 408 329 419 q 439 385 401 397 q 508 351 476 374 q 560 293 540 329 q 581 199 581 257 q 540 72 579 121 q 436 1 500 24 q 304 -21 372 -21 z "},"ș":{"ha":649,"x_min":74,"x_max":581,"o":"m 304 -21 q 177 -5 229 -21 q 75 35 125 11 l 75 172 q 146 133 111 150 q 219 106 181 115 q 304 96 257 96 q 398 121 364 96 q 432 183 432 146 q 410 233 432 215 q 356 264 389 251 q 286 289 322 276 q 211 312 249 299 q 142 348 174 325 q 92 407 111 371 q 74 496 74 443 q 97 595 74 554 q 159 662 121 636 q 244 699 197 688 q 335 711 290 711 q 455 693 408 710 q 546 653 501 676 l 547 528 q 453 574 497 554 q 350 593 408 593 q 260 573 296 593 q 224 514 224 553 q 244 461 224 481 q 297 431 264 442 q 367 408 329 419 q 439 385 401 397 q 508 351 476 374 q 560 293 540 329 q 581 199 581 257 q 540 72 579 121 q 436 1 500 24 q 304 -21 372 -21 z "},"ṡ":{"ha":649,"x_min":74,"x_max":581,"o":"m 304 -21 q 177 -5 229 -21 q 75 35 125 11 l 75 172 q 146 133 111 150 q 219 106 181 115 q 304 96 257 96 q 398 121 364 96 q 432 183 432 146 q 410 233 432 215 q 356 264 389 251 q 286 289 322 276 q 211 312 249 299 q 142 348 174 325 q 92 407 111 371 q 74 496 74 443 q 97 595 74 554 q 159 662 121 636 q 244 699 197 688 q 335 711 290 711 q 455 693 408 710 q 546 653 501 676 l 547 528 q 453 574 497 554 q 350 593 408 593 q 260 573 296 593 q 224 514 224 553 q 244 461 224 481 q 297 431 264 442 q 367 408 329 419 q 439 385 401 397 q 508 351 476 374 q 560 293 540 329 q 581 199 581 257 q 540 72 579 121 q 436 1 500 24 q 304 -21 372 -21 z "},"ṣ":{"ha":649,"x_min":74,"x_max":581,"o":"m 304 -21 q 177 -5 229 -21 q 75 35 125 11 l 75 172 q 146 133 111 150 q 219 106 181 115 q 304 96 257 96 q 398 121 364 96 q 432 183 432 146 q 410 233 432 215 q 356 264 389 251 q 286 289 322 276 q 211 312 249 299 q 142 348 174 325 q 92 407 111 371 q 74 496 74 443 q 97 595 74 554 q 159 662 121 636 q 244 699 197 688 q 335 711 290 711 q 455 693 408 710 q 546 653 501 676 l 547 528 q 453 574 497 554 q 350 593 408 593 q 260 573 296 593 q 224 514 224 553 q 244 461 224 481 q 297 431 264 442 q 367 408 329 419 q 439 385 401 397 q 508 351 476 374 q 560 293 540 329 q 581 199 581 257 q 540 72 579 121 q 436 1 500 24 q 304 -21 372 -21 m 229 -192 l 229 -69 l 356 -69 l 356 -192 l 229 -192 z "},"ṩ":{"ha":649,"x_min":74,"x_max":581,"o":"m 304 -21 q 177 -5 229 -21 q 75 35 125 11 l 75 172 q 146 133 111 150 q 219 106 181 115 q 304 96 257 96 q 398 121 364 96 q 432 183 432 146 q 410 233 432 215 q 356 264 389 251 q 286 289 322 276 q 211 312 249 299 q 142 348 174 325 q 92 407 111 371 q 74 496 74 443 q 97 595 74 554 q 159 662 121 636 q 244 699 197 688 q 335 711 290 711 q 455 693 408 710 q 546 653 501 676 l 547 528 q 453 574 497 554 q 350 593 408 593 q 260 573 296 593 q 224 514 224 553 q 244 461 224 481 q 297 431 264 442 q 367 408 329 419 q 439 385 401 397 q 508 351 476 374 q 560 293 540 329 q 581 199 581 257 q 540 72 579 121 q 436 1 500 24 q 304 -21 372 -21 m 229 -192 l 229 -69 l 356 -69 l 356 -192 l 229 -192 z "},"ß":{"ha":842,"x_min":103,"x_max":776,"o":"m 103 0 l 103 596 q 135 776 103 694 q 237 904 168 857 q 413 951 306 951 q 579 924 507 951 q 692 848 651 897 q 733 731 733 799 q 719 650 733 685 q 684 590 706 615 q 638 547 663 564 q 589 522 613 531 q 672 478 628 511 q 746 388 715 444 q 776 249 776 332 q 745 116 776 176 q 652 18 714 56 q 496 -19 590 -19 q 431 -15 465 -19 q 360 0 397 -10 l 360 129 q 426 107 394 114 q 485 100 458 100 q 590 140 553 100 q 628 256 628 179 q 597 357 628 317 q 521 417 567 397 q 426 439 475 438 l 426 560 q 545 599 507 560 q 583 701 583 638 q 561 773 583 746 q 502 814 539 800 q 419 828 465 828 q 290 768 332 828 q 249 603 249 708 l 249 0 l 103 0 z "},"t":{"ha":533,"x_min":35,"x_max":467,"o":"m 351 -18 q 202 32 257 -18 q 147 179 147 82 l 147 576 l 35 576 l 35 697 l 147 697 l 147 892 l 297 892 l 297 697 l 467 697 l 467 576 l 297 576 l 297 208 q 315 135 297 160 q 379 111 332 111 q 426 117 403 111 q 467 133 450 124 l 467 4 q 410 -12 442 -7 q 351 -18 379 -18 z "},"ŧ":{"ha":506,"x_min":33,"x_max":457,"o":"m 351 -11 q 282 -1 318 -11 q 215 31 246 8 q 165 94 185 53 q 146 199 146 136 l 146 326 l 51 326 l 51 425 l 146 425 l 146 581 l 33 581 l 33 693 l 146 693 l 146 892 l 288 892 l 288 693 l 457 693 l 457 581 l 288 581 l 288 425 l 436 425 l 436 326 l 288 326 l 288 185 q 307 125 288 144 q 371 106 326 106 q 416 112 394 106 q 457 128 438 118 l 457 11 q 406 -6 432 0 q 351 -11 379 -11 z "},"ť":{"ha":549,"x_min":35,"x_max":615,"o":"m 351 -18 q 202 32 257 -18 q 147 179 147 82 l 147 576 l 35 576 l 35 697 l 147 697 l 147 892 l 297 892 l 297 697 l 467 697 l 467 576 l 297 576 l 297 208 q 315 135 297 160 q 379 111 332 111 q 426 117 403 111 q 467 133 450 124 l 467 4 q 410 -12 442 -7 q 351 -18 379 -18 z "},"ţ":{"ha":533,"x_min":35,"x_max":467,"o":"m 351 -18 q 202 32 257 -18 q 147 179 147 82 l 147 576 l 35 576 l 35 697 l 147 697 l 147 892 l 297 892 l 297 697 l 467 697 l 467 576 l 297 576 l 297 208 q 315 135 297 160 q 379 111 332 111 q 426 117 403 111 q 467 133 450 124 l 467 4 q 410 -12 442 -7 q 351 -18 379 -18 z "},"ẗ":{"ha":533,"x_min":35,"x_max":467,"o":"m 351 -18 q 202 32 257 -18 q 147 179 147 82 l 147 576 l 35 576 l 35 697 l 147 697 l 147 892 l 297 892 l 297 697 l 467 697 l 467 576 l 297 576 l 297 208 q 315 135 297 160 q 379 111 332 111 q 426 117 403 111 q 467 133 450 124 l 467 4 q 410 -12 442 -7 q 351 -18 379 -18 z "},"ṭ":{"ha":533,"x_min":35,"x_max":467,"o":"m 351 -18 q 202 32 257 -18 q 147 179 147 82 l 147 576 l 35 576 l 35 697 l 147 697 l 147 892 l 297 892 l 297 697 l 467 697 l 467 576 l 297 576 l 297 208 q 315 135 297 160 q 379 111 332 111 q 426 117 403 111 q 467 133 450 124 l 467 4 q 410 -12 442 -7 q 351 -18 379 -18 m 196 -192 l 196 -69 l 322 -69 l 322 -192 l 196 -192 z "},"ṯ":{"ha":533,"x_min":35,"x_max":467,"o":"m 351 -18 q 202 32 257 -18 q 147 179 147 82 l 147 576 l 35 576 l 35 697 l 147 697 l 147 892 l 297 892 l 297 697 l 467 697 l 467 576 l 297 576 l 297 208 q 315 135 297 160 q 379 111 332 111 q 426 117 403 111 q 467 133 450 124 l 467 4 q 410 -12 442 -7 q 351 -18 379 -18 z "},"u":{"ha":817,"x_min":103,"x_max":714,"o":"m 411 -21 q 247 10 315 -21 q 140 104 178 42 q 103 260 103 167 l 103 697 l 249 697 l 249 281 q 288 149 249 192 q 411 107 328 107 q 534 149 494 107 q 574 281 574 192 l 574 697 l 714 697 l 714 260 q 634 50 714 121 q 411 -21 554 -21 z "},"ú":{"ha":817,"x_min":103,"x_max":714,"o":"m 411 -21 q 247 10 315 -21 q 140 104 178 42 q 103 260 103 167 l 103 697 l 249 697 l 249 281 q 288 149 249 192 q 411 107 328 107 q 534 149 494 107 q 574 281 574 192 l 574 697 l 714 697 l 714 260 q 634 50 714 121 q 411 -21 554 -21 z "},"ŭ":{"ha":817,"x_min":103,"x_max":714,"o":"m 411 -21 q 247 10 315 -21 q 140 104 178 42 q 103 260 103 167 l 103 697 l 249 697 l 249 281 q 288 149 249 192 q 411 107 328 107 q 534 149 494 107 q 574 281 574 192 l 574 697 l 714 697 l 714 260 q 634 50 714 121 q 411 -21 554 -21 z "},"ǔ":{"ha":817,"x_min":103,"x_max":714,"o":"m 411 -21 q 247 10 315 -21 q 140 104 178 42 q 103 260 103 167 l 103 697 l 249 697 l 249 281 q 288 149 249 192 q 411 107 328 107 q 534 149 494 107 q 574 281 574 192 l 574 697 l 714 697 l 714 260 q 634 50 714 121 q 411 -21 554 -21 z "},"û":{"ha":817,"x_min":103,"x_max":714,"o":"m 411 -21 q 247 10 315 -21 q 140 104 178 42 q 103 260 103 167 l 103 697 l 249 697 l 249 281 q 288 149 249 192 q 411 107 328 107 q 534 149 494 107 q 574 281 574 192 l 574 697 l 714 697 l 714 260 q 634 50 714 121 q 411 -21 554 -21 z "},"ȕ":{"ha":817,"x_min":103,"x_max":714,"o":"m 411 -21 q 247 10 315 -21 q 140 104 178 42 q 103 260 103 167 l 103 697 l 249 697 l 249 281 q 288 149 249 192 q 411 107 328 107 q 534 149 494 107 q 574 281 574 192 l 574 697 l 714 697 l 714 260 q 634 50 714 121 q 411 -21 554 -21 z "},"ü":{"ha":817,"x_min":103,"x_max":714,"o":"m 411 -21 q 247 10 315 -21 q 140 104 178 42 q 103 260 103 167 l 103 697 l 249 697 l 249 281 q 288 149 249 192 q 411 107 328 107 q 534 149 494 107 q 574 281 574 192 l 574 697 l 714 697 l 714 260 q 634 50 714 121 q 411 -21 554 -21 z "},"ụ":{"ha":829,"x_min":115,"x_max":714,"o":"m 414 -11 q 194 67 272 -11 q 115 297 115 146 l 115 693 l 257 693 l 257 282 q 295 150 257 193 q 414 107 333 107 q 535 150 497 107 q 572 282 572 193 l 572 693 l 714 693 l 714 297 q 635 67 714 146 q 414 -11 557 -11 m 351 -190 l 351 -68 l 478 -68 l 478 -190 l 351 -190 z "},"ù":{"ha":817,"x_min":103,"x_max":714,"o":"m 411 -21 q 247 10 315 -21 q 140 104 178 42 q 103 260 103 167 l 103 697 l 249 697 l 249 281 q 288 149 249 192 q 411 107 328 107 q 534 149 494 107 q 574 281 574 192 l 574 697 l 714 697 l 714 260 q 634 50 714 121 q 411 -21 554 -21 z "},"ủ":{"ha":829,"x_min":115,"x_max":714,"o":"m 414 -11 q 194 67 272 -11 q 115 297 115 146 l 115 693 l 257 693 l 257 282 q 295 150 257 193 q 414 107 333 107 q 535 150 497 107 q 572 282 572 193 l 572 693 l 714 693 l 714 297 q 635 67 714 146 q 414 -11 557 -11 m 389 781 l 389 856 q 424 865 413 856 q 436 885 436 874 q 420 911 436 903 q 378 919 404 919 q 358 919 368 919 q 339 915 347 918 l 339 979 q 363 983 349 982 q 390 985 378 985 q 450 976 421 985 q 498 946 479 967 q 517 889 517 925 q 506 850 517 865 q 479 825 496 835 q 446 813 463 815 l 446 781 l 389 781 z "},"ư":{"ha":847,"x_min":103,"x_max":839,"o":"m 411 -21 q 247 10 315 -21 q 140 104 178 42 q 103 260 103 167 l 103 697 l 249 697 l 249 281 q 288 149 249 192 q 411 107 328 107 q 534 149 494 107 q 574 281 574 192 l 574 697 l 714 697 l 714 260 q 634 50 714 121 q 411 -21 554 -21 m 643 606 l 640 696 q 712 719 681 696 q 743 778 743 742 l 743 821 l 839 821 l 839 765 q 812 678 839 714 q 741 625 785 643 q 643 606 697 607 z "},"ứ":{"ha":847,"x_min":103,"x_max":839,"o":"m 411 -21 q 247 10 315 -21 q 140 104 178 42 q 103 260 103 167 l 103 697 l 249 697 l 249 281 q 288 149 249 192 q 411 107 328 107 q 534 149 494 107 q 574 281 574 192 l 574 697 l 714 697 l 714 260 q 634 50 714 121 q 411 -21 554 -21 m 643 606 l 640 696 q 712 719 681 696 q 743 778 743 742 l 743 821 l 839 821 l 839 765 q 812 678 839 714 q 741 625 785 643 q 643 606 697 607 z "},"ự":{"ha":847,"x_min":103,"x_max":839,"o":"m 411 -21 q 247 10 315 -21 q 140 104 178 42 q 103 260 103 167 l 103 697 l 249 697 l 249 281 q 288 149 249 192 q 411 107 328 107 q 534 149 494 107 q 574 281 574 192 l 574 697 l 714 697 l 714 260 q 634 50 714 121 q 411 -21 554 -21 m 643 606 l 640 696 q 712 719 681 696 q 743 778 743 742 l 743 821 l 839 821 l 839 765 q 812 678 839 714 q 741 625 785 643 q 643 606 697 607 m 344 -192 l 344 -69 l 471 -69 l 471 -192 l 344 -192 z "},"ừ":{"ha":847,"x_min":103,"x_max":839,"o":"m 411 -21 q 247 10 315 -21 q 140 104 178 42 q 103 260 103 167 l 103 697 l 249 697 l 249 281 q 288 149 249 192 q 411 107 328 107 q 534 149 494 107 q 574 281 574 192 l 574 697 l 714 697 l 714 260 q 634 50 714 121 q 411 -21 554 -21 m 643 606 l 640 696 q 712 719 681 696 q 743 778 743 742 l 743 821 l 839 821 l 839 765 q 812 678 839 714 q 741 625 785 643 q 643 606 697 607 z "},"ử":{"ha":847,"x_min":103,"x_max":839,"o":"m 411 -21 q 247 10 315 -21 q 140 104 178 42 q 103 260 103 167 l 103 697 l 249 697 l 249 281 q 288 149 249 192 q 411 107 328 107 q 534 149 494 107 q 574 281 574 192 l 574 697 l 714 697 l 714 260 q 634 50 714 121 q 411 -21 554 -21 m 643 606 l 640 696 q 712 719 681 696 q 743 778 743 742 l 743 821 l 839 821 l 839 765 q 812 678 839 714 q 741 625 785 643 q 643 606 697 607 m 374 778 l 374 853 q 413 864 400 853 q 425 886 425 875 q 408 913 425 904 q 361 921 392 921 q 342 920 353 921 q 322 917 332 919 l 322 986 q 348 990 333 989 q 382 990 363 990 q 449 981 417 990 q 501 951 481 972 q 522 890 522 929 q 503 838 522 860 q 446 810 483 815 l 446 778 l 374 778 z "},"ữ":{"ha":847,"x_min":103,"x_max":839,"o":"m 411 -21 q 247 10 315 -21 q 140 104 178 42 q 103 260 103 167 l 103 697 l 249 697 l 249 281 q 288 149 249 192 q 411 107 328 107 q 534 149 494 107 q 574 281 574 192 l 574 697 l 714 697 l 714 260 q 634 50 714 121 q 411 -21 554 -21 m 643 606 l 640 696 q 712 719 681 696 q 743 778 743 742 l 743 821 l 839 821 l 839 765 q 812 678 839 714 q 741 625 785 643 q 643 606 697 607 z "},"ű":{"ha":817,"x_min":103,"x_max":714,"o":"m 411 -21 q 247 10 315 -21 q 140 104 178 42 q 103 260 103 167 l 103 697 l 249 697 l 249 281 q 288 149 249 192 q 411 107 328 107 q 534 149 494 107 q 574 281 574 192 l 574 697 l 714 697 l 714 260 q 634 50 714 121 q 411 -21 554 -21 z "},"ȗ":{"ha":817,"x_min":103,"x_max":714,"o":"m 411 -21 q 247 10 315 -21 q 140 104 178 42 q 103 260 103 167 l 103 697 l 249 697 l 249 281 q 288 149 249 192 q 411 107 328 107 q 534 149 494 107 q 574 281 574 192 l 574 697 l 714 697 l 714 260 q 634 50 714 121 q 411 -21 554 -21 z "},"ū":{"ha":817,"x_min":103,"x_max":714,"o":"m 411 -21 q 247 10 315 -21 q 140 104 178 42 q 103 260 103 167 l 103 697 l 249 697 l 249 281 q 288 149 249 192 q 411 107 328 107 q 534 149 494 107 q 574 281 574 192 l 574 697 l 714 697 l 714 260 q 634 50 714 121 q 411 -21 554 -21 z "},"ṻ":{"ha":817,"x_min":103,"x_max":714,"o":"m 411 -21 q 247 10 315 -21 q 140 104 178 42 q 103 260 103 167 l 103 697 l 249 697 l 249 281 q 288 149 249 192 q 411 107 328 107 q 534 149 494 107 q 574 281 574 192 l 574 697 l 714 697 l 714 260 q 634 50 714 121 q 411 -21 554 -21 z "},"ț":{"ha":506,"x_min":33,"x_max":457,"o":"m 351 -11 q 282 -1 318 -11 q 215 31 246 8 q 165 94 185 53 q 146 199 146 136 l 146 581 l 33 581 l 33 693 l 146 693 l 146 892 l 288 892 l 288 693 l 457 693 l 457 581 l 288 581 l 288 185 q 307 125 288 144 q 371 106 326 106 q 416 112 394 106 q 457 128 438 118 l 457 11 q 406 -6 432 0 q 351 -11 379 -11 m 213 -268 l 213 -189 q 249 -161 238 -181 q 265 -117 261 -142 q 268 -68 268 -92 l 365 -68 q 342 -174 365 -132 q 285 -240 319 -217 q 213 -268 250 -264 z "},"ų":{"ha":817,"x_min":103,"x_max":714,"o":"m 411 -21 q 247 10 315 -21 q 140 104 178 42 q 103 260 103 167 l 103 697 l 249 697 l 249 281 q 288 149 249 192 q 411 107 328 107 q 534 149 494 107 q 574 281 574 192 l 574 697 l 714 697 l 714 260 q 634 50 714 121 q 411 -21 554 -21 z "},"ů":{"ha":817,"x_min":103,"x_max":714,"o":"m 411 -21 q 247 10 315 -21 q 140 104 178 42 q 103 260 103 167 l 103 697 l 249 697 l 249 281 q 288 149 249 192 q 411 107 328 107 q 534 149 494 107 q 574 281 574 192 l 574 697 l 714 697 l 714 260 q 634 50 714 121 q 411 -21 554 -21 z "},"ũ":{"ha":817,"x_min":103,"x_max":714,"o":"m 411 -21 q 247 10 315 -21 q 140 104 178 42 q 103 260 103 167 l 103 697 l 249 697 l 249 281 q 288 149 249 192 q 411 107 328 107 q 534 149 494 107 q 574 281 574 192 l 574 697 l 714 697 l 714 260 q 634 50 714 121 q 411 -21 554 -21 z "},"ṹ":{"ha":817,"x_min":103,"x_max":714,"o":"m 411 -21 q 247 10 315 -21 q 140 104 178 42 q 103 260 103 167 l 103 697 l 249 697 l 249 281 q 288 149 249 192 q 411 107 328 107 q 534 149 494 107 q 574 281 574 192 l 574 697 l 714 697 l 714 260 q 634 50 714 121 q 411 -21 554 -21 z "},"v":{"ha":818,"x_min":43,"x_max":776,"o":"m 336 0 l 43 697 l 199 697 l 438 118 l 403 114 l 625 697 l 776 697 l 482 0 l 336 0 z "},"w":{"ha":1124,"x_min":43,"x_max":1082,"o":"m 275 0 l 43 697 l 199 697 l 375 101 l 332 93 l 501 697 l 622 697 l 790 110 l 756 110 l 932 697 l 1082 697 l 849 0 l 711 0 l 546 546 l 572 533 l 413 0 l 275 0 z "},"ẃ":{"ha":1124,"x_min":43,"x_max":1082,"o":"m 275 0 l 43 697 l 199 697 l 375 101 l 332 93 l 501 697 l 622 697 l 790 110 l 756 110 l 932 697 l 1082 697 l 849 0 l 711 0 l 546 546 l 572 533 l 413 0 l 275 0 z "},"ŵ":{"ha":1124,"x_min":43,"x_max":1082,"o":"m 275 0 l 43 697 l 199 697 l 375 101 l 332 93 l 501 697 l 622 697 l 790 110 l 756 110 l 932 697 l 1082 697 l 849 0 l 711 0 l 546 546 l 572 533 l 413 0 l 275 0 z "},"ẅ":{"ha":1124,"x_min":43,"x_max":1082,"o":"m 275 0 l 43 697 l 199 697 l 375 101 l 332 93 l 501 697 l 622 697 l 790 110 l 756 110 l 932 697 l 1082 697 l 849 0 l 711 0 l 546 546 l 572 533 l 413 0 l 275 0 z "},"ẁ":{"ha":1124,"x_min":43,"x_max":1082,"o":"m 275 0 l 43 697 l 199 697 l 375 101 l 332 93 l 501 697 l 622 697 l 790 110 l 756 110 l 932 697 l 1082 697 l 849 0 l 711 0 l 546 546 l 572 533 l 413 0 l 275 0 z "},"x":{"ha":775,"x_min":40,"x_max":733,"o":"m 411 293 l 199 0 l 40 0 l 336 392 l 411 293 m 731 0 l 553 0 l 47 697 l 224 697 l 731 0 m 358 399 l 574 697 l 733 697 l 429 293 l 358 399 z "},"y":{"ha":782,"x_min":43,"x_max":739,"o":"m 211 -269 q 161 -265 185 -269 q 119 -253 138 -260 l 119 -128 q 153 -137 136 -133 q 189 -142 169 -142 q 258 -119 231 -142 q 306 -56 286 -97 q 338 44 325 -14 l 340 -28 l 43 697 l 208 697 l 410 147 l 389 147 l 588 697 l 739 697 l 451 -43 q 376 -181 417 -132 q 294 -250 336 -231 q 211 -269 251 -269 z "},"ý":{"ha":782,"x_min":43,"x_max":739,"o":"m 211 -269 q 161 -265 185 -269 q 119 -253 138 -260 l 119 -128 q 153 -137 136 -133 q 189 -142 169 -142 q 258 -119 231 -142 q 306 -56 286 -97 q 338 44 325 -14 l 340 -28 l 43 697 l 208 697 l 410 147 l 389 147 l 588 697 l 739 697 l 451 -43 q 376 -181 417 -132 q 294 -250 336 -231 q 211 -269 251 -269 z "},"ŷ":{"ha":782,"x_min":43,"x_max":739,"o":"m 211 -269 q 161 -265 185 -269 q 119 -253 138 -260 l 119 -128 q 153 -137 136 -133 q 189 -142 169 -142 q 258 -119 231 -142 q 306 -56 286 -97 q 338 44 325 -14 l 340 -28 l 43 697 l 208 697 l 410 147 l 389 147 l 588 697 l 739 697 l 451 -43 q 376 -181 417 -132 q 294 -250 336 -231 q 211 -269 251 -269 z "},"ÿ":{"ha":782,"x_min":43,"x_max":739,"o":"m 211 -269 q 161 -265 185 -269 q 119 -253 138 -260 l 119 -128 q 153 -137 136 -133 q 189 -142 169 -142 q 258 -119 231 -142 q 306 -56 286 -97 q 338 44 325 -14 l 340 -28 l 43 697 l 208 697 l 410 147 l 389 147 l 588 697 l 739 697 l 451 -43 q 376 -181 417 -132 q 294 -250 336 -231 q 211 -269 251 -269 z "},"ẏ":{"ha":782,"x_min":43,"x_max":739,"o":"m 211 -269 q 161 -265 185 -269 q 119 -253 138 -260 l 119 -128 q 153 -137 136 -133 q 189 -142 169 -142 q 258 -119 231 -142 q 306 -56 286 -97 q 338 44 325 -14 l 340 -28 l 43 697 l 208 697 l 410 147 l 389 147 l 588 697 l 739 697 l 451 -43 q 376 -181 417 -132 q 294 -250 336 -231 q 211 -269 251 -269 z "},"ỵ":{"ha":782,"x_min":43,"x_max":739,"o":"m 211 -269 q 161 -265 185 -269 q 119 -253 138 -260 l 119 -128 q 153 -137 136 -133 q 189 -142 169 -142 q 258 -119 231 -142 q 306 -56 286 -97 q 338 44 325 -14 l 340 -28 l 43 697 l 208 697 l 410 147 l 389 147 l 588 697 l 739 697 l 451 -43 q 376 -181 417 -132 q 294 -250 336 -231 q 211 -269 251 -269 m 529 -192 l 529 -69 l 656 -69 l 656 -192 l 529 -192 z "},"ỳ":{"ha":782,"x_min":43,"x_max":739,"o":"m 211 -269 q 161 -265 185 -269 q 119 -253 138 -260 l 119 -128 q 153 -137 136 -133 q 189 -142 169 -142 q 258 -119 231 -142 q 306 -56 286 -97 q 338 44 325 -14 l 340 -28 l 43 697 l 208 697 l 410 147 l 389 147 l 588 697 l 739 697 l 451 -43 q 376 -181 417 -132 q 294 -250 336 -231 q 211 -269 251 -269 z "},"ỷ":{"ha":782,"x_min":43,"x_max":739,"o":"m 211 -269 q 161 -265 185 -269 q 119 -253 138 -260 l 119 -128 q 153 -137 136 -133 q 189 -142 169 -142 q 258 -119 231 -142 q 306 -56 286 -97 q 338 44 325 -14 l 340 -28 l 43 697 l 208 697 l 410 147 l 389 147 l 588 697 l 739 697 l 451 -43 q 376 -181 417 -132 q 294 -250 336 -231 q 211 -269 251 -269 m 357 769 l 357 844 q 396 856 383 844 q 408 878 408 867 q 392 904 408 896 q 344 913 375 913 q 326 912 336 913 q 306 908 315 911 l 306 978 q 331 981 317 981 q 365 982 346 982 q 432 973 400 982 q 485 942 464 964 q 506 882 506 921 q 486 829 506 851 q 429 801 467 807 l 429 769 l 357 769 z "},"ȳ":{"ha":782,"x_min":43,"x_max":739,"o":"m 211 -269 q 161 -265 185 -269 q 119 -253 138 -260 l 119 -128 q 153 -137 136 -133 q 189 -142 169 -142 q 258 -119 231 -142 q 306 -56 286 -97 q 338 44 325 -14 l 340 -28 l 43 697 l 208 697 l 410 147 l 389 147 l 588 697 l 739 697 l 451 -43 q 376 -181 417 -132 q 294 -250 336 -231 q 211 -269 251 -269 z "},"ỹ":{"ha":782,"x_min":43,"x_max":739,"o":"m 211 -269 q 161 -265 185 -269 q 119 -253 138 -260 l 119 -128 q 153 -137 136 -133 q 189 -142 169 -142 q 258 -119 231 -142 q 306 -56 286 -97 q 338 44 325 -14 l 340 -28 l 43 697 l 208 697 l 410 147 l 389 147 l 588 697 l 739 697 l 451 -43 q 376 -181 417 -132 q 294 -250 336 -231 q 211 -269 251 -269 z "},"z":{"ha":654,"x_min":63,"x_max":592,"o":"m 63 0 l 63 122 l 460 618 l 479 582 l 71 582 l 71 697 l 592 697 l 592 578 l 207 83 l 204 122 l 592 122 l 592 0 l 63 0 z "},"ź":{"ha":654,"x_min":63,"x_max":592,"o":"m 63 0 l 63 122 l 460 618 l 479 582 l 71 582 l 71 697 l 592 697 l 592 578 l 207 83 l 204 122 l 592 122 l 592 0 l 63 0 z "},"ž":{"ha":654,"x_min":63,"x_max":592,"o":"m 63 0 l 63 122 l 460 618 l 479 582 l 71 582 l 71 697 l 592 697 l 592 578 l 207 83 l 204 122 l 592 122 l 592 0 l 63 0 z "},"ż":{"ha":654,"x_min":63,"x_max":592,"o":"m 63 0 l 63 122 l 460 618 l 479 582 l 71 582 l 71 697 l 592 697 l 592 578 l 207 83 l 204 122 l 592 122 l 592 0 l 63 0 z "},"ﬁ":{"ha":872,"x_min":50,"x_max":769,"o":"m 161 0 l 161 576 l 50 576 l 50 697 l 163 697 l 163 725 q 178 847 163 799 q 221 925 194 896 q 279 969 247 954 q 344 988 311 983 q 406 992 376 992 q 447 989 426 992 q 483 982 468 986 l 483 853 q 458 865 471 860 q 424 869 444 869 q 382 866 403 869 q 344 849 361 863 q 318 810 328 836 q 308 738 308 783 l 308 697 l 483 697 l 483 576 l 307 576 l 307 0 l 161 0 m 618 0 l 618 693 l 764 693 l 765 0 l 618 0 m 614 808 l 614 940 l 769 940 l 769 808 l 614 808 z "},"ﬂ":{"ha":863,"x_min":50,"x_max":760,"o":"m 161 0 l 161 576 l 50 576 l 50 697 l 163 697 l 163 725 q 178 847 163 799 q 221 925 194 896 q 279 969 247 954 q 344 988 311 983 q 406 992 376 992 q 447 989 426 992 q 483 982 468 986 l 483 853 q 458 865 471 860 q 424 869 444 869 q 382 866 403 869 q 344 849 361 863 q 318 810 328 836 q 308 738 308 783 l 308 697 l 483 697 l 483 576 l 307 576 l 307 0 l 161 0 m 760 0 l 615 0 l 615 961 l 760 961 l 760 0 z "},"ª":{"ha":553,"x_min":101,"x_max":436,"o":"m 268 536 q 214 541 243 536 q 158 560 185 546 q 117 599 132 574 q 101 663 101 624 q 142 757 101 728 q 254 786 182 786 q 323 779 296 786 q 353 771 350 772 q 329 844 353 821 q 261 868 306 868 q 190 860 222 868 q 139 844 157 851 l 139 913 q 198 930 164 922 q 265 938 232 938 q 394 897 351 938 q 436 775 436 856 l 436 660 q 421 597 436 621 q 381 559 406 572 q 327 541 357 546 q 268 536 297 536 m 269 600 q 327 612 301 600 q 353 658 353 624 l 353 717 q 328 723 351 717 q 278 729 304 729 q 236 724 258 729 q 199 706 214 719 q 183 664 183 692 q 197 626 183 640 q 229 606 210 611 q 269 600 249 600 z "},"º":{"ha":582,"x_min":104,"x_max":469,"o":"m 288 540 q 199 558 242 540 q 131 619 157 575 q 104 739 104 663 q 131 860 104 817 q 199 922 157 904 q 288 939 242 939 q 376 922 335 939 q 443 860 417 904 q 469 739 469 817 q 443 619 469 663 q 376 558 417 575 q 288 540 335 540 m 288 606 q 366 638 342 606 q 390 739 390 669 q 366 842 390 810 q 288 874 342 874 q 208 842 233 874 q 183 739 183 810 q 208 638 183 669 q 288 606 233 606 z "},"π":{"ha":869,"x_min":47,"x_max":821,"o":"m 193 0 l 193 576 l 47 576 l 47 693 l 821 693 l 821 576 l 675 576 l 675 0 l 558 0 l 558 576 l 310 576 l 310 0 l 193 0 z "},"₀":{"ha":526,"x_min":53,"x_max":474,"o":"m 264 -217 q 105 -152 157 -217 q 53 39 53 -87 q 105 231 53 167 q 264 294 157 294 q 422 231 371 294 q 474 39 474 167 q 422 -152 474 -87 q 264 -217 371 -217 m 264 -126 q 305 -115 282 -126 q 345 -67 328 -103 q 363 39 363 -32 q 345 147 363 111 q 305 194 328 182 q 264 206 282 206 q 223 194 246 206 q 183 147 200 182 q 165 39 165 111 q 183 -67 165 -32 q 223 -115 200 -103 q 264 -126 246 -126 z "},"₁":{"ha":332,"x_min":58,"x_max":240,"o":"m 124 -207 l 124 214 l 143 163 l 58 111 l 58 231 l 154 292 l 240 292 l 240 -207 l 124 -207 z "},"₂":{"ha":460,"x_min":69,"x_max":400,"o":"m 69 -207 l 69 -144 q 135 -92 100 -122 q 203 -25 171 -61 q 255 49 235 11 q 275 126 275 88 q 251 178 275 158 q 192 199 228 199 q 126 185 156 199 q 74 154 96 171 l 74 256 q 136 285 100 272 q 215 297 172 297 q 322 276 282 297 q 378 221 361 254 q 394 153 394 188 q 365 48 394 100 q 290 -49 336 -4 q 196 -126 244 -94 l 182 -103 l 400 -103 l 400 -207 l 69 -207 z "},"₃":{"ha":454,"x_min":68,"x_max":400,"o":"m 207 -214 q 132 -203 167 -214 q 68 -179 97 -193 l 68 -82 q 126 -109 96 -97 q 192 -121 156 -121 q 255 -104 228 -121 q 282 -50 282 -87 q 256 -1 282 -18 q 190 15 229 15 l 136 15 l 136 97 l 192 97 q 237 111 217 97 q 257 157 257 125 q 235 190 257 178 q 183 203 214 203 q 126 195 153 203 q 81 176 100 188 l 81 268 q 135 289 106 281 q 200 297 165 297 q 294 279 256 297 q 355 231 333 261 q 376 163 376 201 q 362 107 376 129 q 331 74 347 85 q 308 63 314 64 q 347 40 325 54 q 385 1 369 26 q 400 -67 400 -25 q 387 -126 400 -99 q 349 -172 374 -153 q 288 -203 324 -192 q 207 -214 251 -214 z "},"₄":{"ha":461,"x_min":39,"x_max":424,"o":"m 243 -207 l 243 -87 l 39 -87 l 39 6 l 269 292 l 356 292 l 356 3 l 424 3 l 424 -87 l 356 -87 l 356 -207 l 243 -207 m 140 3 l 243 3 l 243 186 l 299 199 l 140 3 z "},"₅":{"ha":446,"x_min":72,"x_max":401,"o":"m 232 -212 q 147 -203 183 -212 q 83 -182 110 -194 l 83 -85 q 135 -108 103 -96 q 201 -119 167 -119 q 262 -104 240 -119 q 283 -56 283 -89 q 270 -6 283 -22 q 236 16 257 10 q 196 22 215 22 q 143 12 165 22 q 117 0 121 1 l 72 58 l 99 292 l 369 292 l 369 196 l 183 196 l 172 99 q 207 106 189 103 q 254 108 225 108 q 319 95 285 108 q 377 48 353 82 q 401 -49 401 14 q 377 -149 401 -114 q 314 -199 353 -185 q 232 -212 275 -212 z "},"₆":{"ha":474,"x_min":31,"x_max":428,"o":"m 249 -214 q 80 -154 129 -214 q 31 21 31 -94 q 56 170 31 115 q 124 253 82 225 q 213 289 165 281 q 303 297 261 297 q 347 294 325 297 q 383 286 368 290 l 383 197 q 346 207 364 204 q 310 210 328 210 q 269 205 293 210 q 219 187 244 200 q 175 147 193 174 q 151 78 157 121 q 192 101 165 89 q 268 114 219 114 q 383 74 338 114 q 428 -42 428 33 q 410 -124 428 -85 q 352 -189 392 -164 q 249 -214 313 -214 m 235 -129 q 290 -106 274 -129 q 307 -46 307 -82 q 285 10 307 -11 q 233 31 264 31 q 181 15 203 31 q 150 -12 160 0 q 165 -84 151 -58 q 199 -119 179 -110 q 235 -129 218 -129 z "},"₇":{"ha":440,"x_min":54,"x_max":404,"o":"m 96 -207 l 307 267 l 358 188 l 54 188 l 54 292 l 404 292 l 404 231 l 214 -207 l 96 -207 z "},"₈":{"ha":465,"x_min":44,"x_max":422,"o":"m 233 -214 q 124 -192 165 -214 q 63 -135 82 -171 q 44 -60 44 -99 q 64 8 44 -18 q 105 47 83 33 q 133 61 126 60 q 110 74 128 63 q 78 108 93 86 q 63 167 63 131 q 79 231 63 201 q 134 278 96 260 q 233 297 172 297 q 333 278 296 297 q 386 231 369 260 q 403 167 403 201 q 388 108 403 131 q 357 74 374 85 q 335 61 340 63 q 364 47 343 60 q 403 8 385 33 q 422 -60 422 -18 q 403 -135 422 -99 q 343 -192 385 -171 q 233 -214 301 -214 m 233 -126 q 289 -105 274 -126 q 304 -56 304 -83 q 283 0 304 -19 q 233 19 263 19 q 183 0 203 19 q 163 -56 163 -19 q 181 -105 163 -83 q 233 -126 200 -126 m 233 96 q 275 113 261 96 q 289 153 289 129 q 274 196 289 183 q 233 208 258 208 q 196 196 213 208 q 179 151 179 183 q 193 113 179 129 q 233 96 207 96 z "},"₉":{"ha":474,"x_min":33,"x_max":431,"o":"m 158 -212 q 115 -209 136 -212 q 76 -200 93 -206 l 76 -114 q 115 -122 97 -119 q 150 -125 133 -125 q 192 -121 168 -125 q 242 -103 217 -117 q 286 -64 267 -90 q 308 7 306 -37 q 269 -17 296 -6 q 193 -29 242 -29 q 78 11 124 -29 q 33 125 33 51 q 52 209 33 169 q 110 273 71 249 q 213 297 149 297 q 381 238 332 297 q 431 63 431 179 q 405 -86 431 -31 q 338 -169 379 -142 q 249 -204 296 -196 q 158 -212 201 -212 m 215 53 q 278 69 254 53 q 311 96 301 85 q 298 169 311 144 q 263 204 285 194 q 217 214 242 214 q 178 199 192 214 q 158 165 164 185 q 153 129 153 144 q 174 74 153 94 q 215 53 194 53 z "},"⁰":{"ha":526,"x_min":53,"x_max":474,"o":"m 264 635 q 105 699 157 635 q 53 890 53 764 q 105 1082 53 1018 q 264 1146 157 1146 q 422 1082 371 1146 q 474 890 474 1018 q 422 699 474 764 q 264 635 371 635 m 264 725 q 305 737 282 725 q 345 784 328 749 q 363 890 363 819 q 345 998 363 963 q 305 1045 328 1033 q 264 1057 282 1057 q 223 1045 246 1057 q 183 998 200 1033 q 165 890 165 963 q 183 784 165 819 q 223 737 200 749 q 264 725 246 725 z "},"¹":{"ha":332,"x_min":58,"x_max":240,"o":"m 124 643 l 124 1064 l 143 1013 l 58 961 l 58 1081 l 154 1142 l 240 1142 l 240 643 l 124 643 z "},"²":{"ha":460,"x_min":69,"x_max":400,"o":"m 69 643 l 69 706 q 135 758 100 728 q 203 825 171 789 q 255 899 235 861 q 275 976 275 938 q 251 1028 275 1008 q 192 1049 228 1049 q 126 1035 156 1049 q 74 1004 96 1021 l 74 1106 q 136 1135 100 1122 q 215 1147 172 1147 q 322 1126 282 1147 q 378 1071 361 1104 q 394 1003 394 1038 q 365 898 394 950 q 290 801 336 846 q 196 724 244 756 l 182 747 l 400 747 l 400 643 l 69 643 z "},"³":{"ha":454,"x_min":68,"x_max":400,"o":"m 207 636 q 132 647 167 636 q 68 671 97 657 l 68 768 q 126 741 96 753 q 192 729 156 729 q 255 746 228 729 q 282 800 282 763 q 256 849 282 832 q 190 865 229 865 l 136 865 l 136 947 l 192 947 q 237 961 217 947 q 257 1007 257 975 q 235 1040 257 1028 q 183 1053 214 1053 q 126 1045 153 1053 q 81 1026 100 1038 l 81 1118 q 135 1139 106 1131 q 200 1147 165 1147 q 294 1129 256 1147 q 355 1081 333 1111 q 376 1013 376 1051 q 362 957 376 979 q 331 924 347 935 q 308 913 314 914 q 347 890 325 904 q 385 851 369 876 q 400 783 400 825 q 387 724 400 751 q 349 678 374 697 q 288 647 324 658 q 207 636 251 636 z "},"⁴":{"ha":461,"x_min":39,"x_max":424,"o":"m 243 643 l 243 763 l 39 763 l 39 856 l 269 1142 l 356 1142 l 356 853 l 424 853 l 424 763 l 356 763 l 356 643 l 243 643 m 140 853 l 243 853 l 243 1036 l 299 1049 l 140 853 z "},"⁵":{"ha":446,"x_min":72,"x_max":401,"o":"m 232 638 q 147 647 183 638 q 83 668 110 656 l 83 765 q 135 742 103 754 q 201 731 167 731 q 262 746 240 731 q 283 794 283 761 q 270 844 283 828 q 236 866 257 860 q 196 872 215 872 q 143 862 165 872 q 117 850 121 851 l 72 908 l 99 1142 l 369 1142 l 369 1046 l 183 1046 l 172 949 q 207 956 189 953 q 254 958 225 958 q 319 945 285 958 q 377 898 353 932 q 401 801 401 864 q 377 701 401 736 q 314 651 353 665 q 232 638 275 638 z "},"⁶":{"ha":474,"x_min":31,"x_max":428,"o":"m 249 636 q 80 696 129 636 q 31 871 31 756 q 56 1020 31 965 q 124 1103 82 1075 q 213 1139 165 1131 q 303 1147 261 1147 q 347 1144 325 1147 q 383 1136 368 1140 l 383 1047 q 346 1057 364 1054 q 310 1060 328 1060 q 269 1055 293 1060 q 219 1037 244 1050 q 175 997 193 1024 q 151 928 157 971 q 192 951 165 939 q 268 964 219 964 q 383 924 338 964 q 428 808 428 883 q 410 726 428 765 q 352 661 392 686 q 249 636 313 636 m 235 721 q 290 744 274 721 q 307 804 307 768 q 285 860 307 839 q 233 881 264 881 q 181 865 203 881 q 150 838 160 850 q 165 766 151 792 q 199 731 179 740 q 235 721 218 721 z "},"⁷":{"ha":440,"x_min":54,"x_max":404,"o":"m 96 643 l 307 1117 l 358 1038 l 54 1038 l 54 1142 l 404 1142 l 404 1081 l 214 643 l 96 643 z "},"⁸":{"ha":465,"x_min":44,"x_max":422,"o":"m 233 636 q 124 658 165 636 q 63 715 82 679 q 44 790 44 751 q 64 858 44 832 q 105 897 83 883 q 133 911 126 910 q 110 924 128 913 q 78 958 93 936 q 63 1017 63 981 q 79 1081 63 1051 q 134 1128 96 1110 q 233 1147 172 1147 q 333 1128 296 1147 q 386 1081 369 1110 q 403 1017 403 1051 q 388 958 403 981 q 357 924 374 935 q 335 911 340 913 q 364 897 343 910 q 403 858 385 883 q 422 790 422 832 q 403 715 422 751 q 343 658 385 679 q 233 636 301 636 m 233 724 q 289 745 274 724 q 304 794 304 767 q 283 850 304 831 q 233 869 263 869 q 183 850 203 869 q 163 794 163 831 q 181 745 163 767 q 233 724 200 724 m 233 946 q 275 963 261 946 q 289 1003 289 979 q 274 1046 289 1033 q 233 1058 258 1058 q 196 1046 213 1058 q 179 1001 179 1033 q 193 963 179 979 q 233 946 207 946 z "},"⁹":{"ha":474,"x_min":33,"x_max":431,"o":"m 158 638 q 115 641 136 638 q 76 650 93 644 l 76 736 q 115 728 97 731 q 150 725 133 725 q 192 729 168 725 q 242 747 217 733 q 286 786 267 760 q 308 857 306 813 q 269 833 296 844 q 193 821 242 821 q 78 861 124 821 q 33 975 33 901 q 52 1059 33 1019 q 110 1123 71 1099 q 213 1147 149 1147 q 381 1088 332 1147 q 431 913 431 1029 q 405 764 431 819 q 338 681 379 708 q 249 646 296 654 q 158 638 201 638 m 215 903 q 278 919 254 903 q 311 946 301 935 q 298 1019 311 994 q 263 1054 285 1044 q 217 1064 242 1064 q 178 1049 192 1064 q 158 1015 164 1035 q 153 979 153 994 q 174 924 153 944 q 215 903 194 903 z "},"⁄":{"ha":594,"x_min":-46,"x_max":638,"o":"m -46 -31 l 519 951 l 638 951 l 72 -31 l -46 -31 z "},"½":{"ha":982,"x_min":58,"x_max":913,"o":"m 124 436 l 124 857 l 143 806 l 58 754 l 58 874 l 154 935 l 240 935 l 240 436 l 124 436 m 86 -31 l 651 951 l 769 951 l 204 -31 l 86 -31 m 582 1 l 582 64 q 648 117 613 86 q 715 183 683 147 q 767 258 747 219 q 788 335 788 296 q 764 387 788 367 q 704 407 740 407 q 638 393 668 407 q 586 363 608 379 l 586 464 q 649 493 613 481 q 728 506 685 506 q 834 484 794 506 q 890 429 874 463 q 907 361 907 396 q 878 256 907 308 q 803 159 849 204 q 708 82 757 114 l 694 106 l 913 106 l 913 1 l 582 1 z "},"⅓":{"ha":1011,"x_min":58,"x_max":990,"o":"m 124 436 l 124 857 l 143 806 l 58 754 l 58 874 l 154 935 l 240 935 l 240 436 l 124 436 m 144 -31 l 710 951 l 828 951 l 263 -31 l 144 -31 m 797 -6 q 722 5 757 -6 q 658 29 688 15 l 658 126 q 716 99 686 111 q 782 88 746 88 q 845 104 818 88 q 872 158 872 121 q 846 207 872 190 q 781 224 819 224 l 726 224 l 726 306 l 782 306 q 827 319 807 306 q 847 365 847 333 q 826 399 847 386 q 774 411 804 411 q 717 403 743 411 q 671 385 690 396 l 671 476 q 726 497 696 489 q 790 506 756 506 q 885 488 846 506 q 945 440 924 469 q 967 371 967 410 q 952 315 967 338 q 921 283 938 293 q 899 271 904 272 q 938 249 915 263 q 975 209 960 235 q 990 142 990 183 q 977 83 990 110 q 939 36 964 56 q 878 6 914 17 q 797 -6 842 -6 z "},"¼":{"ha":1024,"x_min":58,"x_max":954,"o":"m 124 436 l 124 857 l 143 806 l 58 754 l 58 874 l 154 935 l 240 935 l 240 436 l 124 436 m 93 -31 l 658 951 l 776 951 l 211 -31 l 93 -31 m 774 1 l 774 121 l 569 121 l 569 214 l 800 500 l 886 500 l 886 211 l 954 211 l 954 121 l 886 121 l 886 1 l 774 1 m 671 211 l 774 211 l 774 394 l 829 407 l 671 211 z "},"¾":{"ha":1063,"x_min":68,"x_max":993,"o":"m 207 436 q 132 447 167 436 q 68 471 97 457 l 68 568 q 126 541 96 553 q 192 529 156 529 q 255 546 228 529 q 282 600 282 563 q 256 649 282 632 q 190 665 229 665 l 136 665 l 136 747 l 192 747 q 237 761 217 747 q 257 807 257 775 q 235 840 257 828 q 183 853 214 853 q 126 845 153 853 q 81 826 100 838 l 81 918 q 135 939 106 931 q 200 947 165 947 q 294 929 256 947 q 355 881 333 911 q 376 813 376 851 q 362 757 376 779 q 331 724 347 735 q 308 713 314 714 q 347 690 325 704 q 385 651 369 676 q 400 583 400 625 q 387 524 400 551 q 349 478 374 497 q 288 447 324 458 q 207 436 251 436 m 185 -31 l 750 951 l 868 951 l 303 -31 l 185 -31 m 813 1 l 813 121 l 608 121 l 608 214 l 839 500 l 925 500 l 925 211 l 993 211 l 993 121 l 925 121 l 925 1 l 813 1 m 710 211 l 813 211 l 813 394 l 868 407 l 710 211 z "},"⅛":{"ha":1006,"x_min":58,"x_max":940,"o":"m 124 436 l 124 857 l 143 806 l 58 754 l 58 874 l 154 935 l 240 935 l 240 436 l 124 436 m 96 -31 l 661 951 l 779 951 l 214 -31 l 96 -31 m 750 -6 q 640 16 682 -6 q 580 74 599 38 q 561 149 561 110 q 581 216 561 190 q 622 255 600 242 q 650 269 643 268 q 627 283 644 271 q 594 317 610 294 q 579 375 579 339 q 596 439 579 410 q 651 487 613 468 q 750 506 689 506 q 849 487 813 506 q 903 439 886 468 q 919 375 919 410 q 905 316 919 339 q 874 282 890 293 q 851 269 857 271 q 881 255 860 268 q 920 216 901 242 q 939 149 939 190 q 920 74 939 110 q 860 16 901 38 q 750 -6 818 -6 m 750 82 q 806 103 790 82 q 821 153 821 125 q 800 208 821 189 q 750 228 779 228 q 699 208 719 228 q 679 153 679 189 q 698 103 679 125 q 750 82 717 82 m 750 304 q 792 321 778 304 q 806 361 806 338 q 790 404 806 392 q 750 417 775 417 q 713 404 729 417 q 696 360 696 392 q 710 321 696 338 q 750 304 724 304 z "},"⅜":{"ha":1103,"x_min":68,"x_max":1038,"o":"m 207 436 q 132 447 167 436 q 68 471 97 457 l 68 568 q 126 541 96 553 q 192 529 156 529 q 255 546 228 529 q 282 600 282 563 q 256 649 282 632 q 190 665 229 665 l 136 665 l 136 747 l 192 747 q 237 761 217 747 q 257 807 257 775 q 235 840 257 828 q 183 853 214 853 q 126 845 153 853 q 81 826 100 838 l 81 918 q 135 939 106 931 q 200 947 165 947 q 294 929 256 947 q 355 881 333 911 q 376 813 376 851 q 362 757 376 779 q 331 724 347 735 q 308 713 314 714 q 347 690 325 704 q 385 651 369 676 q 400 583 400 625 q 387 524 400 551 q 349 478 374 497 q 288 447 324 458 q 207 436 251 436 m 190 -31 l 756 951 l 874 951 l 308 -31 l 190 -31 m 847 -6 q 738 16 779 -6 q 677 74 696 38 q 658 149 658 110 q 678 216 658 190 q 719 255 697 242 q 747 269 740 268 q 724 283 742 271 q 692 317 707 294 q 676 375 676 339 q 693 439 676 410 q 748 487 710 468 q 847 506 786 506 q 947 487 910 506 q 1000 439 983 468 q 1017 375 1017 410 q 1002 316 1017 339 q 971 282 988 293 q 949 269 954 271 q 978 255 957 268 q 1017 216 999 242 q 1036 149 1036 190 q 1017 74 1036 110 q 957 16 999 38 q 847 -6 915 -6 m 847 82 q 903 103 888 82 q 918 153 918 125 q 897 208 918 189 q 847 228 876 228 q 797 208 817 228 q 776 153 776 189 q 795 103 776 125 q 847 82 814 82 m 847 304 q 889 321 875 304 q 903 361 903 338 q 888 404 903 392 q 847 417 872 417 q 810 404 826 417 q 793 360 793 392 q 807 321 793 338 q 847 304 821 304 z "},"⅝":{"ha":1121,"x_min":72,"x_max":1056,"o":"m 232 426 q 147 435 183 426 q 83 457 110 444 l 83 554 q 135 531 103 543 q 201 519 167 519 q 262 535 240 519 q 283 583 283 550 q 270 633 283 617 q 236 655 257 649 q 196 661 215 661 q 143 651 165 661 q 117 639 121 640 l 72 697 l 99 931 l 369 931 l 369 835 l 183 835 l 172 738 q 207 744 189 742 q 254 747 225 747 q 319 734 285 747 q 377 687 353 721 q 401 590 401 653 q 377 490 401 525 q 314 440 353 454 q 232 426 275 426 m 211 -31 l 776 951 l 894 951 l 329 -31 l 211 -31 m 865 -6 q 756 16 797 -6 q 695 74 714 38 q 676 149 676 110 q 696 216 676 190 q 737 255 715 242 q 765 269 758 268 q 742 283 760 271 q 710 317 725 294 q 694 375 694 339 q 711 439 694 410 q 766 487 728 468 q 865 506 804 506 q 965 487 928 506 q 1018 439 1001 468 q 1035 375 1035 410 q 1020 316 1035 339 q 989 282 1006 293 q 967 269 972 271 q 996 255 975 268 q 1035 216 1017 242 q 1054 149 1054 190 q 1035 74 1054 110 q 975 16 1017 38 q 865 -6 933 -6 m 865 82 q 921 103 906 82 q 936 153 936 125 q 915 208 936 189 q 865 228 894 228 q 815 208 835 228 q 794 153 794 189 q 813 103 794 125 q 865 82 832 82 m 865 304 q 907 321 893 304 q 921 361 921 338 q 906 404 921 392 q 865 417 890 417 q 828 404 844 417 q 811 360 811 392 q 825 321 811 338 q 865 304 839 304 z "},"⅞":{"ha":1082,"x_min":54,"x_max":1017,"o":"m 96 436 l 307 910 l 358 831 l 54 831 l 54 935 l 404 935 l 404 874 l 214 436 l 96 436 m 147 -31 l 713 951 l 831 951 l 265 -31 l 147 -31 m 826 -6 q 717 16 758 -6 q 656 74 675 38 q 638 149 638 110 q 657 216 638 190 q 698 255 676 242 q 726 269 719 268 q 703 283 721 271 q 671 317 686 294 q 656 375 656 339 q 672 439 656 410 q 727 487 689 468 q 826 506 765 506 q 926 487 889 506 q 979 439 963 468 q 996 375 996 410 q 981 316 996 339 q 950 282 967 293 q 928 269 933 271 q 957 255 936 268 q 997 216 978 242 q 1015 149 1015 190 q 997 74 1015 110 q 936 16 978 38 q 826 -6 894 -6 m 826 82 q 882 103 867 82 q 897 153 897 125 q 876 208 897 189 q 826 228 856 228 q 776 208 796 228 q 756 153 756 189 q 774 103 756 125 q 826 82 793 82 m 826 304 q 868 321 854 304 q 882 361 882 338 q 867 404 882 392 q 826 417 851 417 q 789 404 806 417 q 772 360 772 392 q 786 321 772 338 q 826 304 800 304 z "},"*":{"ha":572,"x_min":117,"x_max":456,"o":"m 243 639 l 256 753 l 158 683 l 117 758 l 233 807 l 117 857 l 158 929 l 256 861 l 243 976 l 328 976 l 318 861 l 413 929 l 456 857 l 340 807 l 456 758 l 413 683 l 318 753 l 328 639 l 243 639 z "},"\\":{"ha":538,"x_min":-51,"x_max":575,"o":"m 460 -136 l -51 1050 l 65 1050 l 575 -136 l 460 -136 z "},"·":{"ha":453,"x_min":157,"x_max":293,"o":"m 157 311 l 157 446 l 293 446 l 293 311 l 157 311 z "},"•":{"ha":624,"x_min":122,"x_max":497,"o":"m 311 272 q 217 297 260 272 q 148 365 174 322 q 122 460 122 408 q 148 555 122 513 q 217 622 174 597 q 311 647 260 647 q 405 622 363 647 q 472 555 447 597 q 497 460 497 513 q 472 365 497 408 q 406 297 447 322 q 311 272 364 272 z "},":":{"ha":557,"x_min":211,"x_max":349,"o":"m 211 494 l 211 629 l 349 629 l 349 494 l 211 494 m 211 61 l 211 196 l 349 196 l 349 61 l 211 61 z "},",":{"ha":457,"x_min":103,"x_max":343,"o":"m 103 -156 l 206 117 l 343 117 l 221 -156 l 103 -156 z "},"…":{"ha":1125,"x_min":149,"x_max":979,"o":"m 149 0 l 149 135 l 286 135 l 286 0 l 149 0 m 496 0 l 496 135 l 633 135 l 633 0 l 496 0 m 843 0 l 843 135 l 979 135 l 979 0 l 843 0 z "},"!":{"ha":542,"x_min":204,"x_max":347,"o":"m 221 243 l 204 926 l 346 926 l 331 243 l 221 243 m 204 0 l 204 131 l 347 131 l 347 0 l 204 0 z "},"¡":{"ha":532,"x_min":203,"x_max":344,"o":"m 203 -233 l 219 450 l 329 450 l 344 -233 l 203 -233 m 203 563 l 203 693 l 344 693 l 344 563 l 203 563 z "},"#":{"ha":836,"x_min":100,"x_max":743,"o":"m 183 26 l 210 174 l 100 174 l 100 269 l 225 269 l 260 474 l 139 474 l 139 568 l 278 568 l 304 726 l 403 726 l 376 568 l 549 568 l 576 726 l 676 726 l 647 568 l 743 568 l 743 474 l 632 474 l 596 269 l 704 269 l 704 174 l 581 174 l 556 26 l 456 26 l 481 174 l 308 174 l 282 26 l 183 26 m 325 269 l 497 269 l 533 474 l 360 474 l 325 269 z "},".":{"ha":363,"x_min":99,"x_max":264,"o":"m 99 0 l 99 163 l 264 163 l 264 0 l 99 0 z "},"?":{"ha":690,"x_min":111,"x_max":597,"o":"m 263 243 l 263 296 q 283 421 263 372 q 335 501 304 469 q 397 558 365 533 q 449 609 428 582 q 469 678 469 636 q 449 757 469 726 q 392 801 429 788 q 304 815 356 815 q 191 795 242 815 q 111 751 140 775 l 111 881 q 147 900 118 886 q 219 926 175 914 q 318 938 263 938 q 415 924 365 938 q 505 881 464 911 q 572 801 546 851 q 597 676 597 751 q 576 578 597 617 q 524 513 556 540 q 462 458 493 486 q 410 392 431 431 q 389 290 389 353 l 389 243 l 263 243 m 254 0 l 254 131 l 397 131 l 397 0 l 254 0 z "},"¿":{"ha":689,"x_min":103,"x_max":590,"o":"m 382 -244 q 285 -231 335 -244 q 195 -188 236 -218 q 128 -108 154 -158 q 103 17 103 -57 q 124 115 103 78 q 176 181 144 153 q 238 235 207 208 q 290 301 269 263 q 311 403 311 340 l 311 451 l 438 451 l 438 397 q 417 272 438 321 q 365 192 396 224 q 303 135 335 160 q 251 84 272 111 q 231 17 231 57 q 251 -62 231 -31 q 308 -108 271 -93 q 397 -122 346 -122 q 510 -101 458 -122 q 590 -58 561 -81 l 590 -187 q 553 -207 582 -193 q 481 -233 525 -221 q 382 -244 438 -244 m 303 563 l 303 693 l 446 693 l 446 563 l 303 563 z "},"\"":{"ha":553,"x_min":113,"x_max":439,"o":"m 331 660 l 306 939 l 439 939 l 414 660 l 331 660 m 138 660 l 113 939 l 244 939 l 221 660 l 138 660 z "},"'":{"ha":361,"x_min":113,"x_max":244,"o":"m 138 660 l 113 939 l 244 939 l 221 660 l 138 660 z "},";":{"ha":410,"x_min":54,"x_max":311,"o":"m 54 -156 l 146 125 l 303 125 l 172 -156 l 54 -156 m 146 467 l 146 629 l 311 629 l 311 467 l 146 467 z "},"/":{"ha":586,"x_min":-19,"x_max":607,"o":"m -19 -136 l 490 1050 l 607 1050 l 96 -136 l -19 -136 z "},"_":{"ha":758,"x_min":0,"x_max":758,"o":"m 0 -118 l 0 -33 l 758 -33 l 758 -118 l 0 -118 z "}}}
